<?xml version="1.0" encoding="UTF-8"?><svg id="top" version="1.1" xmlns="http://www.w3.org/2000/svg" xmlns:xlink="http://www.w3.org/1999/xlink" xmlns:ev="http://www.w3.org/2001/xml-events" width="509.400pt" height="469.671pt" zoomAndPan="magnify" preserveAspectRatio="xMinYMin" onload="createPlot()" viewBox="0 0 509.400 469.671">
   <defs id="definitions">
   <filter id="Shadow" filterUnits="userSpaceOnUse">
    <feGaussianBlur in="SourceAlpha" stdDeviation="4" result="blur"/>
    <feOffset in="blur" dx="4" dy="4" result="offsetBlurredAlpha"/>
    <feMerge>
     <feMergeNode in="offsetBlurredAlpha"/>
     <feMergeNode in="SourceGraphic"/>
    </feMerge> 
   </filter>    
    <filter id="Correlation1" x="-20%" y="-20%" width="140%" height="140%" filterUnits="objectBoundingBox">
     <feGaussianBlur in="SourceGraphic" stdDeviation="7" result="blur"/>
     <feColorMatrix type="matrix" in="blur" values="0 0 0  5.00 -2.00&#10;               0 0 0 -2.50  2.50&#10;               0 0 0  0.00  0.00&#10;               0 0 0  2.50  0.00"/>
    </filter>    
    <filter id="Correlation2" x="-20%" y="-20%" width="140%" height="140%" filterUnits="objectBoundingBox">
     <feGaussianBlur in="SourceGraphic" stdDeviation="7" result="blur"/>
     <feGaussianBlur in="SourceAlpha" stdDeviation="7" result="opacity"/>
     <feColorMatrix type="matrix" in="blur" result="newcolor" values="0 0 0  5.00 -2.00&#10;               0 0 0 -2.50  2.50&#10;               0 0 0  0.00  0.00&#10;               0 0 0  2.50  0.00"/>
     <feSpecularLighting in="opacity" surfaceScale="5" specularConstant="1" specularExponent="20" lighting-color="white" result="specularOut">
      <feDistantLight azimuth="225" elevation="30"/>
     </feSpecularLighting>
     <feComposite in="newcolor" in2="specularOut" operator="arithmetic" k1="0" k2="1" k3="1" k4="0" result="litPaint"/>
    </filter>
    <pattern id="Sequence" patternUnits="userSpaceOnUse" x="0" y="0" width="5" height="5" viewBox="0 0 5 5">
    </pattern>    
    <pattern id="U_Sequence" patternUnits="userSpaceOnUse" x="0" y="0" width="5" height="5" viewBox="0 0 5 5">
     <line x1="-2.5" x2="5" y1="5" y2="-2.5" style="stroke-width:1.5;stroke:black"/>
     <line x1="0" x2="7.5" y1="7.5" y2="0" style="stroke-width:1.5;stroke:black"/>
    </pattern>    
    <pattern id="D_Sequence" patternUnits="userSpaceOnUse" x="0" y="0" width="5" height="5" viewBox="0 0 5 5">
     <line x1="-2.5" x2="7.5" y1="-2.5" y2="7.5" style="stroke-width:1;stroke:black"/>
     <line x1="-2.5" x2="7.5" y1="7.5" y2="-2.5" style="stroke-width:1;stroke:black"/>
    </pattern>    
    <pattern id="V_Sequence" patternUnits="userSpaceOnUse" x="0" y="0" width="5" height="5" viewBox="0 0 5 5">
     <ellipse cx="2.5" cy="2.5" rx="1.5" ry="0.7" style="fill:black"/>
    </pattern>    
    <pattern id="P_Sequence" patternUnits="userSpaceOnUse" x="0" y="0" width="5" height="5" viewBox="0 0 5 5">
     <circle cx="1.25" cy="3.75" r="1" style="fill:black"/>
     <circle cx="3.75" cy="1.25" r="1" style="fill:black"/>
    </pattern>
    <style type="text/css">
      rect.border { fill:none; stroke:black;stroke-width:1px }
      rect.fillblack { fill:black; stroke:black;stroke-width:1px }
      rect.structure { fill:none; stroke:none }
      rect.structtab { fill:blue; stroke:none;fill-opacity:0.2 }
      rect.structclip { fill:white; stroke:none }
      rect.structborder { fill:none; stroke:black; stroke-width:0.5px }
      rect.range3 {fill:black;stroke:black;stroke-width:1px;fill-opacity:0.1 }
      rect.range2 {fill:black;stroke:black;stroke-width:1px;fill-opacity:0.3 }
      rect.range1 {fill:black;stroke:black;stroke-width:1px;fill-opacity:0.5 }
      rect.fillbackground { fill:#000099 }
      rect.fillmodel { fill:#ffffcc;stroke:black;stroke-width:1px;fill-opacity:0.8 }
      rect.modeldist {fill:black;stroke:black;stroke-width:1px;fill-opacity:0.3 }
      rect.fill { fill:#CC0000 }
      polygon.main { fill:black; stroke:black;stroke-width:0.2px;fill-opacity:0.5 }
      polygon.shadow { fill:black; stroke:black;stroke-width:0.2px;fill-opacity:0.1 }
      polygon.curve { fill:blue; stroke:blue;stroke-width:1px;fill-opacity:0.3 }
      polygon.normal { fill:red; stroke:red;stroke-width:1px;fill-opacity:0.3 }
      polygon.kdesigma { fill:blue; stroke:blue;stroke-width:0px;fill-opacity:0.2 }
      polygon.modeldist { fill:url(#U_Sequence);stroke:black;stroke-width:1px;fill-opacity:0.3 }
      polyline.datacurve { fill:none; stroke:blue;stroke-width:1px }
      polyline.range { fill:none; stroke:black; stroke-width:1px; stroke-linejoin:round }
      polyline.ensemble { fill:none; stroke:black; stroke-width:0.5px;stroke-opacity:0.2 }
      polyline.kdemean { fill:none; stroke:blue; stroke-width:1px }
      path.model3 { fill:blue; stroke:blue;stroke-width:1px;fill-opacity:0.1 }
      path.model2 { fill:blue; stroke:blue;stroke-width:1px;fill-opacity:0.3 }
      path.model1 { fill:blue; stroke:blue;stroke-width:1px;fill-opacity:0.5 }
      g.curve { fill:blue; stroke:blue;stroke-width:1px;fill-opacity:0.3 }
      line.majorpip { stroke:black; stroke-width:1px }
      line.minorpip { stroke:black; stroke-width:0.5px }
      line.gridline { stroke:black; stroke-width:0.5px }
      line.majorpip2 { stroke:white; stroke-width:1px }
      line.minorpip2 { stroke:white; stroke-width:0.5px }
      line.gridline2 { stroke:white; stroke-width:0.5px }
      line.okline { stroke:green; stroke-width:1px }
      line.errorline { stroke:red; stroke-width:1px }
      line.range { stroke:black; stroke-width:1px }
      line.modelline { stroke:black; stroke-width:1px }
      line.constrshadow { stroke:#ffffcc; stroke-width:2px }
      line.constrok { stroke:black; stroke-width:1px }
      line.constrerror { stroke:#ff0000; stroke-width:1px }
      line.curve { stroke:blue;stroke-width:1px }
      text { fill:black; stroke:none; font-size:10pt; font-family:"Arial","Helvetica"; font-style:normal }
    </style>
   <clipPath id="clip1"><rect x="0" width="481.1" y="0" height="413.07"/></clipPath><clipPath id="clip2"><rect class="structure" x="0" width="471.48" y="-383.13" height="383.13" rx="5"/></clipPath><clipPath id="clip3"><rect class="structure" x="0" width="461.86" y="-353.2" height="353.2" rx="5"/></clipPath><clipPath id="clip4"><rect x="0" width="481.1" y="0" height="413.07"/></clipPath></defs>
    <g id="mainframe"><rect x="-50.94" width="611.28" y="-46.97" height="563.61" style="fill:white" stroke="none"/><g id="mainviewport" transform="translate(0 0)"><rect class="border" x="14.15" width="481.1" y="14.15" height="413.07"/><g id="tabarea" transform="translate(14.15 14.15)"><g id="group" transform="translate(4.81 398.1)"><g clip-path="url(#clip2)"><rect class="structtab" x="0" width="471.48" y="-383.13" height="26.94"/></g></g><g id="group" transform="translate(9.62 398.1)"><g clip-path="url(#clip3)"><rect class="structtab" x="0" width="461.86" y="-353.2" height="26.94"/></g></g></g><g id="plotarea" transform="translate(14.15 14.15)"><g id="structarea" transform="translate(0 0)"><g clip-path="url(#clip1)"><rect class="structure" x="4.81" width="471.48" y="14.97" height="383.13" rx="5"/><rect class="structborder" x="4.81" width="471.48" y="14.97" height="383.13" rx="5"/><rect class="structure" x="9.62" width="461.86" y="44.9" height="353.2" rx="5"/><rect class="structborder" x="9.62" width="461.86" y="44.9" height="353.2" rx="5"/></g></g><g clip-path="url(#clip4)"><g id="itemarea1" transform="translate(0 -9.68)"/><g id="itemarea2" transform="translate(0 20.25)"><polygon class="shadow" points="260.29,36.63&#10;260.29,36.63&#10;262.12,36.63&#10;263.95,36.63&#10;265.77,36.62&#10;267.6,36.62&#10;269.43,36.62&#10;271.26,36.62&#10;273.09,36.62&#10;274.91,36.62&#10;276.74,36.62&#10;278.57,36.62&#10;280.4,36.62&#10;282.23,36.6&#10;284.05,36.55&#10;285.88,36.47&#10;287.71,36.44&#10;289.54,36.44&#10;291.37,36.46&#10;293.19,36.44&#10;295.02,36.21&#10;296.85,34.97&#10;298.68,31.25&#10;300.5,27.58&#10;302.33,27.47&#10;304.16,30.22&#10;305.99,33.26&#10;307.82,35.17&#10;309.64,35.86&#10;311.47,35.94&#10;313.3,35.71&#10;315.13,35.28&#10;316.96,34.93&#10;318.78,34.94&#10;320.61,35.15&#10;322.44,35.32&#10;324.27,35.24&#10;326.1,34.75&#10;327.92,34.25&#10;329.75,34.29&#10;331.58,34.93&#10;333.41,35.9&#10;335.23,36.49&#10;337.06,36.61&#10;338.89,36.62&#10;340.72,36.62&#10;342.55,36.62&#10;344.37,36.63&#10;346.2,36.63&#10;348.03,36.63&#10;348.03,36.63"/></g><g id="itemarea3" transform="translate(0 50.18)"/><g id="itemarea4" transform="translate(0 80.11)"><polygon class="shadow" points="103.09,36.63&#10;103.09,36.63&#10;104.92,36.63&#10;106.75,36.62&#10;108.58,36.62&#10;110.4,36.62&#10;112.23,36.62&#10;114.06,36.62&#10;115.89,36.62&#10;117.72,36.61&#10;119.54,36.61&#10;121.37,36.62&#10;123.2,36.62&#10;125.03,36.62&#10;126.86,36.62&#10;128.68,36.62&#10;130.51,36.62&#10;132.34,36.62&#10;134.17,36.62&#10;135.99,36.62&#10;137.82,36.62&#10;139.65,36.62&#10;141.48,36.62&#10;143.31,36.62&#10;145.13,36.62&#10;146.96,36.62&#10;148.79,36.62&#10;150.62,36.62&#10;152.45,36.62&#10;154.27,36.62&#10;156.1,36.62&#10;157.93,36.62&#10;159.76,36.62&#10;161.59,36.62&#10;163.41,36.62&#10;165.24,36.62&#10;167.07,36.62&#10;168.9,36.61&#10;170.72,36.6&#10;172.55,36.61&#10;174.38,36.61&#10;176.21,36.61&#10;178.04,36.57&#10;179.86,36.52&#10;181.69,36.48&#10;183.52,36.46&#10;185.35,36.4&#10;187.18,36.29&#10;189,36.28&#10;190.83,36.34&#10;192.66,36.39&#10;194.49,36.42&#10;196.32,36.4&#10;198.14,36.37&#10;199.97,36.34&#10;201.8,36.28&#10;203.63,36.16&#10;205.45,35.97&#10;207.28,35.64&#10;209.11,35.39&#10;210.94,35.5&#10;212.77,35.76&#10;214.59,36.01&#10;216.42,36.18&#10;218.25,36.21&#10;220.08,35.94&#10;221.91,35.16&#10;223.73,33.85&#10;225.56,32.13&#10;227.39,30.55&#10;229.22,29.82&#10;231.04,29.77&#10;232.87,29.61&#10;234.7,29.95&#10;236.53,31.59&#10;238.36,32.75&#10;240.18,32.17&#10;242.01,30.34&#10;243.84,29.26&#10;245.67,28.9&#10;247.5,28.4&#10;249.32,27.71&#10;251.15,27.47&#10;252.98,27.48&#10;254.81,27.47&#10;256.64,27.51&#10;258.46,27.66&#10;260.29,27.64&#10;262.12,27.47&#10;263.95,27.63&#10;265.77,27.93&#10;267.6,28.03&#10;269.43,28.52&#10;271.26,29.87&#10;273.09,30.71&#10;274.91,29.61&#10;276.74,28.36&#10;278.57,28.18&#10;280.4,28.73&#10;282.23,29.38&#10;284.05,30.6&#10;285.88,32.8&#10;287.71,34.34&#10;289.54,34.75&#10;291.37,34.51&#10;293.19,34.21&#10;295.02,34.1&#10;296.85,34.3&#10;298.68,34.53&#10;300.5,34.66&#10;302.33,34.83&#10;304.16,34.88&#10;305.99,34.88&#10;307.82,34.79&#10;309.64,34.51&#10;311.47,34.28&#10;313.3,34.44&#10;315.13,35.07&#10;316.96,35.72&#10;318.78,36.13&#10;320.61,36.29&#10;322.44,36.33&#10;324.27,36.37&#10;326.1,36.49&#10;327.92,36.58&#10;329.75,36.61&#10;331.58,36.62&#10;333.41,36.62&#10;335.23,36.62&#10;337.06,36.62&#10;338.89,36.62&#10;340.72,36.62&#10;342.55,36.62&#10;344.37,36.62&#10;346.2,36.62&#10;348.03,36.62&#10;349.86,36.61&#10;351.69,36.62&#10;353.51,36.62&#10;355.34,36.62&#10;357.17,36.62&#10;359,36.62&#10;360.83,36.62&#10;362.65,36.62&#10;364.48,36.62&#10;366.31,36.62&#10;368.14,36.62&#10;369.96,36.62&#10;371.79,36.62&#10;373.62,36.62&#10;375.45,36.62&#10;377.28,36.62&#10;379.1,36.62&#10;380.93,36.63&#10;382.76,36.63&#10;382.76,36.63"/><polygon class="main" points="238.36,36.63&#10;238.36,36.63&#10;240.18,36.63&#10;242.01,36.63&#10;243.84,36.62&#10;245.67,36.62&#10;247.5,36.62&#10;249.32,36.62&#10;251.15,36.62&#10;252.98,36.62&#10;254.81,36.62&#10;256.64,36.62&#10;258.46,36.62&#10;260.29,36.6&#10;262.12,36.55&#10;263.95,36.47&#10;265.77,36.44&#10;267.6,36.44&#10;269.43,36.46&#10;271.26,36.44&#10;273.09,36.21&#10;274.91,34.97&#10;276.74,31.25&#10;278.57,27.58&#10;280.4,27.47&#10;282.23,30.22&#10;284.05,33.26&#10;285.88,35.17&#10;287.71,35.86&#10;289.54,35.94&#10;291.37,35.71&#10;293.19,35.28&#10;295.02,34.93&#10;296.85,34.94&#10;298.68,35.15&#10;300.5,35.32&#10;302.33,35.24&#10;304.16,34.75&#10;305.99,34.25&#10;307.82,34.29&#10;309.64,34.93&#10;311.47,35.9&#10;313.3,36.49&#10;315.13,36.61&#10;316.96,36.62&#10;318.78,36.62&#10;320.61,36.62&#10;322.44,36.63&#10;324.27,36.63&#10;326.1,36.63&#10;326.1,36.63"/><polyline class="range" points="273.45,42.12&#10;273.45,43.95&#10;311.47,43.95&#10;311.47,42.12"/></g><g id="itemarea5" transform="translate(0 110.05)"><polygon class="shadow" points="106.75,36.62&#10;106.75,36.62&#10;108.58,36.62&#10;110.4,36.62&#10;112.23,36.62&#10;114.06,36.62&#10;115.89,36.62&#10;117.72,36.62&#10;119.54,36.62&#10;121.37,36.62&#10;123.2,36.62&#10;125.03,36.62&#10;126.86,36.62&#10;128.68,36.62&#10;130.51,36.62&#10;132.34,36.62&#10;134.17,36.62&#10;135.99,36.62&#10;137.82,36.62&#10;139.65,36.62&#10;141.48,36.62&#10;143.31,36.62&#10;145.13,36.62&#10;146.96,36.62&#10;148.79,36.62&#10;150.62,36.62&#10;152.45,36.62&#10;154.27,36.62&#10;156.1,36.62&#10;157.93,36.62&#10;159.76,36.62&#10;161.59,36.62&#10;163.41,36.62&#10;165.24,36.62&#10;167.07,36.62&#10;168.9,36.62&#10;170.72,36.61&#10;172.55,36.62&#10;174.38,36.62&#10;176.21,36.62&#10;178.04,36.61&#10;179.86,36.59&#10;181.69,36.57&#10;183.52,36.57&#10;185.35,36.54&#10;187.18,36.5&#10;189,36.5&#10;190.83,36.52&#10;192.66,36.54&#10;194.49,36.55&#10;196.32,36.55&#10;198.14,36.53&#10;199.97,36.52&#10;201.8,36.5&#10;203.63,36.45&#10;205.45,36.36&#10;207.28,36.21&#10;209.11,36.09&#10;210.94,36.14&#10;212.77,36.27&#10;214.59,36.38&#10;216.42,36.46&#10;218.25,36.47&#10;220.08,36.35&#10;221.91,35.96&#10;223.73,35.19&#10;225.56,33.97&#10;227.39,32.64&#10;229.22,31.93&#10;231.04,31.86&#10;232.87,31.7&#10;234.7,32.05&#10;236.53,33.54&#10;238.36,34.44&#10;240.18,34.01&#10;242.01,32.43&#10;243.84,31.31&#10;245.67,30.89&#10;247.5,30.23&#10;249.32,29.04&#10;251.15,28.17&#10;252.98,27.99&#10;254.81,28.13&#10;256.64,28.48&#10;258.46,28.93&#10;260.29,28.88&#10;262.12,28.15&#10;263.95,27.64&#10;265.77,27.48&#10;267.6,27.47&#10;269.43,27.52&#10;271.26,28.15&#10;273.09,28.74&#10;274.91,27.99&#10;276.74,27.48&#10;278.57,27.46&#10;280.4,27.58&#10;282.23,27.86&#10;284.05,28.66&#10;285.88,30.68&#10;287.71,32.56&#10;289.54,33.13&#10;291.37,32.8&#10;293.19,32.4&#10;295.02,32.26&#10;296.85,32.52&#10;298.68,32.84&#10;300.5,33.01&#10;302.33,33.26&#10;304.16,33.33&#10;305.99,33.33&#10;307.82,33.2&#10;309.64,32.8&#10;311.47,32.49&#10;313.3,32.71&#10;315.13,33.62&#10;316.96,34.68&#10;318.78,35.45&#10;320.61,35.78&#10;322.44,35.85&#10;324.27,35.94&#10;326.1,36.24&#10;327.92,36.46&#10;329.75,36.56&#10;331.58,36.6&#10;333.41,36.61&#10;335.23,36.62&#10;337.06,36.62&#10;338.89,36.62&#10;340.72,36.62&#10;342.55,36.62&#10;344.37,36.61&#10;346.2,36.61&#10;348.03,36.6&#10;349.86,36.58&#10;351.69,36.58&#10;353.51,36.59&#10;355.34,36.6&#10;357.17,36.61&#10;359,36.61&#10;360.83,36.62&#10;362.65,36.62&#10;364.48,36.62&#10;366.31,36.62&#10;368.14,36.62&#10;369.96,36.62&#10;371.79,36.62&#10;373.62,36.62&#10;375.45,36.62&#10;377.28,36.62&#10;379.1,36.62&#10;380.93,36.62&#10;382.76,36.62&#10;384.59,36.62&#10;386.42,36.62&#10;388.24,36.62&#10;390.07,36.62&#10;391.9,36.62&#10;391.9,36.62"/><polygon class="main" points="240.18,36.62&#10;240.18,36.62&#10;242.01,36.62&#10;243.84,36.62&#10;245.67,36.62&#10;247.5,36.62&#10;249.32,36.62&#10;251.15,36.62&#10;252.98,36.62&#10;254.81,36.62&#10;256.64,36.62&#10;258.46,36.62&#10;260.29,36.62&#10;262.12,36.6&#10;263.95,36.54&#10;265.77,36.47&#10;267.6,36.44&#10;269.43,36.43&#10;271.26,36.45&#10;273.09,36.43&#10;274.91,36.21&#10;276.74,34.97&#10;278.57,31.24&#10;280.4,27.58&#10;282.23,27.46&#10;284.05,30.22&#10;285.88,33.25&#10;287.71,35.17&#10;289.54,35.86&#10;291.37,35.93&#10;293.19,35.71&#10;295.02,35.27&#10;296.85,34.92&#10;298.68,34.93&#10;300.5,35.14&#10;302.33,35.31&#10;304.16,35.23&#10;305.99,34.74&#10;307.82,34.25&#10;309.64,34.29&#10;311.47,34.93&#10;313.3,35.9&#10;315.13,36.48&#10;316.96,36.61&#10;318.78,36.62&#10;320.61,36.62&#10;322.44,36.62&#10;324.27,36.62&#10;326.1,36.62&#10;327.92,36.62&#10;327.92,36.62"/><polyline class="range" points="275.28,42.11&#10;275.28,43.94&#10;313.3,43.94&#10;313.3,42.11"/></g><g id="itemarea6" transform="translate(0 139.98)"><polygon class="shadow" points="110.4,36.63&#10;110.4,36.63&#10;112.23,36.63&#10;114.06,36.62&#10;115.89,36.62&#10;117.72,36.62&#10;119.54,36.62&#10;121.37,36.62&#10;123.2,36.62&#10;125.03,36.62&#10;126.86,36.63&#10;128.68,36.63&#10;130.51,36.63&#10;132.34,36.63&#10;134.17,36.63&#10;135.99,36.63&#10;137.82,36.63&#10;139.65,36.63&#10;141.48,36.63&#10;143.31,36.63&#10;145.13,36.63&#10;146.96,36.63&#10;148.79,36.63&#10;150.62,36.63&#10;152.45,36.63&#10;154.27,36.63&#10;156.1,36.63&#10;157.93,36.63&#10;159.76,36.63&#10;161.59,36.63&#10;163.41,36.63&#10;165.24,36.63&#10;167.07,36.62&#10;168.9,36.62&#10;170.72,36.62&#10;172.55,36.62&#10;174.38,36.62&#10;176.21,36.62&#10;178.04,36.62&#10;179.86,36.62&#10;181.69,36.62&#10;183.52,36.62&#10;185.35,36.62&#10;187.18,36.62&#10;189,36.61&#10;190.83,36.62&#10;192.66,36.62&#10;194.49,36.62&#10;196.32,36.62&#10;198.14,36.62&#10;199.97,36.62&#10;201.8,36.62&#10;203.63,36.61&#10;205.45,36.6&#10;207.28,36.58&#10;209.11,36.56&#10;210.94,36.57&#10;212.77,36.59&#10;214.59,36.6&#10;216.42,36.61&#10;218.25,36.61&#10;220.08,36.6&#10;221.91,36.54&#10;223.73,36.38&#10;225.56,36.02&#10;227.39,35.52&#10;229.22,35.18&#10;231.04,35.13&#10;232.87,35.04&#10;234.7,35.23&#10;236.53,35.87&#10;238.36,36.17&#10;240.18,36.04&#10;242.01,35.41&#10;243.84,34.83&#10;245.67,34.57&#10;247.5,34.11&#10;249.32,33.07&#10;251.15,31.96&#10;252.98,31.64&#10;254.81,31.89&#10;256.64,32.41&#10;258.46,32.96&#10;260.29,32.9&#10;262.12,31.93&#10;263.95,30.83&#10;265.77,30.11&#10;267.6,29.92&#10;269.43,29.21&#10;271.26,28.03&#10;273.09,27.63&#10;274.91,28.2&#10;276.74,29.42&#10;278.57,29.68&#10;280.4,28.97&#10;282.23,28.37&#10;284.05,27.66&#10;285.88,27.47&#10;287.71,28.44&#10;289.54,28.94&#10;291.37,28.69&#10;293.19,28.37&#10;295.02,28.27&#10;296.85,28.46&#10;298.68,28.72&#10;300.5,28.88&#10;302.33,29.11&#10;304.16,29.19&#10;305.99,29.19&#10;307.82,29.06&#10;309.64,28.69&#10;311.47,28.43&#10;313.3,28.61&#10;315.13,29.5&#10;316.96,30.95&#10;318.78,32.41&#10;320.61,33.2&#10;322.44,33.37&#10;324.27,33.64&#10;326.1,34.57&#10;327.92,35.53&#10;329.75,36.08&#10;331.58,36.35&#10;333.41,36.51&#10;335.23,36.6&#10;337.06,36.62&#10;338.89,36.62&#10;340.72,36.61&#10;342.55,36.58&#10;344.37,36.51&#10;346.2,36.44&#10;348.03,36.35&#10;349.86,36.2&#10;351.69,36.23&#10;353.51,36.34&#10;355.34,36.39&#10;357.17,36.45&#10;359,36.52&#10;360.83,36.58&#10;362.65,36.59&#10;364.48,36.61&#10;366.31,36.61&#10;368.14,36.62&#10;369.96,36.62&#10;371.79,36.62&#10;373.62,36.62&#10;375.45,36.62&#10;377.28,36.62&#10;379.1,36.62&#10;380.93,36.62&#10;382.76,36.62&#10;384.59,36.62&#10;386.42,36.62&#10;388.24,36.62&#10;390.07,36.62&#10;391.9,36.62&#10;393.73,36.63&#10;395.55,36.63&#10;397.38,36.63&#10;397.38,36.63"/><polygon class="main" points="242.01,36.63&#10;242.01,36.63&#10;243.84,36.63&#10;245.67,36.63&#10;247.5,36.62&#10;249.32,36.62&#10;251.15,36.62&#10;252.98,36.62&#10;254.81,36.62&#10;256.64,36.62&#10;258.46,36.62&#10;260.29,36.62&#10;262.12,36.62&#10;263.95,36.6&#10;265.77,36.55&#10;267.6,36.47&#10;269.43,36.44&#10;271.26,36.44&#10;273.09,36.46&#10;274.91,36.44&#10;276.74,36.21&#10;278.57,34.97&#10;280.4,31.25&#10;282.23,27.58&#10;284.05,27.47&#10;285.88,30.22&#10;287.71,33.26&#10;289.54,35.17&#10;291.37,35.86&#10;293.19,35.94&#10;295.02,35.71&#10;296.85,35.28&#10;298.68,34.93&#10;300.5,34.94&#10;302.33,35.15&#10;304.16,35.32&#10;305.99,35.24&#10;307.82,34.75&#10;309.64,34.25&#10;311.47,34.29&#10;313.3,34.93&#10;315.13,35.9&#10;316.96,36.49&#10;318.78,36.61&#10;320.61,36.62&#10;322.44,36.62&#10;324.27,36.62&#10;326.1,36.63&#10;327.92,36.63&#10;329.75,36.63&#10;329.75,36.63"/><polyline class="range" points="277.11,42.12&#10;277.11,43.95&#10;315.13,43.95&#10;315.13,42.12"/></g><g id="itemarea7" transform="translate(0 169.91)"><polygon class="shadow" points="110.4,36.63&#10;110.4,36.63&#10;112.23,36.63&#10;114.06,36.62&#10;115.89,36.62&#10;117.72,36.62&#10;119.54,36.62&#10;121.37,36.62&#10;123.2,36.62&#10;125.03,36.62&#10;126.86,36.63&#10;128.68,36.63&#10;130.51,36.63&#10;132.34,36.63&#10;134.17,36.63&#10;135.99,36.63&#10;137.82,36.63&#10;139.65,36.63&#10;141.48,36.63&#10;143.31,36.63&#10;145.13,36.63&#10;146.96,36.63&#10;148.79,36.63&#10;150.62,36.63&#10;152.45,36.63&#10;154.27,36.63&#10;156.1,36.63&#10;157.93,36.63&#10;159.76,36.63&#10;161.59,36.63&#10;163.41,36.63&#10;165.24,36.63&#10;167.07,36.62&#10;168.9,36.62&#10;170.72,36.62&#10;172.55,36.62&#10;174.38,36.62&#10;176.21,36.62&#10;178.04,36.62&#10;179.86,36.62&#10;181.69,36.62&#10;183.52,36.62&#10;185.35,36.62&#10;187.18,36.62&#10;189,36.61&#10;190.83,36.62&#10;192.66,36.62&#10;194.49,36.62&#10;196.32,36.62&#10;198.14,36.62&#10;199.97,36.62&#10;201.8,36.62&#10;203.63,36.61&#10;205.45,36.6&#10;207.28,36.58&#10;209.11,36.56&#10;210.94,36.57&#10;212.77,36.59&#10;214.59,36.6&#10;216.42,36.61&#10;218.25,36.61&#10;220.08,36.6&#10;221.91,36.54&#10;223.73,36.38&#10;225.56,36.02&#10;227.39,35.52&#10;229.22,35.18&#10;231.04,35.13&#10;232.87,35.04&#10;234.7,35.23&#10;236.53,35.87&#10;238.36,36.17&#10;240.18,36.04&#10;242.01,35.41&#10;243.84,34.83&#10;245.67,34.57&#10;247.5,34.11&#10;249.32,33.07&#10;251.15,31.96&#10;252.98,31.64&#10;254.81,31.89&#10;256.64,32.41&#10;258.46,32.96&#10;260.29,32.9&#10;262.12,31.93&#10;263.95,30.83&#10;265.77,30.11&#10;267.6,29.92&#10;269.43,29.21&#10;271.26,28.03&#10;273.09,27.63&#10;274.91,28.2&#10;276.74,29.42&#10;278.57,29.68&#10;280.4,28.97&#10;282.23,28.37&#10;284.05,27.66&#10;285.88,27.47&#10;287.71,28.44&#10;289.54,28.94&#10;291.37,28.69&#10;293.19,28.37&#10;295.02,28.27&#10;296.85,28.46&#10;298.68,28.72&#10;300.5,28.88&#10;302.33,29.11&#10;304.16,29.19&#10;305.99,29.19&#10;307.82,29.06&#10;309.64,28.69&#10;311.47,28.43&#10;313.3,28.61&#10;315.13,29.5&#10;316.96,30.95&#10;318.78,32.41&#10;320.61,33.2&#10;322.44,33.37&#10;324.27,33.64&#10;326.1,34.57&#10;327.92,35.53&#10;329.75,36.08&#10;331.58,36.35&#10;333.41,36.51&#10;335.23,36.6&#10;337.06,36.62&#10;338.89,36.62&#10;340.72,36.61&#10;342.55,36.58&#10;344.37,36.51&#10;346.2,36.44&#10;348.03,36.35&#10;349.86,36.2&#10;351.69,36.23&#10;353.51,36.34&#10;355.34,36.39&#10;357.17,36.45&#10;359,36.52&#10;360.83,36.58&#10;362.65,36.59&#10;364.48,36.61&#10;366.31,36.61&#10;368.14,36.62&#10;369.96,36.62&#10;371.79,36.62&#10;373.62,36.62&#10;375.45,36.62&#10;377.28,36.62&#10;379.1,36.62&#10;380.93,36.62&#10;382.76,36.62&#10;384.59,36.62&#10;386.42,36.62&#10;388.24,36.62&#10;390.07,36.62&#10;391.9,36.62&#10;393.73,36.63&#10;395.55,36.63&#10;397.38,36.63&#10;397.38,36.63"/><polygon class="main" points="243.84,36.63&#10;243.84,36.63&#10;245.67,36.63&#10;247.5,36.63&#10;249.32,36.62&#10;251.15,36.62&#10;252.98,36.62&#10;254.81,36.62&#10;256.64,36.62&#10;258.46,36.62&#10;260.29,36.62&#10;262.12,36.62&#10;263.95,36.62&#10;265.77,36.6&#10;267.6,36.55&#10;269.43,36.47&#10;271.26,36.44&#10;273.09,36.44&#10;274.91,36.46&#10;276.74,36.44&#10;278.57,36.21&#10;280.4,34.97&#10;282.23,31.25&#10;284.05,27.58&#10;285.88,27.47&#10;287.71,30.22&#10;289.54,33.26&#10;291.37,35.17&#10;293.19,35.86&#10;295.02,35.94&#10;296.85,35.71&#10;298.68,35.28&#10;300.5,34.93&#10;302.33,34.94&#10;304.16,35.15&#10;305.99,35.32&#10;307.82,35.24&#10;309.64,34.75&#10;311.47,34.25&#10;313.3,34.29&#10;315.13,34.93&#10;316.96,35.9&#10;318.78,36.49&#10;320.61,36.61&#10;322.44,36.62&#10;324.27,36.62&#10;326.1,36.62&#10;327.92,36.63&#10;329.75,36.63&#10;331.58,36.63&#10;331.58,36.63"/><polyline class="range" points="278.94,42.12&#10;278.94,43.95&#10;316.96,43.95&#10;316.96,42.12"/></g><g id="itemarea8" transform="translate(0 199.84)"><polygon class="shadow" points="110.4,36.63&#10;110.4,36.63&#10;112.23,36.63&#10;114.06,36.63&#10;115.89,36.62&#10;117.72,36.62&#10;119.54,36.62&#10;121.37,36.62&#10;123.2,36.62&#10;125.03,36.63&#10;126.86,36.63&#10;128.68,36.63&#10;130.51,36.63&#10;132.34,36.63&#10;134.17,36.63&#10;135.99,36.63&#10;137.82,36.63&#10;139.65,36.63&#10;141.48,36.63&#10;143.31,36.63&#10;145.13,36.63&#10;146.96,36.63&#10;148.79,36.63&#10;150.62,36.63&#10;152.45,36.63&#10;154.27,36.63&#10;156.1,36.63&#10;157.93,36.63&#10;159.76,36.63&#10;161.59,36.63&#10;163.41,36.63&#10;165.24,36.63&#10;167.07,36.62&#10;168.9,36.62&#10;170.72,36.62&#10;172.55,36.62&#10;174.38,36.62&#10;176.21,36.62&#10;178.04,36.62&#10;179.86,36.62&#10;181.69,36.62&#10;183.52,36.62&#10;185.35,36.62&#10;187.18,36.62&#10;189,36.62&#10;190.83,36.62&#10;192.66,36.62&#10;194.49,36.62&#10;196.32,36.62&#10;198.14,36.62&#10;199.97,36.62&#10;201.8,36.62&#10;203.63,36.62&#10;205.45,36.61&#10;207.28,36.6&#10;209.11,36.59&#10;210.94,36.59&#10;212.77,36.6&#10;214.59,36.61&#10;216.42,36.62&#10;218.25,36.62&#10;220.08,36.61&#10;221.91,36.58&#10;223.73,36.48&#10;225.56,36.25&#10;227.39,35.9&#10;229.22,35.66&#10;231.04,35.62&#10;232.87,35.55&#10;234.7,35.69&#10;236.53,36.15&#10;238.36,36.35&#10;240.18,36.26&#10;242.01,35.82&#10;243.84,35.39&#10;245.67,35.19&#10;247.5,34.83&#10;249.32,33.98&#10;251.15,33&#10;252.98,32.71&#10;254.81,32.95&#10;256.64,33.4&#10;258.46,33.88&#10;260.29,33.83&#10;262.12,32.98&#10;263.95,31.95&#10;265.77,31.23&#10;267.6,31.04&#10;269.43,30.29&#10;271.26,28.87&#10;273.09,28.26&#10;274.91,29.1&#10;276.74,30.52&#10;278.57,30.79&#10;280.4,30.02&#10;282.23,29.32&#10;284.05,28.33&#10;285.88,27.47&#10;287.71,27.88&#10;289.54,28.23&#10;291.37,28.07&#10;293.19,27.86&#10;295.02,27.79&#10;296.85,27.91&#10;298.68,28.09&#10;300.5,28.2&#10;302.33,28.38&#10;304.16,28.44&#10;305.99,28.44&#10;307.82,28.34&#10;309.64,28.07&#10;311.47,27.9&#10;313.3,28.01&#10;315.13,28.69&#10;316.96,29.96&#10;318.78,31.42&#10;320.61,32.26&#10;322.44,32.44&#10;324.27,32.75&#10;326.1,33.83&#10;327.92,35.04&#10;329.75,35.78&#10;331.58,36.17&#10;333.41,36.43&#10;335.23,36.58&#10;337.06,36.61&#10;338.89,36.62&#10;340.72,36.6&#10;342.55,36.54&#10;344.37,36.43&#10;346.2,36.31&#10;348.03,36.17&#10;349.86,35.95&#10;351.69,36&#10;353.51,36.17&#10;355.34,36.24&#10;357.17,36.33&#10;359,36.44&#10;360.83,36.54&#10;362.65,36.56&#10;364.48,36.59&#10;366.31,36.6&#10;368.14,36.61&#10;369.96,36.62&#10;371.79,36.62&#10;373.62,36.62&#10;375.45,36.62&#10;377.28,36.62&#10;379.1,36.62&#10;380.93,36.62&#10;382.76,36.62&#10;384.59,36.62&#10;386.42,36.62&#10;388.24,36.62&#10;390.07,36.62&#10;391.9,36.62&#10;393.73,36.62&#10;395.55,36.63&#10;397.38,36.63&#10;397.38,36.63"/><polygon class="main" points="245.67,36.63&#10;245.67,36.63&#10;247.5,36.63&#10;249.32,36.63&#10;251.15,36.62&#10;252.98,36.62&#10;254.81,36.62&#10;256.64,36.62&#10;258.46,36.62&#10;260.29,36.62&#10;262.12,36.62&#10;263.95,36.62&#10;265.77,36.62&#10;267.6,36.6&#10;269.43,36.55&#10;271.26,36.47&#10;273.09,36.44&#10;274.91,36.44&#10;276.74,36.46&#10;278.57,36.44&#10;280.4,36.21&#10;282.23,34.97&#10;284.05,31.25&#10;285.88,27.58&#10;287.71,27.47&#10;289.54,30.22&#10;291.37,33.26&#10;293.19,35.17&#10;295.02,35.86&#10;296.85,35.94&#10;298.68,35.71&#10;300.5,35.28&#10;302.33,34.93&#10;304.16,34.94&#10;305.99,35.15&#10;307.82,35.32&#10;309.64,35.24&#10;311.47,34.75&#10;313.3,34.25&#10;315.13,34.29&#10;316.96,34.93&#10;318.78,35.9&#10;320.61,36.49&#10;322.44,36.61&#10;324.27,36.62&#10;326.1,36.62&#10;327.92,36.62&#10;329.75,36.63&#10;331.58,36.63&#10;333.41,36.63&#10;333.41,36.63"/><polyline class="range" points="280.76,42.12&#10;280.76,43.95&#10;318.78,43.95&#10;318.78,42.12"/></g><g id="itemarea9" transform="translate(0 229.78)"><polygon class="shadow" points="174.38,36.62&#10;174.38,36.62&#10;176.21,36.62&#10;178.04,36.62&#10;179.86,36.62&#10;181.69,36.62&#10;183.52,36.62&#10;185.35,36.62&#10;187.18,36.62&#10;189,36.62&#10;190.83,36.62&#10;192.66,36.62&#10;194.49,36.62&#10;196.32,36.62&#10;198.14,36.62&#10;199.97,36.62&#10;201.8,36.62&#10;203.63,36.62&#10;205.45,36.62&#10;207.28,36.62&#10;209.11,36.62&#10;210.94,36.62&#10;212.77,36.62&#10;214.59,36.62&#10;216.42,36.62&#10;218.25,36.62&#10;220.08,36.62&#10;221.91,36.62&#10;223.73,36.61&#10;225.56,36.58&#10;227.39,36.52&#10;229.22,36.48&#10;231.04,36.47&#10;232.87,36.45&#10;234.7,36.48&#10;236.53,36.56&#10;238.36,36.59&#10;240.18,36.58&#10;242.01,36.51&#10;243.84,36.42&#10;245.67,36.37&#10;247.5,36.28&#10;249.32,36.02&#10;251.15,35.66&#10;252.98,35.53&#10;254.81,35.63&#10;256.64,35.81&#10;258.46,35.99&#10;260.29,35.97&#10;262.12,35.65&#10;263.95,35.17&#10;265.77,34.77&#10;267.6,34.66&#10;269.43,34.15&#10;271.26,32.86&#10;273.09,32.07&#10;274.91,33.11&#10;276.74,34.31&#10;278.57,34.5&#10;280.4,33.94&#10;282.23,33.33&#10;284.05,32.17&#10;285.88,29.97&#10;287.71,28.37&#10;289.54,27.98&#10;291.37,28.22&#10;293.19,28.51&#10;295.02,28.62&#10;296.85,28.42&#10;298.68,28.19&#10;300.5,28.08&#10;302.33,27.93&#10;304.16,27.89&#10;305.99,27.89&#10;307.82,27.96&#10;309.64,28.22&#10;311.47,28.44&#10;313.3,28.28&#10;315.13,27.74&#10;316.96,27.46&#10;318.78,27.83&#10;320.61,28.3&#10;322.44,28.39&#10;324.27,28.68&#10;326.1,29.73&#10;327.92,31.55&#10;329.75,33.16&#10;331.58,34.32&#10;333.41,35.33&#10;335.23,36.16&#10;337.06,36.46&#10;338.89,36.5&#10;340.72,36.36&#10;342.55,35.93&#10;344.37,35.35&#10;346.2,34.84&#10;348.03,34.31&#10;349.86,33.62&#10;351.69,33.76&#10;353.51,34.29&#10;355.34,34.53&#10;357.17,34.88&#10;359,35.35&#10;360.83,35.92&#10;362.65,36.06&#10;364.48,36.27&#10;366.31,36.34&#10;368.14,36.46&#10;369.96,36.49&#10;371.79,36.48&#10;373.62,36.53&#10;375.45,36.53&#10;377.28,36.53&#10;379.1,36.56&#10;380.93,36.58&#10;382.76,36.57&#10;384.59,36.58&#10;386.42,36.57&#10;388.24,36.6&#10;390.07,36.61&#10;391.9,36.62&#10;393.73,36.62&#10;395.55,36.62&#10;397.38,36.62&#10;399.21,36.62&#10;401.04,36.62&#10;402.87,36.62&#10;404.69,36.62&#10;406.52,36.62&#10;408.35,36.62&#10;410.18,36.62&#10;412.01,36.62&#10;413.83,36.62&#10;415.66,36.62&#10;417.49,36.62&#10;419.32,36.62&#10;421.15,36.62&#10;422.97,36.62&#10;424.8,36.62&#10;426.63,36.62&#10;428.46,36.62&#10;430.28,36.62&#10;432.11,36.62&#10;433.94,36.62&#10;435.77,36.62&#10;437.6,36.62&#10;439.42,36.62&#10;439.42,36.62"/><polygon class="main" points="247.5,36.62&#10;247.5,36.62&#10;249.32,36.62&#10;251.15,36.62&#10;252.98,36.62&#10;254.81,36.62&#10;256.64,36.62&#10;258.46,36.62&#10;260.29,36.62&#10;262.12,36.62&#10;263.95,36.62&#10;265.77,36.62&#10;267.6,36.62&#10;269.43,36.6&#10;271.26,36.54&#10;273.09,36.47&#10;274.91,36.44&#10;276.74,36.43&#10;278.57,36.45&#10;280.4,36.43&#10;282.23,36.21&#10;284.05,34.97&#10;285.88,31.24&#10;287.71,27.58&#10;289.54,27.46&#10;291.37,30.22&#10;293.19,33.25&#10;295.02,35.17&#10;296.85,35.86&#10;298.68,35.93&#10;300.5,35.71&#10;302.33,35.27&#10;304.16,34.92&#10;305.99,34.93&#10;307.82,35.14&#10;309.64,35.31&#10;311.47,35.23&#10;313.3,34.74&#10;315.13,34.25&#10;316.96,34.29&#10;318.78,34.93&#10;320.61,35.9&#10;322.44,36.48&#10;324.27,36.61&#10;326.1,36.62&#10;327.92,36.62&#10;329.75,36.62&#10;331.58,36.62&#10;333.41,36.62&#10;335.23,36.62&#10;335.23,36.62"/><polyline class="range" points="282.59,42.11&#10;282.59,43.94&#10;320.61,43.94&#10;320.61,42.11"/></g><g id="itemarea10" transform="translate(0 259.71)"><polygon class="shadow" points="172.55,36.63&#10;172.55,36.63&#10;174.38,36.63&#10;176.21,36.62&#10;178.04,36.62&#10;179.86,36.62&#10;181.69,36.62&#10;183.52,36.62&#10;185.35,36.62&#10;187.18,36.62&#10;189,36.62&#10;190.83,36.62&#10;192.66,36.62&#10;194.49,36.62&#10;196.32,36.62&#10;198.14,36.62&#10;199.97,36.62&#10;201.8,36.62&#10;203.63,36.62&#10;205.45,36.62&#10;207.28,36.62&#10;209.11,36.62&#10;210.94,36.62&#10;212.77,36.62&#10;214.59,36.62&#10;216.42,36.62&#10;218.25,36.62&#10;220.08,36.62&#10;221.91,36.62&#10;223.73,36.6&#10;225.56,36.55&#10;227.39,36.46&#10;229.22,36.38&#10;231.04,36.36&#10;232.87,36.34&#10;234.7,36.39&#10;236.53,36.52&#10;238.36,36.57&#10;240.18,36.55&#10;242.01,36.43&#10;243.84,36.29&#10;245.67,36.22&#10;247.5,36.08&#10;249.32,35.7&#10;251.15,35.2&#10;252.98,35.04&#10;254.81,35.17&#10;256.64,35.42&#10;258.46,35.66&#10;260.29,35.63&#10;262.12,35.19&#10;263.95,34.57&#10;265.77,34.07&#10;267.6,33.93&#10;269.43,33.31&#10;271.26,31.86&#10;273.09,31.01&#10;274.91,32.13&#10;276.74,33.51&#10;278.57,33.73&#10;280.4,33.07&#10;282.23,32.37&#10;284.05,31.12&#10;285.88,28.99&#10;287.71,27.75&#10;289.54,27.53&#10;291.37,27.68&#10;293.19,27.86&#10;295.02,27.93&#10;296.85,27.8&#10;298.68,27.67&#10;300.5,27.6&#10;302.33,27.53&#10;304.16,27.52&#10;305.99,27.52&#10;307.82,27.55&#10;309.64,27.68&#10;311.47,27.82&#10;313.3,27.72&#10;315.13,27.47&#10;316.96,27.66&#10;318.78,28.45&#10;320.61,29.12&#10;322.44,29.25&#10;324.27,29.58&#10;326.1,30.79&#10;327.92,32.6&#10;329.75,34.04&#10;331.58,35&#10;333.41,35.76&#10;335.23,36.35&#10;337.06,36.54&#10;338.89,36.56&#10;340.72,36.48&#10;342.55,36.19&#10;344.37,35.78&#10;346.2,35.4&#10;348.03,34.99&#10;349.86,34.43&#10;351.69,34.54&#10;353.51,34.98&#10;355.34,35.17&#10;357.17,35.44&#10;359,35.79&#10;360.83,36.18&#10;362.65,36.28&#10;364.48,36.42&#10;366.31,36.46&#10;368.14,36.54&#10;369.96,36.55&#10;371.79,36.55&#10;373.62,36.58&#10;375.45,36.58&#10;377.28,36.58&#10;379.1,36.59&#10;380.93,36.6&#10;382.76,36.6&#10;384.59,36.6&#10;386.42,36.6&#10;388.24,36.62&#10;390.07,36.62&#10;391.9,36.62&#10;393.73,36.62&#10;395.55,36.62&#10;397.38,36.62&#10;399.21,36.63&#10;401.04,36.63&#10;402.87,36.63&#10;402.87,36.63"/><polygon class="main" points="249.32,36.63&#10;249.32,36.63&#10;251.15,36.63&#10;252.98,36.63&#10;254.81,36.62&#10;256.64,36.62&#10;258.46,36.62&#10;260.29,36.62&#10;262.12,36.62&#10;263.95,36.62&#10;265.77,36.62&#10;267.6,36.62&#10;269.43,36.62&#10;271.26,36.6&#10;273.09,36.55&#10;274.91,36.47&#10;276.74,36.44&#10;278.57,36.44&#10;280.4,36.46&#10;282.23,36.44&#10;284.05,36.21&#10;285.88,34.97&#10;287.71,31.25&#10;289.54,27.58&#10;291.37,27.47&#10;293.19,30.22&#10;295.02,33.26&#10;296.85,35.17&#10;298.68,35.86&#10;300.5,35.94&#10;302.33,35.71&#10;304.16,35.28&#10;305.99,34.93&#10;307.82,34.94&#10;309.64,35.15&#10;311.47,35.32&#10;313.3,35.24&#10;315.13,34.75&#10;316.96,34.25&#10;318.78,34.29&#10;320.61,34.93&#10;322.44,35.9&#10;324.27,36.49&#10;326.1,36.61&#10;327.92,36.62&#10;329.75,36.62&#10;331.58,36.62&#10;333.41,36.63&#10;335.23,36.63&#10;337.06,36.63&#10;337.06,36.63"/><polyline class="range" points="284.42,42.12&#10;284.42,43.95&#10;322.44,43.95&#10;322.44,42.12"/></g><g id="itemarea11" transform="translate(0 289.64)"><polygon class="shadow" points="176.21,36.63&#10;176.21,36.63&#10;178.04,36.63&#10;179.86,36.62&#10;181.69,36.62&#10;183.52,36.62&#10;185.35,36.62&#10;187.18,36.62&#10;189,36.62&#10;190.83,36.62&#10;192.66,36.62&#10;194.49,36.62&#10;196.32,36.62&#10;198.14,36.62&#10;199.97,36.62&#10;201.8,36.62&#10;203.63,36.62&#10;205.45,36.62&#10;207.28,36.62&#10;209.11,36.62&#10;210.94,36.62&#10;212.77,36.62&#10;214.59,36.62&#10;216.42,36.62&#10;218.25,36.62&#10;220.08,36.62&#10;221.91,36.62&#10;223.73,36.62&#10;225.56,36.6&#10;227.39,36.57&#10;229.22,36.54&#10;231.04,36.54&#10;232.87,36.53&#10;234.7,36.55&#10;236.53,36.59&#10;238.36,36.61&#10;240.18,36.6&#10;242.01,36.56&#10;243.84,36.51&#10;245.67,36.48&#10;247.5,36.42&#10;249.32,36.24&#10;251.15,35.99&#10;252.98,35.9&#10;254.81,35.97&#10;256.64,36.1&#10;258.46,36.22&#10;260.29,36.21&#10;262.12,35.98&#10;263.95,35.63&#10;265.77,35.33&#10;267.6,35.24&#10;269.43,34.83&#10;271.26,33.76&#10;273.09,33.04&#10;274.91,33.97&#10;276.74,34.97&#10;278.57,35.11&#10;280.4,34.67&#10;282.23,34.15&#10;284.05,33.14&#10;285.88,31.02&#10;287.71,29.19&#10;289.54,28.67&#10;291.37,28.98&#10;293.19,29.35&#10;295.02,29.48&#10;296.85,29.23&#10;298.68,28.94&#10;300.5,28.79&#10;302.33,28.57&#10;304.16,28.51&#10;305.99,28.51&#10;307.82,28.62&#10;309.64,28.98&#10;311.47,29.27&#10;313.3,29.06&#10;315.13,28.27&#10;316.96,27.57&#10;318.78,27.47&#10;320.61,27.7&#10;322.44,27.74&#10;324.27,27.95&#10;326.1,28.76&#10;327.92,30.44&#10;329.75,32.14&#10;331.58,33.49&#10;333.41,34.75&#10;335.23,35.89&#10;337.06,36.36&#10;338.89,36.42&#10;340.72,36.2&#10;342.55,35.56&#10;344.37,34.78&#10;346.2,34.12&#10;348.03,33.47&#10;349.86,32.66&#10;351.69,32.82&#10;353.51,33.45&#10;355.34,33.73&#10;357.17,34.17&#10;359,34.77&#10;360.83,35.54&#10;362.65,35.74&#10;364.48,36.05&#10;366.31,36.17&#10;368.14,36.35&#10;369.96,36.4&#10;371.79,36.38&#10;373.62,36.46&#10;375.45,36.46&#10;377.28,36.46&#10;379.1,36.51&#10;380.93,36.55&#10;382.76,36.54&#10;384.59,36.54&#10;386.42,36.53&#10;388.24,36.58&#10;390.07,36.61&#10;391.9,36.62&#10;393.73,36.62&#10;395.55,36.62&#10;397.38,36.62&#10;399.21,36.62&#10;401.04,36.62&#10;402.87,36.63&#10;404.69,36.62&#10;406.52,36.62&#10;408.35,36.62&#10;410.18,36.62&#10;412.01,36.62&#10;413.83,36.62&#10;415.66,36.62&#10;417.49,36.63&#10;419.32,36.63&#10;421.15,36.62&#10;422.97,36.62&#10;424.8,36.62&#10;426.63,36.62&#10;428.46,36.62&#10;430.28,36.62&#10;432.11,36.62&#10;433.94,36.62&#10;435.77,36.62&#10;437.6,36.63&#10;439.42,36.63&#10;439.42,36.63"/><polygon class="main" points="251.15,36.63&#10;251.15,36.63&#10;252.98,36.63&#10;254.81,36.63&#10;256.64,36.62&#10;258.46,36.62&#10;260.29,36.62&#10;262.12,36.62&#10;263.95,36.62&#10;265.77,36.62&#10;267.6,36.62&#10;269.43,36.62&#10;271.26,36.62&#10;273.09,36.6&#10;274.91,36.55&#10;276.74,36.47&#10;278.57,36.44&#10;280.4,36.44&#10;282.23,36.46&#10;284.05,36.44&#10;285.88,36.21&#10;287.71,34.97&#10;289.54,31.25&#10;291.37,27.58&#10;293.19,27.47&#10;295.02,30.22&#10;296.85,33.26&#10;298.68,35.17&#10;300.5,35.86&#10;302.33,35.94&#10;304.16,35.71&#10;305.99,35.28&#10;307.82,34.93&#10;309.64,34.94&#10;311.47,35.15&#10;313.3,35.32&#10;315.13,35.24&#10;316.96,34.75&#10;318.78,34.25&#10;320.61,34.29&#10;322.44,34.93&#10;324.27,35.9&#10;326.1,36.49&#10;327.92,36.61&#10;329.75,36.62&#10;331.58,36.62&#10;333.41,36.62&#10;335.23,36.63&#10;337.06,36.63&#10;338.89,36.63&#10;338.89,36.63"/><polyline class="range" points="286.25,42.12&#10;286.25,43.95&#10;324.27,43.95&#10;324.27,42.12"/></g><g id="itemarea12" transform="translate(0 319.57)"><polygon class="shadow" points="203.63,36.63&#10;203.63,36.63&#10;205.45,36.63&#10;207.28,36.62&#10;209.11,36.62&#10;210.94,36.62&#10;212.77,36.62&#10;214.59,36.63&#10;216.42,36.63&#10;218.25,36.63&#10;220.08,36.63&#10;221.91,36.62&#10;223.73,36.62&#10;225.56,36.62&#10;227.39,36.62&#10;229.22,36.62&#10;231.04,36.62&#10;232.87,36.62&#10;234.7,36.62&#10;236.53,36.62&#10;238.36,36.62&#10;240.18,36.62&#10;242.01,36.62&#10;243.84,36.62&#10;245.67,36.62&#10;247.5,36.62&#10;249.32,36.6&#10;251.15,36.58&#10;252.98,36.57&#10;254.81,36.58&#10;256.64,36.59&#10;258.46,36.6&#10;260.29,36.6&#10;262.12,36.58&#10;263.95,36.54&#10;265.77,36.5&#10;267.6,36.49&#10;269.43,36.42&#10;271.26,36.2&#10;273.09,36.01&#10;274.91,36.25&#10;276.74,36.44&#10;278.57,36.47&#10;280.4,36.39&#10;282.23,36.29&#10;284.05,36.04&#10;285.88,35.28&#10;287.71,34.16&#10;289.54,33.69&#10;291.37,33.94&#10;293.19,34.25&#10;295.02,34.35&#10;296.85,34.16&#10;298.68,33.91&#10;300.5,33.76&#10;302.33,33.54&#10;304.16,33.47&#10;305.99,33.47&#10;307.82,33.59&#10;309.64,33.94&#10;311.47,34.18&#10;313.3,34.01&#10;315.13,33.18&#10;316.96,31.81&#10;318.78,30.36&#10;320.61,29.55&#10;322.44,29.38&#10;324.27,29.1&#10;326.1,28.15&#10;327.92,27.47&#10;329.75,27.64&#10;331.58,28.46&#10;333.41,30.02&#10;335.23,32.51&#10;337.06,34.39&#10;338.89,34.72&#10;340.72,33.65&#10;342.55,31.67&#10;344.37,30.06&#10;346.2,29.11&#10;348.03,28.45&#10;349.86,27.88&#10;351.69,27.98&#10;353.51,28.43&#10;355.34,28.65&#10;357.17,29.13&#10;359,29.97&#10;360.83,31.55&#10;362.65,32.06&#10;364.48,33.02&#10;366.31,33.46&#10;368.14,34.34&#10;369.96,34.58&#10;371.79,34.5&#10;373.62,34.98&#10;375.45,34.98&#10;377.28,34.96&#10;379.1,35.33&#10;380.93,35.6&#10;382.76,35.53&#10;384.59,35.58&#10;386.42,35.47&#10;388.24,35.98&#10;390.07,36.3&#10;391.9,36.49&#10;393.73,36.59&#10;395.55,36.61&#10;397.38,36.62&#10;399.21,36.62&#10;401.04,36.62&#10;402.87,36.62&#10;404.69,36.62&#10;406.52,36.62&#10;408.35,36.62&#10;410.18,36.62&#10;412.01,36.62&#10;413.83,36.62&#10;415.66,36.62&#10;417.49,36.62&#10;419.32,36.62&#10;421.15,36.62&#10;422.97,36.62&#10;424.8,36.62&#10;426.63,36.62&#10;428.46,36.62&#10;430.28,36.62&#10;432.11,36.62&#10;433.94,36.62&#10;435.77,36.62&#10;437.6,36.62&#10;439.42,36.62&#10;441.25,36.62&#10;443.08,36.62&#10;444.91,36.62&#10;446.74,36.63&#10;446.74,36.63"/><polygon class="main" points="260.29,36.63&#10;260.29,36.63&#10;262.12,36.63&#10;263.95,36.63&#10;265.77,36.62&#10;267.6,36.62&#10;269.43,36.62&#10;271.26,36.62&#10;273.09,36.62&#10;274.91,36.62&#10;276.74,36.62&#10;278.57,36.62&#10;280.4,36.62&#10;282.23,36.6&#10;284.05,36.55&#10;285.88,36.47&#10;287.71,36.44&#10;289.54,36.44&#10;291.37,36.46&#10;293.19,36.44&#10;295.02,36.21&#10;296.85,34.97&#10;298.68,31.25&#10;300.5,27.58&#10;302.33,27.47&#10;304.16,30.22&#10;305.99,33.26&#10;307.82,35.17&#10;309.64,35.86&#10;311.47,35.94&#10;313.3,35.71&#10;315.13,35.28&#10;316.96,34.93&#10;318.78,34.94&#10;320.61,35.15&#10;322.44,35.32&#10;324.27,35.24&#10;326.1,34.75&#10;327.92,34.25&#10;329.75,34.29&#10;331.58,34.93&#10;333.41,35.9&#10;335.23,36.49&#10;337.06,36.61&#10;338.89,36.62&#10;340.72,36.62&#10;342.55,36.62&#10;344.37,36.63&#10;346.2,36.63&#10;348.03,36.63&#10;348.03,36.63"/><polyline class="range" points="295.39,42.12&#10;295.39,43.95&#10;333.41,43.95&#10;333.41,42.12"/></g><g id="itemarea13" transform="translate(0 349.51)"/></g></g><g id="textarea" transform="translate(14.15 14.15)"><g id="itemarea1" transform="translate(0 -9.68)"><text transform="translate(0 3.2)" style="font-size:8.00pt" x="7.22" y="36.62">SNRICH_CAMP Phase</text></g><g id="itemarea2" transform="translate(0 20.25)"><text transform="translate(0 3.2)" style="font-size:8.00pt" x="12.03" y="36.63">CAMP D_Sequence</text></g><g id="itemarea3" transform="translate(0 50.18)"><text transform="translate(0 3.2)" style="font-size:8.00pt" x="16.84" y="36.63">Start Boundary</text></g><g id="itemarea4" transform="translate(0 80.11)"><text transform="translate(0 3.2)" style="font-size:8.00pt;font-style:italic" x="16.84" y="36.63">CAMP_1 R_Date(1970,50)</text><text transform="translate(0 2.56)" style="font-size:6.40pt" x="21.65" y="50.36">Gap 5</text></g><g id="itemarea5" transform="translate(0 110.05)"><text transform="translate(0 3.2)" style="font-size:8.00pt;font-style:italic" x="16.84" y="36.62">CAMP_2 R_Date(1950,50)</text><text transform="translate(0 2.56)" style="font-size:6.40pt" x="21.65" y="50.35">Gap 5</text></g><g id="itemarea6" transform="translate(0 139.98)"><text transform="translate(0 3.2)" style="font-size:8.00pt;font-style:italic" x="16.84" y="36.63">CAMP_3 R_Date(1910,50)</text><text transform="translate(0 2.56)" style="font-size:6.40pt" x="21.65" y="50.36">Gap 5</text></g><g id="itemarea7" transform="translate(0 169.91)"><text transform="translate(0 3.2)" style="font-size:8.00pt;font-style:italic" x="16.84" y="36.63">CAMP_4 R_Date(1910,50)</text><text transform="translate(0 2.56)" style="font-size:6.40pt" x="21.65" y="50.36">Gap 5</text></g><g id="itemarea8" transform="translate(0 199.84)"><text transform="translate(0 3.2)" style="font-size:8.00pt;font-style:italic" x="16.84" y="36.63">CAMP_5 R_Date(1900,50)</text><text transform="translate(0 2.56)" style="font-size:6.40pt" x="21.65" y="50.36">Gap 5</text></g><g id="itemarea9" transform="translate(0 229.78)"><text transform="translate(0 3.2)" style="font-size:8.00pt;font-style:italic" x="16.84" y="36.62">CAMP_6 R_Date(1860,50)</text><text transform="translate(0 2.56)" style="font-size:6.40pt" x="21.65" y="50.35">Gap 5</text></g><g id="itemarea10" transform="translate(0 259.71)"><text transform="translate(0 3.2)" style="font-size:8.00pt;font-style:italic" x="16.84" y="36.63">CAMP_7 R_Date(1870,50)</text><text transform="translate(0 2.56)" style="font-size:6.40pt" x="21.65" y="50.36">Gap 5</text></g><g id="itemarea11" transform="translate(0 289.64)"><text transform="translate(0 3.2)" style="font-size:8.00pt;font-style:italic" x="16.84" y="36.63">CAMP_8 R_Date(1850,50)</text><text transform="translate(0 2.56)" style="font-size:6.40pt" x="21.65" y="50.36">Gap 25</text></g><g id="itemarea12" transform="translate(0 319.57)"><text transform="translate(0 3.2)" style="font-size:8.00pt;font-style:italic" x="16.84" y="36.63">CAMP_Last R_Date(1800,50)</text></g><g id="itemarea13" transform="translate(0 349.51)"><text transform="translate(0 3.2)" style="font-size:8.00pt" x="16.84" y="36.62">End Boundary</text></g></g><rect class="border" x="14.15" width="481.1" y="14.15" height="413.07"/><g><line class="gridline" x1="35.17" y1="427.22" x2="35.17" y2="14.15"/><line class="gridline" x1="108.29" y1="427.22" x2="108.29" y2="14.15"/><line class="gridline" x1="181.4" y1="427.22" x2="181.4" y2="14.15"/><line class="gridline" x1="254.52" y1="427.22" x2="254.52" y2="14.15"/><line class="gridline" x1="327.63" y1="427.22" x2="327.63" y2="14.15"/><line class="gridline" x1="400.75" y1="427.22" x2="400.75" y2="14.15"/><line class="gridline" x1="473.86" y1="427.22" x2="473.86" y2="14.15"/></g><g><line class="majorpip" x1="14.15" y1="427.22" x2="495.25" y2="427.22"/><line class="minorpip" x1="20.55" y1="427.22" x2="20.55" y2="424.39"/><line class="minorpip" x1="27.86" y1="427.22" x2="27.86" y2="424.39"/><line class="minorpip" x1="35.17" y1="427.22" x2="35.17" y2="424.39"/><line class="minorpip" x1="42.48" y1="427.22" x2="42.48" y2="424.39"/><line class="minorpip" x1="49.79" y1="427.22" x2="49.79" y2="424.39"/><line class="minorpip" x1="57.11" y1="427.22" x2="57.11" y2="424.39"/><line class="minorpip" x1="64.42" y1="427.22" x2="64.42" y2="424.39"/><line class="minorpip" x1="71.73" y1="427.22" x2="71.73" y2="424.39"/><line class="minorpip" x1="79.04" y1="427.22" x2="79.04" y2="424.39"/><line class="minorpip" x1="86.35" y1="427.22" x2="86.35" y2="424.39"/><line class="minorpip" x1="93.66" y1="427.22" x2="93.66" y2="424.39"/><line class="minorpip" x1="100.97" y1="427.22" x2="100.97" y2="424.39"/><line class="minorpip" x1="108.29" y1="427.22" x2="108.29" y2="424.39"/><line class="minorpip" x1="115.6" y1="427.22" x2="115.6" y2="424.39"/><line class="minorpip" x1="122.91" y1="427.22" x2="122.91" y2="424.39"/><line class="minorpip" x1="130.22" y1="427.22" x2="130.22" y2="424.39"/><line class="minorpip" x1="137.53" y1="427.22" x2="137.53" y2="424.39"/><line class="minorpip" x1="144.84" y1="427.22" x2="144.84" y2="424.39"/><line class="minorpip" x1="152.16" y1="427.22" x2="152.16" y2="424.39"/><line class="minorpip" x1="159.47" y1="427.22" x2="159.47" y2="424.39"/><line class="minorpip" x1="166.78" y1="427.22" x2="166.78" y2="424.39"/><line class="minorpip" x1="174.09" y1="427.22" x2="174.09" y2="424.39"/><line class="minorpip" x1="181.4" y1="427.22" x2="181.4" y2="424.39"/><line class="minorpip" x1="188.71" y1="427.22" x2="188.71" y2="424.39"/><line class="minorpip" x1="196.02" y1="427.22" x2="196.02" y2="424.39"/><line class="minorpip" x1="203.34" y1="427.22" x2="203.34" y2="424.39"/><line class="minorpip" x1="210.65" y1="427.22" x2="210.65" y2="424.39"/><line class="minorpip" x1="217.96" y1="427.22" x2="217.96" y2="424.39"/><line class="minorpip" x1="225.27" y1="427.22" x2="225.27" y2="424.39"/><line class="minorpip" x1="232.58" y1="427.22" x2="232.58" y2="424.39"/><line class="minorpip" x1="239.89" y1="427.22" x2="239.89" y2="424.39"/><line class="minorpip" x1="247.21" y1="427.22" x2="247.21" y2="424.39"/><line class="minorpip" x1="254.52" y1="427.22" x2="254.52" y2="424.39"/><line class="minorpip" x1="261.83" y1="427.22" x2="261.83" y2="424.39"/><line class="minorpip" x1="269.14" y1="427.22" x2="269.14" y2="424.39"/><line class="minorpip" x1="276.45" y1="427.22" x2="276.45" y2="424.39"/><line class="minorpip" x1="283.76" y1="427.22" x2="283.76" y2="424.39"/><line class="minorpip" x1="291.07" y1="427.22" x2="291.07" y2="424.39"/><line class="minorpip" x1="298.39" y1="427.22" x2="298.39" y2="424.39"/><line class="minorpip" x1="305.7" y1="427.22" x2="305.7" y2="424.39"/><line class="minorpip" x1="313.01" y1="427.22" x2="313.01" y2="424.39"/><line class="minorpip" x1="320.32" y1="427.22" x2="320.32" y2="424.39"/><line class="minorpip" x1="327.63" y1="427.22" x2="327.63" y2="424.39"/><line class="minorpip" x1="334.94" y1="427.22" x2="334.94" y2="424.39"/><line class="minorpip" x1="342.26" y1="427.22" x2="342.26" y2="424.39"/><line class="minorpip" x1="349.57" y1="427.22" x2="349.57" y2="424.39"/><line class="minorpip" x1="356.88" y1="427.22" x2="356.88" y2="424.39"/><line class="minorpip" x1="364.19" y1="427.22" x2="364.19" y2="424.39"/><line class="minorpip" x1="371.5" y1="427.22" x2="371.5" y2="424.39"/><line class="minorpip" x1="378.81" y1="427.22" x2="378.81" y2="424.39"/><line class="minorpip" x1="386.13" y1="427.22" x2="386.13" y2="424.39"/><line class="minorpip" x1="393.44" y1="427.22" x2="393.44" y2="424.39"/><line class="minorpip" x1="400.75" y1="427.22" x2="400.75" y2="424.39"/><line class="minorpip" x1="408.06" y1="427.22" x2="408.06" y2="424.39"/><line class="minorpip" x1="415.37" y1="427.22" x2="415.37" y2="424.39"/><line class="minorpip" x1="422.68" y1="427.22" x2="422.68" y2="424.39"/><line class="minorpip" x1="429.99" y1="427.22" x2="429.99" y2="424.39"/><line class="minorpip" x1="437.31" y1="427.22" x2="437.31" y2="424.39"/><line class="minorpip" x1="444.62" y1="427.22" x2="444.62" y2="424.39"/><line class="minorpip" x1="451.93" y1="427.22" x2="451.93" y2="424.39"/><line class="minorpip" x1="459.24" y1="427.22" x2="459.24" y2="424.39"/><line class="minorpip" x1="466.55" y1="427.22" x2="466.55" y2="424.39"/><line class="minorpip" x1="473.86" y1="427.22" x2="473.86" y2="424.39"/><line class="minorpip" x1="481.18" y1="427.22" x2="481.18" y2="424.39"/><line class="minorpip" x1="488.49" y1="427.22" x2="488.49" y2="424.39"/><line class="majorpip" x1="35.17" y1="427.22" x2="35.17" y2="421.56"/><text transform="translate(0 9.28)" style="font-size:8.00pt;text-anchor:middle" x="35.17" y="427.22">600</text><line class="majorpip" x1="108.29" y1="427.22" x2="108.29" y2="421.56"/><text transform="translate(0 9.28)" style="font-size:8.00pt;text-anchor:middle" x="108.29" y="427.22">400</text><line class="majorpip" x1="181.4" y1="427.22" x2="181.4" y2="421.56"/><text transform="translate(0 9.28)" style="font-size:8.00pt;text-anchor:middle" x="181.4" y="427.22">200</text><line class="majorpip" x1="254.52" y1="427.22" x2="254.52" y2="421.56"/><text transform="translate(0 9.28)" style="font-size:8.00pt;text-anchor:middle" x="254.52" y="427.22">1BC/1AD</text><line class="majorpip" x1="327.63" y1="427.22" x2="327.63" y2="421.56"/><text transform="translate(0 9.28)" style="font-size:8.00pt;text-anchor:middle" x="327.63" y="427.22">201</text><line class="majorpip" x1="400.75" y1="427.22" x2="400.75" y2="421.56"/><text transform="translate(0 9.28)" style="font-size:8.00pt;text-anchor:middle" x="400.75" y="427.22">401</text><line class="majorpip" x1="473.86" y1="427.22" x2="473.86" y2="421.56"/><text transform="translate(0 9.28)" style="font-size:8.00pt;text-anchor:middle" x="473.86" y="427.22">601</text><text transform="translate(0 3.2)" style="font-size:8.00pt;text-anchor:middle;font-style:italic" x="254.7" y="455.52">Modelled date (BC/AD)</text></g><g id="references" transform="translate(0 0)"><text transform="translate(0 -1.15)" style="font-size:4.80pt" x="14.15" y="14.15">OxCal v4.4.4 Bronk Ramsey (2021); r:5 Atmospheric data from Reimer et al (2020)</text></g></g></g>
</svg>