<?xml version="1.0" encoding="UTF-8"?><svg id="top" version="1.1" xmlns="http://www.w3.org/2000/svg" xmlns:xlink="http://www.w3.org/1999/xlink" xmlns:ev="http://www.w3.org/2001/xml-events" width="438.650pt" height="283.000pt" zoomAndPan="magnify" preserveAspectRatio="xMinYMin" onload="createPlot()" viewBox="0 0 438.650 283.000">
   <defs id="definitions">
   <filter id="Shadow" filterUnits="userSpaceOnUse">
    <feGaussianBlur in="SourceAlpha" stdDeviation="4" result="blur"/>
    <feOffset in="blur" dx="4" dy="4" result="offsetBlurredAlpha"/>
    <feMerge>
     <feMergeNode in="offsetBlurredAlpha"/>
     <feMergeNode in="SourceGraphic"/>
    </feMerge> 
   </filter>    
    <filter id="Correlation1" x="-20%" y="-20%" width="140%" height="140%" filterUnits="objectBoundingBox">
     <feGaussianBlur in="SourceGraphic" stdDeviation="7" result="blur"/>
     <feColorMatrix type="matrix" in="blur" values="0 0 0  5.00 -2.00&#10;               0 0 0 -2.50  2.50&#10;               0 0 0  0.00  0.00&#10;               0 0 0  2.50  0.00"/>
    </filter>    
    <filter id="Correlation2" x="-20%" y="-20%" width="140%" height="140%" filterUnits="objectBoundingBox">
     <feGaussianBlur in="SourceGraphic" stdDeviation="7" result="blur"/>
     <feGaussianBlur in="SourceAlpha" stdDeviation="7" result="opacity"/>
     <feColorMatrix type="matrix" in="blur" result="newcolor" values="0 0 0  5.00 -2.00&#10;               0 0 0 -2.50  2.50&#10;               0 0 0  0.00  0.00&#10;               0 0 0  2.50  0.00"/>
     <feSpecularLighting in="opacity" surfaceScale="5" specularConstant="1" specularExponent="20" lighting-color="white" result="specularOut">
      <feDistantLight azimuth="225" elevation="30"/>
     </feSpecularLighting>
     <feComposite in="newcolor" in2="specularOut" operator="arithmetic" k1="0" k2="1" k3="1" k4="0" result="litPaint"/>
    </filter>
    <pattern id="Sequence" patternUnits="userSpaceOnUse" x="0" y="0" width="5" height="5" viewBox="0 0 5 5">
    </pattern>    
    <pattern id="U_Sequence" patternUnits="userSpaceOnUse" x="0" y="0" width="5" height="5" viewBox="0 0 5 5">
     <line x1="-2.5" x2="5" y1="5" y2="-2.5" style="stroke-width:1.5;stroke:black"/>
     <line x1="0" x2="7.5" y1="7.5" y2="0" style="stroke-width:1.5;stroke:black"/>
    </pattern>    
    <pattern id="D_Sequence" patternUnits="userSpaceOnUse" x="0" y="0" width="5" height="5" viewBox="0 0 5 5">
     <line x1="-2.5" x2="7.5" y1="-2.5" y2="7.5" style="stroke-width:1;stroke:black"/>
     <line x1="-2.5" x2="7.5" y1="7.5" y2="-2.5" style="stroke-width:1;stroke:black"/>
    </pattern>    
    <pattern id="V_Sequence" patternUnits="userSpaceOnUse" x="0" y="0" width="5" height="5" viewBox="0 0 5 5">
     <ellipse cx="2.5" cy="2.5" rx="1.5" ry="0.7" style="fill:black"/>
    </pattern>    
    <pattern id="P_Sequence" patternUnits="userSpaceOnUse" x="0" y="0" width="5" height="5" viewBox="0 0 5 5">
     <circle cx="1.25" cy="3.75" r="1" style="fill:black"/>
     <circle cx="3.75" cy="1.25" r="1" style="fill:black"/>
    </pattern>
    <style type="text/css">
      rect.border { fill:none; stroke:black;stroke-width:1px }
      rect.fillblack { fill:black; stroke:black;stroke-width:1px }
      rect.structure { fill:none; stroke:none }
      rect.structtab { fill:blue; stroke:none;fill-opacity:0.2 }
      rect.structclip { fill:white; stroke:none }
      rect.structborder { fill:none; stroke:black; stroke-width:0.5px }
      rect.range3 {fill:black;stroke:black;stroke-width:1px;fill-opacity:0.1 }
      rect.range2 {fill:black;stroke:black;stroke-width:1px;fill-opacity:0.3 }
      rect.range1 {fill:black;stroke:black;stroke-width:1px;fill-opacity:0.5 }
      rect.fillbackground { fill:#000099 }
      rect.fillmodel { fill:#ffffcc;stroke:black;stroke-width:1px;fill-opacity:0.8 }
      rect.modeldist {fill:black;stroke:black;stroke-width:1px;fill-opacity:0.3 }
      rect.fill { fill:#CC0000 }
      polygon.main { fill:black; stroke:black;stroke-width:0.2px;fill-opacity:0.5 }
      polygon.shadow { fill:black; stroke:black;stroke-width:0.2px;fill-opacity:0.1 }
      polygon.curve { fill:blue; stroke:blue;stroke-width:1px;fill-opacity:0.3 }
      polygon.normal { fill:red; stroke:red;stroke-width:1px;fill-opacity:0.3 }
      polygon.kdesigma { fill:blue; stroke:blue;stroke-width:0px;fill-opacity:0.2 }
      polygon.modeldist { fill:url(#U_Sequence);stroke:black;stroke-width:1px;fill-opacity:0.3 }
      polyline.datacurve { fill:none; stroke:blue;stroke-width:1px }
      polyline.range { fill:none; stroke:black; stroke-width:1px; stroke-linejoin:round }
      polyline.ensemble { fill:none; stroke:black; stroke-width:0.5px;stroke-opacity:0.2 }
      polyline.kdemean { fill:none; stroke:blue; stroke-width:1px }
      path.model3 { fill:blue; stroke:blue;stroke-width:1px;fill-opacity:0.1 }
      path.model2 { fill:blue; stroke:blue;stroke-width:1px;fill-opacity:0.3 }
      path.model1 { fill:blue; stroke:blue;stroke-width:1px;fill-opacity:0.5 }
      g.curve { fill:blue; stroke:blue;stroke-width:1px;fill-opacity:0.3 }
      line.majorpip { stroke:black; stroke-width:1px }
      line.minorpip { stroke:black; stroke-width:0.5px }
      line.gridline { stroke:black; stroke-width:0.5px }
      line.majorpip2 { stroke:white; stroke-width:1px }
      line.minorpip2 { stroke:white; stroke-width:0.5px }
      line.gridline2 { stroke:white; stroke-width:0.5px }
      line.okline { stroke:green; stroke-width:1px }
      line.errorline { stroke:red; stroke-width:1px }
      line.range { stroke:black; stroke-width:1px }
      line.modelline { stroke:black; stroke-width:1px }
      line.constrshadow { stroke:#ffffcc; stroke-width:2px }
      line.constrok { stroke:black; stroke-width:1px }
      line.constrerror { stroke:#ff0000; stroke-width:1px }
      line.curve { stroke:blue;stroke-width:1px }
      text { fill:black; stroke:none; font-size:10pt; font-family:"Arial","Helvetica"; font-style:normal }
    </style>
   <clipPath id="clip1"><rect x="0" width="325.45" y="0" height="226.4"/></clipPath></defs>
    <g id="mainframe"><rect x="-43.87" width="526.39" y="-28.3" height="339.6" style="fill:white" stroke="none"/><g id="mainviewport" transform="translate(0 0)"><rect class="border" x="84.9" width="325.45" y="14.15" height="226.4"/><g id="plotarea" transform="translate(84.9 14.15)"><g clip-path="url(#clip1)"><g id="curvarea" transform="translate(0 0)"><g class="curve"><polygon id="curve" points="0,20.13&#10;3.87,18.48&#10;7.75,17.41&#10;11.62,18.32&#10;15.5,19.39&#10;19.37,20.21&#10;23.25,21.78&#10;27.12,24.33&#10;31,27.54&#10;34.87,31.57&#10;38.74,33.88&#10;42.62,32.89&#10;46.49,30.26&#10;50.37,26.96&#10;54.24,23.92&#10;58.12,23.34&#10;61.99,27.7&#10;65.86,35.77&#10;69.74,43.76&#10;73.61,51.33&#10;77.49,57.09&#10;81.36,59.98&#10;85.24,60.63&#10;89.11,61.29&#10;92.99,59.89&#10;96.86,53.47&#10;100.73,48.78&#10;104.61,51.17&#10;108.48,58.33&#10;112.36,62.77&#10;116.23,64.42&#10;120.11,66.97&#10;123.98,72&#10;127.86,76.61&#10;131.73,77.84&#10;135.6,76.85&#10;139.48,74.79&#10;143.35,72.49&#10;147.23,72.74&#10;151.1,76.69&#10;154.98,80.97&#10;158.85,83.77&#10;162.73,84.51&#10;166.6,87.47&#10;170.47,93.56&#10;174.35,96.86&#10;178.22,92.49&#10;182.1,86.57&#10;185.97,85.5&#10;189.85,88.54&#10;193.72,91.51&#10;197.59,96.45&#10;201.47,104.6&#10;205.34,111.84&#10;209.22,114.23&#10;213.09,113.32&#10;216.97,111.68&#10;220.84,111.1&#10;224.72,112.17&#10;228.59,113.49&#10;232.46,114.23&#10;236.34,115.3&#10;240.21,115.63&#10;244.09,115.63&#10;247.96,115.05&#10;251.84,113.32&#10;255.71,112.05&#10;259.59,112.91&#10;263.46,116.95&#10;267.33,122.63&#10;271.21,128.31&#10;275.08,131.56&#10;278.96,131.85&#10;282.83,133.58&#10;286.71,137.94&#10;290.58,144.94&#10;294.45,150.95&#10;298.33,156.55&#10;302.2,163.71&#10;306.08,172.85&#10;309.95,182.07&#10;313.83,184.04&#10;317.7,178.28&#10;321.58,170.46&#10;325.45,163.87&#10;325.45,153.17&#10;321.58,158.93&#10;317.7,167.58&#10;313.83,173.34&#10;309.95,171.36&#10;306.08,162.97&#10;302.2,153.01&#10;298.33,146.67&#10;294.45,141.07&#10;290.58,134.23&#10;286.71,127.24&#10;282.83,122.05&#10;278.96,121.14&#10;275.08,120.03&#10;271.21,116.78&#10;267.33,111.1&#10;263.46,105.42&#10;259.59,101.39&#10;255.71,100.52&#10;251.84,101.8&#10;247.96,103.53&#10;244.09,104.1&#10;240.21,104.1&#10;236.34,103.77&#10;232.46,102.7&#10;228.59,101.96&#10;224.72,100.65&#10;220.84,99.57&#10;216.97,100.15&#10;213.09,101.8&#10;209.22,103.53&#10;205.34,101.14&#10;201.47,93.89&#10;197.59,84.92&#10;193.72,79.98&#10;189.85,77.02&#10;185.97,73.97&#10;182.1,75.04&#10;178.22,80.97&#10;174.35,85.33&#10;170.47,82.04&#10;166.6,75.95&#10;162.73,72.98&#10;158.85,72.24&#10;154.98,69.44&#10;151.1,65.16&#10;147.23,61.21&#10;143.35,60.96&#10;139.48,63.27&#10;135.6,65.33&#10;131.73,66.31&#10;127.86,65.08&#10;123.98,60.47&#10;120.11,55.45&#10;116.23,52.9&#10;112.36,51.25&#10;108.48,46.8&#10;104.61,39.64&#10;100.73,37.25&#10;96.86,41.95&#10;92.99,48.37&#10;89.11,49.77&#10;85.24,49.11&#10;81.36,49.27&#10;77.49,46.39&#10;73.61,39.81&#10;69.74,32.23&#10;65.86,24.25&#10;61.99,17&#10;58.12,11.81&#10;54.24,12.39&#10;50.37,15.44&#10;46.49,18.73&#10;42.62,21.36&#10;38.74,22.35&#10;34.87,20.05&#10;31,16.01&#10;27.12,12.8&#10;23.25,10.25&#10;19.37,8.69&#10;15.5,7.86&#10;11.62,6.79&#10;7.75,5.89&#10;3.87,6.96&#10;0,8.6"/></g></g><g id="distarea" transform="translate(0 0)"><polygon id="normal" class="normal" points="0.03,119.75&#10;0.06,117.93&#10;0.14,116.12&#10;0.27,114.31&#10;0.53,112.5&#10;0.99,110.69&#10;1.76,108.88&#10;3.02,107.07&#10;4.98,105.26&#10;7.89,103.44&#10;12.01,101.63&#10;17.57,99.82&#10;24.68,98.01&#10;33.31,96.2&#10;43.21,94.39&#10;53.84,92.58&#10;64.46,90.77&#10;74.14,88.95&#10;81.94,87.14&#10;87.01,85.33&#10;88.76,83.52&#10;87.01,81.71&#10;81.94,79.9&#10;74.14,78.09&#10;64.46,76.28&#10;53.84,74.47&#10;43.21,72.65&#10;33.31,70.84&#10;24.68,69.03&#10;17.57,67.22&#10;12.01,65.41&#10;7.89,63.6&#10;4.98,61.79&#10;3.02,59.98&#10;1.76,58.16&#10;0.99,56.35&#10;0.53,54.54&#10;0.27,52.73&#10;0.14,50.92&#10;0.06,49.11"/></g><g id="distarea" transform="translate(0 115.46)"><polygon id="prob" class="main" points="27.12,74.72&#10;27.12,74.72&#10;31,74.72&#10;34.87,74.72&#10;38.74,74.72&#10;42.62,74.72&#10;46.49,74.72&#10;50.37,74.72&#10;54.24,74.72&#10;58.12,74.72&#10;61.99,74.72&#10;65.86,74.72&#10;69.74,74.71&#10;73.61,74.57&#10;77.49,73.91&#10;81.36,72.93&#10;85.24,72.56&#10;89.11,72.19&#10;92.99,72.93&#10;96.86,74.43&#10;100.73,74.66&#10;104.61,74.58&#10;108.48,73.53&#10;112.36,71.13&#10;116.23,69.54&#10;120.11,66&#10;123.98,54.17&#10;127.86,37.43&#10;131.73,32.25&#10;135.6,36.39&#10;139.48,44.52&#10;143.35,52.61&#10;147.23,51.81&#10;151.1,37.02&#10;154.98,19.18&#10;158.85,9.06&#10;162.73,6.86&#10;166.6,0.87&#10;170.47,5.57&#10;174.35,16.39&#10;178.22,3.12&#10;182.1,2.17&#10;185.97,4.32&#10;189.85,0&#10;193.72,1.44&#10;197.59,14.83&#10;201.47,49.82&#10;205.34,67.75&#10;209.22,70.59&#10;213.09,68.68&#10;216.97,66.29&#10;220.84,65.3&#10;224.72,67.07&#10;228.59,68.89&#10;232.46,69.74&#10;236.34,70.8&#10;240.21,71.08&#10;244.09,71.08&#10;247.96,70.57&#10;251.84,68.68&#10;255.71,66.85&#10;259.59,68.17&#10;263.46,72.06&#10;267.33,74.13&#10;271.21,74.62&#10;275.08,74.69&#10;278.96,74.7&#10;282.83,74.71&#10;286.71,74.72&#10;290.58,74.72&#10;294.45,74.72&#10;298.33,74.72&#10;298.33,74.72"/></g><g id="rangearea" transform="translate(0 190.18)"><polyline class="range" points="117.01,10.87&#10;117.01,14.49&#10;206.89,14.49&#10;206.89,10.87"/><polyline class="range" points="212.7,10.87&#10;212.7,14.49&#10;228.2,14.49&#10;228.2,10.87"/><polyline class="range" points="251.45,10.87&#10;251.45,14.49&#10;260.36,14.49&#10;260.36,10.87"/></g><g id="rangearea" transform="translate(0 190.18)"/></g></g><g id="textarea" transform="translate(84.9 14.15)"><text transform="translate(0 9.6)" style="font-size:9.60pt;text-anchor:middle" x="162.73" y="4.53">CAMP R_Combine(1940,22)</text><text transform="translate(0 8)" style="font-size:8.00pt" x="175.74" y="18.11">  95.4% probability</text><text transform="translate(0 8)" style="font-size:8.00pt" x="182.25" y="31.7">   16  (91.5%)  132calAD</text><text transform="translate(0 8)" style="font-size:8.00pt" x="182.25" y="45.28">   140  (2.6%)  160calAD</text><text transform="translate(0 8)" style="font-size:8.00pt" x="182.25" y="58.86">   190  (1.3%)  201calAD</text><text transform="translate(0 8)" style="font-size:8.00pt" x="169.23" y="72.45"> X2-Test: df=1 T=0.2(5% 3.8)</text></g><rect class="border" x="84.9" width="325.45" y="14.15" height="226.4"/><g><line class="majorpip" x1="84.9" y1="240.55" x2="410.35" y2="240.55"/><line class="minorpip" x1="89.16" y1="240.55" x2="89.16" y2="237.72"/><line class="minorpip" x1="96.91" y1="240.55" x2="96.91" y2="237.72"/><line class="minorpip" x1="104.66" y1="240.55" x2="104.66" y2="237.72"/><line class="minorpip" x1="112.41" y1="240.55" x2="112.41" y2="237.72"/><line class="minorpip" x1="120.16" y1="240.55" x2="120.16" y2="237.72"/><line class="minorpip" x1="127.91" y1="240.55" x2="127.91" y2="237.72"/><line class="minorpip" x1="135.65" y1="240.55" x2="135.65" y2="237.72"/><line class="minorpip" x1="143.4" y1="240.55" x2="143.4" y2="237.72"/><line class="minorpip" x1="151.15" y1="240.55" x2="151.15" y2="237.72"/><line class="minorpip" x1="158.9" y1="240.55" x2="158.9" y2="237.72"/><line class="minorpip" x1="166.65" y1="240.55" x2="166.65" y2="237.72"/><line class="minorpip" x1="174.4" y1="240.55" x2="174.4" y2="237.72"/><line class="minorpip" x1="182.15" y1="240.55" x2="182.15" y2="237.72"/><line class="minorpip" x1="189.9" y1="240.55" x2="189.9" y2="237.72"/><line class="minorpip" x1="197.65" y1="240.55" x2="197.65" y2="237.72"/><line class="minorpip" x1="205.39" y1="240.55" x2="205.39" y2="237.72"/><line class="minorpip" x1="213.14" y1="240.55" x2="213.14" y2="237.72"/><line class="minorpip" x1="220.89" y1="240.55" x2="220.89" y2="237.72"/><line class="minorpip" x1="228.64" y1="240.55" x2="228.64" y2="237.72"/><line class="minorpip" x1="236.39" y1="240.55" x2="236.39" y2="237.72"/><line class="minorpip" x1="244.14" y1="240.55" x2="244.14" y2="237.72"/><line class="minorpip" x1="251.89" y1="240.55" x2="251.89" y2="237.72"/><line class="minorpip" x1="259.64" y1="240.55" x2="259.64" y2="237.72"/><line class="minorpip" x1="267.38" y1="240.55" x2="267.38" y2="237.72"/><line class="minorpip" x1="275.13" y1="240.55" x2="275.13" y2="237.72"/><line class="minorpip" x1="282.88" y1="240.55" x2="282.88" y2="237.72"/><line class="minorpip" x1="290.63" y1="240.55" x2="290.63" y2="237.72"/><line class="minorpip" x1="298.38" y1="240.55" x2="298.38" y2="237.72"/><line class="minorpip" x1="306.13" y1="240.55" x2="306.13" y2="237.72"/><line class="minorpip" x1="313.88" y1="240.55" x2="313.88" y2="237.72"/><line class="minorpip" x1="321.63" y1="240.55" x2="321.63" y2="237.72"/><line class="minorpip" x1="329.37" y1="240.55" x2="329.37" y2="237.72"/><line class="minorpip" x1="337.12" y1="240.55" x2="337.12" y2="237.72"/><line class="minorpip" x1="344.87" y1="240.55" x2="344.87" y2="237.72"/><line class="minorpip" x1="352.62" y1="240.55" x2="352.62" y2="237.72"/><line class="minorpip" x1="360.37" y1="240.55" x2="360.37" y2="237.72"/><line class="minorpip" x1="368.12" y1="240.55" x2="368.12" y2="237.72"/><line class="minorpip" x1="375.87" y1="240.55" x2="375.87" y2="237.72"/><line class="minorpip" x1="383.62" y1="240.55" x2="383.62" y2="237.72"/><line class="minorpip" x1="391.37" y1="240.55" x2="391.37" y2="237.72"/><line class="minorpip" x1="399.11" y1="240.55" x2="399.11" y2="237.72"/><line class="minorpip" x1="406.86" y1="240.55" x2="406.86" y2="237.72"/><line class="majorpip" x1="112.41" y1="240.55" x2="112.41" y2="234.89"/><text transform="translate(0 9.28)" style="font-size:8.00pt;text-anchor:middle" x="112.41" y="240.55">100</text><line class="majorpip" x1="189.9" y1="240.55" x2="189.9" y2="234.89"/><text transform="translate(0 9.28)" style="font-size:8.00pt;text-anchor:middle" x="189.9" y="240.55">1calBC/1calAD</text><line class="majorpip" x1="267.38" y1="240.55" x2="267.38" y2="234.89"/><text transform="translate(0 9.28)" style="font-size:8.00pt;text-anchor:middle" x="267.38" y="240.55">101</text><line class="majorpip" x1="344.87" y1="240.55" x2="344.87" y2="234.89"/><text transform="translate(0 9.28)" style="font-size:8.00pt;text-anchor:middle" x="344.87" y="240.55">201</text><text transform="translate(0 3.2)" style="font-size:8.00pt;text-anchor:middle" x="247.63" y="268.85">Calibrated date (calBC/calAD)</text></g><g><line class="majorpip" x1="84.9" y1="240.55" x2="84.9" y2="14.15"/><line class="minorpip" x1="84.9" y1="237.63" x2="87.73" y2="237.63"/><line class="minorpip" x1="84.9" y1="233.51" x2="87.73" y2="233.51"/><line class="minorpip" x1="84.9" y1="229.39" x2="87.73" y2="229.39"/><line class="minorpip" x1="84.9" y1="225.28" x2="87.73" y2="225.28"/><line class="minorpip" x1="84.9" y1="221.16" x2="87.73" y2="221.16"/><line class="minorpip" x1="84.9" y1="217.05" x2="87.73" y2="217.05"/><line class="minorpip" x1="84.9" y1="212.93" x2="87.73" y2="212.93"/><line class="minorpip" x1="84.9" y1="208.81" x2="87.73" y2="208.81"/><line class="minorpip" x1="84.9" y1="204.7" x2="87.73" y2="204.7"/><line class="minorpip" x1="84.9" y1="200.58" x2="87.73" y2="200.58"/><line class="minorpip" x1="84.9" y1="196.46" x2="87.73" y2="196.46"/><line class="minorpip" x1="84.9" y1="192.35" x2="87.73" y2="192.35"/><line class="minorpip" x1="84.9" y1="188.23" x2="87.73" y2="188.23"/><line class="minorpip" x1="84.9" y1="184.11" x2="87.73" y2="184.11"/><line class="minorpip" x1="84.9" y1="180" x2="87.73" y2="180"/><line class="minorpip" x1="84.9" y1="175.88" x2="87.73" y2="175.88"/><line class="minorpip" x1="84.9" y1="171.77" x2="87.73" y2="171.77"/><line class="minorpip" x1="84.9" y1="167.65" x2="87.73" y2="167.65"/><line class="minorpip" x1="84.9" y1="163.53" x2="87.73" y2="163.53"/><line class="minorpip" x1="84.9" y1="159.42" x2="87.73" y2="159.42"/><line class="minorpip" x1="84.9" y1="155.3" x2="87.73" y2="155.3"/><line class="minorpip" x1="84.9" y1="151.18" x2="87.73" y2="151.18"/><line class="minorpip" x1="84.9" y1="147.07" x2="87.73" y2="147.07"/><line class="minorpip" x1="84.9" y1="142.95" x2="87.73" y2="142.95"/><line class="minorpip" x1="84.9" y1="138.83" x2="87.73" y2="138.83"/><line class="minorpip" x1="84.9" y1="134.72" x2="87.73" y2="134.72"/><line class="minorpip" x1="84.9" y1="130.6" x2="87.73" y2="130.6"/><line class="minorpip" x1="84.9" y1="126.49" x2="87.73" y2="126.49"/><line class="minorpip" x1="84.9" y1="122.37" x2="87.73" y2="122.37"/><line class="minorpip" x1="84.9" y1="118.25" x2="87.73" y2="118.25"/><line class="minorpip" x1="84.9" y1="114.14" x2="87.73" y2="114.14"/><line class="minorpip" x1="84.9" y1="110.02" x2="87.73" y2="110.02"/><line class="minorpip" x1="84.9" y1="105.9" x2="87.73" y2="105.9"/><line class="minorpip" x1="84.9" y1="101.79" x2="87.73" y2="101.79"/><line class="minorpip" x1="84.9" y1="97.67" x2="87.73" y2="97.67"/><line class="minorpip" x1="84.9" y1="93.55" x2="87.73" y2="93.55"/><line class="minorpip" x1="84.9" y1="89.44" x2="87.73" y2="89.44"/><line class="minorpip" x1="84.9" y1="85.32" x2="87.73" y2="85.32"/><line class="minorpip" x1="84.9" y1="81.21" x2="87.73" y2="81.21"/><line class="minorpip" x1="84.9" y1="77.09" x2="87.73" y2="77.09"/><line class="minorpip" x1="84.9" y1="72.97" x2="87.73" y2="72.97"/><line class="minorpip" x1="84.9" y1="68.86" x2="87.73" y2="68.86"/><line class="minorpip" x1="84.9" y1="64.74" x2="87.73" y2="64.74"/><line class="minorpip" x1="84.9" y1="60.62" x2="87.73" y2="60.62"/><line class="minorpip" x1="84.9" y1="56.51" x2="87.73" y2="56.51"/><line class="minorpip" x1="84.9" y1="52.39" x2="87.73" y2="52.39"/><line class="minorpip" x1="84.9" y1="48.27" x2="87.73" y2="48.27"/><line class="minorpip" x1="84.9" y1="44.16" x2="87.73" y2="44.16"/><line class="minorpip" x1="84.9" y1="40.04" x2="87.73" y2="40.04"/><line class="minorpip" x1="84.9" y1="35.93" x2="87.73" y2="35.93"/><line class="minorpip" x1="84.9" y1="31.81" x2="87.73" y2="31.81"/><line class="minorpip" x1="84.9" y1="27.69" x2="87.73" y2="27.69"/><line class="minorpip" x1="84.9" y1="23.58" x2="87.73" y2="23.58"/><line class="minorpip" x1="84.9" y1="19.46" x2="87.73" y2="19.46"/><line class="minorpip" x1="84.9" y1="15.34" x2="87.73" y2="15.34"/><line class="majorpip" x1="84.9" y1="237.63" x2="90.56" y2="237.63"/><text transform="translate(0 3.2)" style="font-size:8.00pt;text-anchor:end" x="82.07" y="237.63">1600</text><line class="majorpip" x1="84.9" y1="196.46" x2="90.56" y2="196.46"/><text transform="translate(0 3.2)" style="font-size:8.00pt;text-anchor:end" x="82.07" y="196.46">1700</text><line class="majorpip" x1="84.9" y1="155.3" x2="90.56" y2="155.3"/><text transform="translate(0 3.2)" style="font-size:8.00pt;text-anchor:end" x="82.07" y="155.3">1800</text><line class="majorpip" x1="84.9" y1="114.14" x2="90.56" y2="114.14"/><text transform="translate(0 3.2)" style="font-size:8.00pt;text-anchor:end" x="82.07" y="114.14">1900</text><line class="majorpip" x1="84.9" y1="72.97" x2="90.56" y2="72.97"/><text transform="translate(0 3.2)" style="font-size:8.00pt;text-anchor:end" x="82.07" y="72.97">2000</text><line class="majorpip" x1="84.9" y1="31.81" x2="90.56" y2="31.81"/><text transform="translate(0 3.2)" style="font-size:8.00pt;text-anchor:end" x="82.07" y="31.81">2100</text><text transform="matrix(0,-1,1,0,28.3,127.35)" style="font-size:8.00pt;text-anchor:middle" x="0" y="3.2">Radiocarbon determination (BP)</text></g><text transform="translate(0 -1.15)" style="font-size:4.80pt" x="84.9" y="14.15">OxCal v4.4.4 Bronk Ramsey (2021); r:5; Atmospheric data from Reimer et al (2020)</text></g></g>
</svg>