<?xml version="1.0" encoding="UTF-8"?><svg id="top" version="1.1" xmlns="http://www.w3.org/2000/svg" xmlns:xlink="http://www.w3.org/1999/xlink" xmlns:ev="http://www.w3.org/2001/xml-events" width="438.650pt" height="283.000pt" zoomAndPan="magnify" preserveAspectRatio="xMinYMin" onload="createPlot()" viewBox="0 0 438.650 283.000">
   <defs id="definitions">
   <filter id="Shadow" filterUnits="userSpaceOnUse">
    <feGaussianBlur in="SourceAlpha" stdDeviation="4" result="blur"/>
    <feOffset in="blur" dx="4" dy="4" result="offsetBlurredAlpha"/>
    <feMerge>
     <feMergeNode in="offsetBlurredAlpha"/>
     <feMergeNode in="SourceGraphic"/>
    </feMerge> 
   </filter>    
    <filter id="Correlation1" x="-20%" y="-20%" width="140%" height="140%" filterUnits="objectBoundingBox">
     <feGaussianBlur in="SourceGraphic" stdDeviation="7" result="blur"/>
     <feColorMatrix type="matrix" in="blur" values="0 0 0  5.00 -2.00&#10;               0 0 0 -2.50  2.50&#10;               0 0 0  0.00  0.00&#10;               0 0 0  2.50  0.00"/>
    </filter>    
    <filter id="Correlation2" x="-20%" y="-20%" width="140%" height="140%" filterUnits="objectBoundingBox">
     <feGaussianBlur in="SourceGraphic" stdDeviation="7" result="blur"/>
     <feGaussianBlur in="SourceAlpha" stdDeviation="7" result="opacity"/>
     <feColorMatrix type="matrix" in="blur" result="newcolor" values="0 0 0  5.00 -2.00&#10;               0 0 0 -2.50  2.50&#10;               0 0 0  0.00  0.00&#10;               0 0 0  2.50  0.00"/>
     <feSpecularLighting in="opacity" surfaceScale="5" specularConstant="1" specularExponent="20" lighting-color="white" result="specularOut">
      <feDistantLight azimuth="225" elevation="30"/>
     </feSpecularLighting>
     <feComposite in="newcolor" in2="specularOut" operator="arithmetic" k1="0" k2="1" k3="1" k4="0" result="litPaint"/>
    </filter>
    <pattern id="Sequence" patternUnits="userSpaceOnUse" x="0" y="0" width="5" height="5" viewBox="0 0 5 5">
    </pattern>    
    <pattern id="U_Sequence" patternUnits="userSpaceOnUse" x="0" y="0" width="5" height="5" viewBox="0 0 5 5">
     <line x1="-2.5" x2="5" y1="5" y2="-2.5" style="stroke-width:1.5;stroke:black"/>
     <line x1="0" x2="7.5" y1="7.5" y2="0" style="stroke-width:1.5;stroke:black"/>
    </pattern>    
    <pattern id="D_Sequence" patternUnits="userSpaceOnUse" x="0" y="0" width="5" height="5" viewBox="0 0 5 5">
     <line x1="-2.5" x2="7.5" y1="-2.5" y2="7.5" style="stroke-width:1;stroke:black"/>
     <line x1="-2.5" x2="7.5" y1="7.5" y2="-2.5" style="stroke-width:1;stroke:black"/>
    </pattern>    
    <pattern id="V_Sequence" patternUnits="userSpaceOnUse" x="0" y="0" width="5" height="5" viewBox="0 0 5 5">
     <ellipse cx="2.5" cy="2.5" rx="1.5" ry="0.7" style="fill:black"/>
    </pattern>    
    <pattern id="P_Sequence" patternUnits="userSpaceOnUse" x="0" y="0" width="5" height="5" viewBox="0 0 5 5">
     <circle cx="1.25" cy="3.75" r="1" style="fill:black"/>
     <circle cx="3.75" cy="1.25" r="1" style="fill:black"/>
    </pattern>
    <style type="text/css">
      rect.border { fill:none; stroke:black;stroke-width:1px }
      rect.fillblack { fill:black; stroke:black;stroke-width:1px }
      rect.structure { fill:none; stroke:none }
      rect.structtab { fill:blue; stroke:none;fill-opacity:0.2 }
      rect.structclip { fill:white; stroke:none }
      rect.structborder { fill:none; stroke:black; stroke-width:0.5px }
      rect.range3 {fill:black;stroke:black;stroke-width:1px;fill-opacity:0.1 }
      rect.range2 {fill:black;stroke:black;stroke-width:1px;fill-opacity:0.3 }
      rect.range1 {fill:black;stroke:black;stroke-width:1px;fill-opacity:0.5 }
      rect.fillbackground { fill:#000099 }
      rect.fillmodel { fill:#ffffcc;stroke:black;stroke-width:1px;fill-opacity:0.8 }
      rect.modeldist {fill:black;stroke:black;stroke-width:1px;fill-opacity:0.3 }
      rect.fill { fill:#CC0000 }
      polygon.main { fill:black; stroke:black;stroke-width:0.2px;fill-opacity:0.5 }
      polygon.shadow { fill:black; stroke:black;stroke-width:0.2px;fill-opacity:0.1 }
      polygon.curve { fill:blue; stroke:blue;stroke-width:1px;fill-opacity:0.3 }
      polygon.normal { fill:red; stroke:red;stroke-width:1px;fill-opacity:0.3 }
      polygon.kdesigma { fill:blue; stroke:blue;stroke-width:0px;fill-opacity:0.2 }
      polygon.modeldist { fill:url(#U_Sequence);stroke:black;stroke-width:1px;fill-opacity:0.3 }
      polyline.datacurve { fill:none; stroke:blue;stroke-width:1px }
      polyline.range { fill:none; stroke:black; stroke-width:1px; stroke-linejoin:round }
      polyline.ensemble { fill:none; stroke:black; stroke-width:0.5px;stroke-opacity:0.2 }
      polyline.kdemean { fill:none; stroke:blue; stroke-width:1px }
      path.model3 { fill:blue; stroke:blue;stroke-width:1px;fill-opacity:0.1 }
      path.model2 { fill:blue; stroke:blue;stroke-width:1px;fill-opacity:0.3 }
      path.model1 { fill:blue; stroke:blue;stroke-width:1px;fill-opacity:0.5 }
      g.curve { fill:blue; stroke:blue;stroke-width:1px;fill-opacity:0.3 }
      line.majorpip { stroke:black; stroke-width:1px }
      line.minorpip { stroke:black; stroke-width:0.5px }
      line.gridline { stroke:black; stroke-width:0.5px }
      line.majorpip2 { stroke:white; stroke-width:1px }
      line.minorpip2 { stroke:white; stroke-width:0.5px }
      line.gridline2 { stroke:white; stroke-width:0.5px }
      line.okline { stroke:green; stroke-width:1px }
      line.errorline { stroke:red; stroke-width:1px }
      line.range { stroke:black; stroke-width:1px }
      line.modelline { stroke:black; stroke-width:1px }
      line.constrshadow { stroke:#ffffcc; stroke-width:2px }
      line.constrok { stroke:black; stroke-width:1px }
      line.constrerror { stroke:#ff0000; stroke-width:1px }
      line.curve { stroke:blue;stroke-width:1px }
      text { fill:black; stroke:none; font-size:10pt; font-family:"Arial","Helvetica"; font-style:normal }
    </style>
   <clipPath id="clip1"><rect x="0" width="325.45" y="0" height="226.4"/></clipPath><clipPath id="clip2"><rect x="0" width="325.45" y="0" height="226.4"/></clipPath><clipPath id="clip3"><rect x="0" width="325.45" y="0" height="226.4"/></clipPath></defs>
    <g id="mainframe"><rect x="-43.87" width="526.39" y="-28.3" height="339.6" style="fill:white" stroke="none"/><g id="mainviewport" transform="translate(0 0)"><rect class="border" x="84.9" width="325.45" y="14.15" height="226.4"/><g id="plotarea" transform="translate(84.9 14.15)"><g clip-path="url(#clip3)"><g id="curvarea" transform="translate(0 0)"><g class="curve"><polygon id="curve" points="-5.95,19.05&#10;0.66,26.67&#10;7.28,28.71&#10;13.89,27.08&#10;20.51,23.68&#10;27.12,19.87&#10;33.74,20.28&#10;40.35,26.81&#10;46.97,33.88&#10;53.58,38.51&#10;60.2,39.74&#10;66.81,44.63&#10;73.42,54.7&#10;80.04,60.15&#10;86.65,52.94&#10;93.27,43.14&#10;99.88,41.37&#10;106.5,46.4&#10;113.11,51.3&#10;119.73,59.47&#10;126.34,72.94&#10;132.96,84.91&#10;139.57,88.86&#10;146.19,87.36&#10;152.8,84.64&#10;159.42,83.69&#10;166.03,85.46&#10;172.65,87.64&#10;179.26,88.86&#10;185.88,90.63&#10;192.49,91.17&#10;199.11,91.17&#10;205.72,90.22&#10;212.34,87.36&#10;218.95,85.25&#10;225.57,86.68&#10;232.18,93.35&#10;238.8,102.74&#10;245.41,112.13&#10;252.03,117.51&#10;258.64,117.98&#10;265.25,120.84&#10;271.87,128.05&#10;278.48,139.62&#10;285.1,149.55&#10;291.71,158.81&#10;298.33,170.65&#10;304.94,185.75&#10;311.56,200.99&#10;318.17,204.26&#10;324.79,194.73&#10;331.4,181.8&#10;331.4,162.75&#10;324.79,177.04&#10;318.17,186.57&#10;311.56,183.3&#10;304.94,169.42&#10;298.33,152.96&#10;291.71,142.48&#10;285.1,133.22&#10;278.48,121.93&#10;271.87,110.36&#10;265.25,101.79&#10;258.64,100.29&#10;252.03,98.45&#10;245.41,93.08&#10;238.8,83.69&#10;232.18,74.3&#10;225.57,67.63&#10;218.95,66.2&#10;212.34,68.31&#10;205.72,71.17&#10;199.11,72.12&#10;192.49,72.12&#10;185.88,71.58&#10;179.26,69.81&#10;172.65,68.58&#10;166.03,66.41&#10;159.42,64.64&#10;152.8,65.59&#10;146.19,68.31&#10;139.57,71.17&#10;132.96,67.22&#10;126.34,55.25&#10;119.73,40.42&#10;113.11,32.25&#10;106.5,27.35&#10;99.88,22.32&#10;93.27,24.09&#10;86.65,33.88&#10;80.04,41.1&#10;73.42,35.65&#10;66.81,25.58&#10;60.2,20.68&#10;53.58,19.46&#10;46.97,14.83&#10;40.35,7.76&#10;33.74,1.22&#10;27.12,0.82&#10;20.51,4.63&#10;13.89,8.03&#10;7.28,9.66&#10;0.66,7.62&#10;-5.95,0"/></g></g><g id="distarea" transform="translate(0 0)"><polygon id="normal" class="normal" points="0.03,100.02&#10;0.06,98.93&#10;0.14,97.84&#10;0.27,96.75&#10;0.53,95.66&#10;0.99,94.58&#10;1.76,93.49&#10;3.02,92.4&#10;4.98,91.31&#10;7.89,90.22&#10;12.01,89.13&#10;17.57,88.04&#10;24.68,86.96&#10;33.31,85.87&#10;43.21,84.78&#10;53.84,83.69&#10;64.46,82.6&#10;74.14,81.51&#10;81.94,80.42&#10;87.01,79.34&#10;88.76,78.25&#10;87.01,77.16&#10;81.94,76.07&#10;74.14,74.98&#10;64.46,73.89&#10;53.84,72.8&#10;43.21,71.71&#10;33.31,70.63&#10;24.68,69.54&#10;17.57,68.45&#10;12.01,67.36&#10;7.89,66.27&#10;4.98,65.18&#10;3.02,64.09&#10;1.76,63.01&#10;0.99,61.92&#10;0.53,60.83&#10;0.27,59.74&#10;0.14,58.65&#10;0.06,57.56"/></g><g id="distarea" transform="translate(0 115.46)"><polygon id="prob" class="main" points="27.12,74.72&#10;27.12,74.72&#10;33.74,74.72&#10;40.35,74.72&#10;46.97,74.72&#10;53.58,74.72&#10;60.2,74.72&#10;66.81,74.69&#10;73.42,73.97&#10;80.04,71.72&#10;86.65,74.26&#10;93.27,74.7&#10;99.88,74.71&#10;106.5,74.66&#10;113.11,74.44&#10;119.73,72.17&#10;126.34,44.75&#10;132.96,0.49&#10;139.57,0&#10;146.19,2.98&#10;152.8,5.76&#10;159.42,7.7&#10;166.03,4.49&#10;172.65,2.94&#10;179.26,3.3&#10;185.88,5.35&#10;192.49,6.34&#10;199.11,6.34&#10;205.72,4.72&#10;212.34,2.98&#10;218.95,4.83&#10;225.57,3.28&#10;232.18,11.71&#10;238.8,46.46&#10;245.41,68.58&#10;252.03,72.9&#10;258.64,73.8&#10;265.25,73.95&#10;271.87,74.69&#10;278.48,74.72&#10;285.1,74.72&#10;291.71,74.72&#10;298.33,74.72&#10;298.33,74.72"/></g><g id="rangearea" transform="translate(0 190.18)"><polyline class="range" points="126.34,10.87&#10;126.34,14.49&#10;238.8,14.49&#10;238.8,10.87"/></g><g id="rangearea" transform="translate(0 190.18)"/></g></g><g id="textarea" transform="translate(84.9 14.15)"><text transform="translate(0 9.6)" style="font-size:9.60pt;text-anchor:middle" x="162.73" y="4.53">CAMP-001 R_Date(1881,8)</text><text transform="translate(0 8)" style="font-size:8.00pt" x="175.74" y="18.11">  95.4% probability</text><text transform="translate(0 8)" style="font-size:8.00pt" x="182.25" y="31.7">   125  (95.4%)  210calAD</text></g><rect class="border" x="84.9" width="325.45" y="14.15" height="226.4"/><g><line class="majorpip" x1="84.9" y1="240.55" x2="410.35" y2="240.55"/><line class="minorpip" x1="84.9" y1="240.55" x2="84.9" y2="237.72"/><line class="minorpip" x1="91.51" y1="240.55" x2="91.51" y2="237.72"/><line class="minorpip" x1="98.13" y1="240.55" x2="98.13" y2="237.72"/><line class="minorpip" x1="104.74" y1="240.55" x2="104.74" y2="237.72"/><line class="minorpip" x1="111.36" y1="240.55" x2="111.36" y2="237.72"/><line class="minorpip" x1="117.97" y1="240.55" x2="117.97" y2="237.72"/><line class="minorpip" x1="124.59" y1="240.55" x2="124.59" y2="237.72"/><line class="minorpip" x1="131.2" y1="240.55" x2="131.2" y2="237.72"/><line class="minorpip" x1="137.82" y1="240.55" x2="137.82" y2="237.72"/><line class="minorpip" x1="144.43" y1="240.55" x2="144.43" y2="237.72"/><line class="minorpip" x1="151.05" y1="240.55" x2="151.05" y2="237.72"/><line class="minorpip" x1="157.66" y1="240.55" x2="157.66" y2="237.72"/><line class="minorpip" x1="164.28" y1="240.55" x2="164.28" y2="237.72"/><line class="minorpip" x1="170.89" y1="240.55" x2="170.89" y2="237.72"/><line class="minorpip" x1="177.51" y1="240.55" x2="177.51" y2="237.72"/><line class="minorpip" x1="184.12" y1="240.55" x2="184.12" y2="237.72"/><line class="minorpip" x1="190.74" y1="240.55" x2="190.74" y2="237.72"/><line class="minorpip" x1="197.35" y1="240.55" x2="197.35" y2="237.72"/><line class="minorpip" x1="203.97" y1="240.55" x2="203.97" y2="237.72"/><line class="minorpip" x1="210.58" y1="240.55" x2="210.58" y2="237.72"/><line class="minorpip" x1="217.2" y1="240.55" x2="217.2" y2="237.72"/><line class="minorpip" x1="223.81" y1="240.55" x2="223.81" y2="237.72"/><line class="minorpip" x1="230.43" y1="240.55" x2="230.43" y2="237.72"/><line class="minorpip" x1="237.04" y1="240.55" x2="237.04" y2="237.72"/><line class="minorpip" x1="243.66" y1="240.55" x2="243.66" y2="237.72"/><line class="minorpip" x1="250.27" y1="240.55" x2="250.27" y2="237.72"/><line class="minorpip" x1="256.89" y1="240.55" x2="256.89" y2="237.72"/><line class="minorpip" x1="263.5" y1="240.55" x2="263.5" y2="237.72"/><line class="minorpip" x1="270.12" y1="240.55" x2="270.12" y2="237.72"/><line class="minorpip" x1="276.73" y1="240.55" x2="276.73" y2="237.72"/><line class="minorpip" x1="283.35" y1="240.55" x2="283.35" y2="237.72"/><line class="minorpip" x1="289.96" y1="240.55" x2="289.96" y2="237.72"/><line class="minorpip" x1="296.57" y1="240.55" x2="296.57" y2="237.72"/><line class="minorpip" x1="303.19" y1="240.55" x2="303.19" y2="237.72"/><line class="minorpip" x1="309.8" y1="240.55" x2="309.8" y2="237.72"/><line class="minorpip" x1="316.42" y1="240.55" x2="316.42" y2="237.72"/><line class="minorpip" x1="323.03" y1="240.55" x2="323.03" y2="237.72"/><line class="minorpip" x1="329.65" y1="240.55" x2="329.65" y2="237.72"/><line class="minorpip" x1="336.26" y1="240.55" x2="336.26" y2="237.72"/><line class="minorpip" x1="342.88" y1="240.55" x2="342.88" y2="237.72"/><line class="minorpip" x1="349.49" y1="240.55" x2="349.49" y2="237.72"/><line class="minorpip" x1="356.11" y1="240.55" x2="356.11" y2="237.72"/><line class="minorpip" x1="362.72" y1="240.55" x2="362.72" y2="237.72"/><line class="minorpip" x1="369.34" y1="240.55" x2="369.34" y2="237.72"/><line class="minorpip" x1="375.95" y1="240.55" x2="375.95" y2="237.72"/><line class="minorpip" x1="382.57" y1="240.55" x2="382.57" y2="237.72"/><line class="minorpip" x1="389.18" y1="240.55" x2="389.18" y2="237.72"/><line class="minorpip" x1="395.8" y1="240.55" x2="395.8" y2="237.72"/><line class="minorpip" x1="402.41" y1="240.55" x2="402.41" y2="237.72"/><line class="minorpip" x1="409.03" y1="240.55" x2="409.03" y2="237.72"/><line class="majorpip" x1="111.36" y1="240.55" x2="111.36" y2="234.89"/><text transform="translate(0 9.28)" style="font-size:8.00pt;text-anchor:middle" x="111.36" y="240.55">50</text><line class="majorpip" x1="177.51" y1="240.55" x2="177.51" y2="234.89"/><text transform="translate(0 9.28)" style="font-size:8.00pt;text-anchor:middle" x="177.51" y="240.55">100</text><line class="majorpip" x1="243.66" y1="240.55" x2="243.66" y2="234.89"/><text transform="translate(0 9.28)" style="font-size:8.00pt;text-anchor:middle" x="243.66" y="240.55">150</text><line class="majorpip" x1="309.8" y1="240.55" x2="309.8" y2="234.89"/><text transform="translate(0 9.28)" style="font-size:8.00pt;text-anchor:middle" x="309.8" y="240.55">200</text><line class="majorpip" x1="375.95" y1="240.55" x2="375.95" y2="234.89"/><text transform="translate(0 9.28)" style="font-size:8.00pt;text-anchor:middle" x="375.95" y="240.55">250</text><text transform="translate(0 3.2)" style="font-size:8.00pt;text-anchor:middle" x="247.63" y="268.85">Calibrated date (calAD)</text></g><g><line class="majorpip" x1="84.9" y1="240.55" x2="84.9" y2="14.15"/><line class="minorpip" x1="84.9" y1="239.36" x2="87.73" y2="239.36"/><line class="minorpip" x1="84.9" y1="235.96" x2="87.73" y2="235.96"/><line class="minorpip" x1="84.9" y1="232.56" x2="87.73" y2="232.56"/><line class="minorpip" x1="84.9" y1="229.16" x2="87.73" y2="229.16"/><line class="minorpip" x1="84.9" y1="225.76" x2="87.73" y2="225.76"/><line class="minorpip" x1="84.9" y1="222.35" x2="87.73" y2="222.35"/><line class="minorpip" x1="84.9" y1="218.95" x2="87.73" y2="218.95"/><line class="minorpip" x1="84.9" y1="215.55" x2="87.73" y2="215.55"/><line class="minorpip" x1="84.9" y1="212.15" x2="87.73" y2="212.15"/><line class="minorpip" x1="84.9" y1="208.75" x2="87.73" y2="208.75"/><line class="minorpip" x1="84.9" y1="205.34" x2="87.73" y2="205.34"/><line class="minorpip" x1="84.9" y1="201.94" x2="87.73" y2="201.94"/><line class="minorpip" x1="84.9" y1="198.54" x2="87.73" y2="198.54"/><line class="minorpip" x1="84.9" y1="195.14" x2="87.73" y2="195.14"/><line class="minorpip" x1="84.9" y1="191.74" x2="87.73" y2="191.74"/><line class="minorpip" x1="84.9" y1="188.33" x2="87.73" y2="188.33"/><line class="minorpip" x1="84.9" y1="184.93" x2="87.73" y2="184.93"/><line class="minorpip" x1="84.9" y1="181.53" x2="87.73" y2="181.53"/><line class="minorpip" x1="84.9" y1="178.13" x2="87.73" y2="178.13"/><line class="minorpip" x1="84.9" y1="174.73" x2="87.73" y2="174.73"/><line class="minorpip" x1="84.9" y1="171.32" x2="87.73" y2="171.32"/><line class="minorpip" x1="84.9" y1="167.92" x2="87.73" y2="167.92"/><line class="minorpip" x1="84.9" y1="164.52" x2="87.73" y2="164.52"/><line class="minorpip" x1="84.9" y1="161.12" x2="87.73" y2="161.12"/><line class="minorpip" x1="84.9" y1="157.72" x2="87.73" y2="157.72"/><line class="minorpip" x1="84.9" y1="154.31" x2="87.73" y2="154.31"/><line class="minorpip" x1="84.9" y1="150.91" x2="87.73" y2="150.91"/><line class="minorpip" x1="84.9" y1="147.51" x2="87.73" y2="147.51"/><line class="minorpip" x1="84.9" y1="144.11" x2="87.73" y2="144.11"/><line class="minorpip" x1="84.9" y1="140.71" x2="87.73" y2="140.71"/><line class="minorpip" x1="84.9" y1="137.3" x2="87.73" y2="137.3"/><line class="minorpip" x1="84.9" y1="133.9" x2="87.73" y2="133.9"/><line class="minorpip" x1="84.9" y1="130.5" x2="87.73" y2="130.5"/><line class="minorpip" x1="84.9" y1="127.1" x2="87.73" y2="127.1"/><line class="minorpip" x1="84.9" y1="123.7" x2="87.73" y2="123.7"/><line class="minorpip" x1="84.9" y1="120.29" x2="87.73" y2="120.29"/><line class="minorpip" x1="84.9" y1="116.89" x2="87.73" y2="116.89"/><line class="minorpip" x1="84.9" y1="113.49" x2="87.73" y2="113.49"/><line class="minorpip" x1="84.9" y1="110.09" x2="87.73" y2="110.09"/><line class="minorpip" x1="84.9" y1="106.69" x2="87.73" y2="106.69"/><line class="minorpip" x1="84.9" y1="103.28" x2="87.73" y2="103.28"/><line class="minorpip" x1="84.9" y1="99.88" x2="87.73" y2="99.88"/><line class="minorpip" x1="84.9" y1="96.48" x2="87.73" y2="96.48"/><line class="minorpip" x1="84.9" y1="93.08" x2="87.73" y2="93.08"/><line class="minorpip" x1="84.9" y1="89.67" x2="87.73" y2="89.67"/><line class="minorpip" x1="84.9" y1="86.27" x2="87.73" y2="86.27"/><line class="minorpip" x1="84.9" y1="82.87" x2="87.73" y2="82.87"/><line class="minorpip" x1="84.9" y1="79.47" x2="87.73" y2="79.47"/><line class="minorpip" x1="84.9" y1="76.07" x2="87.73" y2="76.07"/><line class="minorpip" x1="84.9" y1="72.66" x2="87.73" y2="72.66"/><line class="minorpip" x1="84.9" y1="69.26" x2="87.73" y2="69.26"/><line class="minorpip" x1="84.9" y1="65.86" x2="87.73" y2="65.86"/><line class="minorpip" x1="84.9" y1="62.46" x2="87.73" y2="62.46"/><line class="minorpip" x1="84.9" y1="59.06" x2="87.73" y2="59.06"/><line class="minorpip" x1="84.9" y1="55.65" x2="87.73" y2="55.65"/><line class="minorpip" x1="84.9" y1="52.25" x2="87.73" y2="52.25"/><line class="minorpip" x1="84.9" y1="48.85" x2="87.73" y2="48.85"/><line class="minorpip" x1="84.9" y1="45.45" x2="87.73" y2="45.45"/><line class="minorpip" x1="84.9" y1="42.05" x2="87.73" y2="42.05"/><line class="minorpip" x1="84.9" y1="38.64" x2="87.73" y2="38.64"/><line class="minorpip" x1="84.9" y1="35.24" x2="87.73" y2="35.24"/><line class="minorpip" x1="84.9" y1="31.84" x2="87.73" y2="31.84"/><line class="minorpip" x1="84.9" y1="28.44" x2="87.73" y2="28.44"/><line class="minorpip" x1="84.9" y1="25.04" x2="87.73" y2="25.04"/><line class="minorpip" x1="84.9" y1="21.63" x2="87.73" y2="21.63"/><line class="minorpip" x1="84.9" y1="18.23" x2="87.73" y2="18.23"/><line class="minorpip" x1="84.9" y1="14.83" x2="87.73" y2="14.83"/><line class="majorpip" x1="84.9" y1="215.55" x2="90.56" y2="215.55"/><text transform="translate(0 3.2)" style="font-size:8.00pt;text-anchor:end" x="82.07" y="215.55">1700</text><line class="majorpip" x1="84.9" y1="181.53" x2="90.56" y2="181.53"/><text transform="translate(0 3.2)" style="font-size:8.00pt;text-anchor:end" x="82.07" y="181.53">1750</text><line class="majorpip" x1="84.9" y1="147.51" x2="90.56" y2="147.51"/><text transform="translate(0 3.2)" style="font-size:8.00pt;text-anchor:end" x="82.07" y="147.51">1800</text><line class="majorpip" x1="84.9" y1="113.49" x2="90.56" y2="113.49"/><text transform="translate(0 3.2)" style="font-size:8.00pt;text-anchor:end" x="82.07" y="113.49">1850</text><line class="majorpip" x1="84.9" y1="79.47" x2="90.56" y2="79.47"/><text transform="translate(0 3.2)" style="font-size:8.00pt;text-anchor:end" x="82.07" y="79.47">1900</text><line class="majorpip" x1="84.9" y1="45.45" x2="90.56" y2="45.45"/><text transform="translate(0 3.2)" style="font-size:8.00pt;text-anchor:end" x="82.07" y="45.45">1950</text><text transform="matrix(0,-1,1,0,28.3,127.35)" style="font-size:8.00pt;text-anchor:middle" x="0" y="3.2">Radiocarbon determination (BP)</text></g><text transform="translate(0 -1.15)" style="font-size:4.80pt" x="84.9" y="14.15">OxCal v4.4.4 Bronk Ramsey (2021); r:5; Atmospheric data from Reimer et al (2020)</text></g></g>
</svg>