<?xml version="1.0" encoding="UTF-8"?><svg id="top" version="1.1" xmlns="http://www.w3.org/2000/svg" xmlns:xlink="http://www.w3.org/1999/xlink" xmlns:ev="http://www.w3.org/2001/xml-events" width="509.400pt" height="692.875pt" zoomAndPan="magnify" preserveAspectRatio="xMinYMin" onload="createPlot()" viewBox="0 0 509.400 692.875">
   <defs id="definitions">
   <filter id="Shadow" filterUnits="userSpaceOnUse">
    <feGaussianBlur in="SourceAlpha" stdDeviation="4" result="blur"/>
    <feOffset in="blur" dx="4" dy="4" result="offsetBlurredAlpha"/>
    <feMerge>
     <feMergeNode in="offsetBlurredAlpha"/>
     <feMergeNode in="SourceGraphic"/>
    </feMerge> 
   </filter>    
    <filter id="Correlation1" x="-20%" y="-20%" width="140%" height="140%" filterUnits="objectBoundingBox">
     <feGaussianBlur in="SourceGraphic" stdDeviation="7" result="blur"/>
     <feColorMatrix type="matrix" in="blur" values="0 0 0  5.00 -2.00&#10;               0 0 0 -2.50  2.50&#10;               0 0 0  0.00  0.00&#10;               0 0 0  2.50  0.00"/>
    </filter>    
    <filter id="Correlation2" x="-20%" y="-20%" width="140%" height="140%" filterUnits="objectBoundingBox">
     <feGaussianBlur in="SourceGraphic" stdDeviation="7" result="blur"/>
     <feGaussianBlur in="SourceAlpha" stdDeviation="7" result="opacity"/>
     <feColorMatrix type="matrix" in="blur" result="newcolor" values="0 0 0  5.00 -2.00&#10;               0 0 0 -2.50  2.50&#10;               0 0 0  0.00  0.00&#10;               0 0 0  2.50  0.00"/>
     <feSpecularLighting in="opacity" surfaceScale="5" specularConstant="1" specularExponent="20" lighting-color="white" result="specularOut">
      <feDistantLight azimuth="225" elevation="30"/>
     </feSpecularLighting>
     <feComposite in="newcolor" in2="specularOut" operator="arithmetic" k1="0" k2="1" k3="1" k4="0" result="litPaint"/>
    </filter>
    <pattern id="Sequence" patternUnits="userSpaceOnUse" x="0" y="0" width="5" height="5" viewBox="0 0 5 5">
    </pattern>    
    <pattern id="U_Sequence" patternUnits="userSpaceOnUse" x="0" y="0" width="5" height="5" viewBox="0 0 5 5">
     <line x1="-2.5" x2="5" y1="5" y2="-2.5" style="stroke-width:1.5;stroke:black"/>
     <line x1="0" x2="7.5" y1="7.5" y2="0" style="stroke-width:1.5;stroke:black"/>
    </pattern>    
    <pattern id="D_Sequence" patternUnits="userSpaceOnUse" x="0" y="0" width="5" height="5" viewBox="0 0 5 5">
     <line x1="-2.5" x2="7.5" y1="-2.5" y2="7.5" style="stroke-width:1;stroke:black"/>
     <line x1="-2.5" x2="7.5" y1="7.5" y2="-2.5" style="stroke-width:1;stroke:black"/>
    </pattern>    
    <pattern id="V_Sequence" patternUnits="userSpaceOnUse" x="0" y="0" width="5" height="5" viewBox="0 0 5 5">
     <ellipse cx="2.5" cy="2.5" rx="1.5" ry="0.7" style="fill:black"/>
    </pattern>    
    <pattern id="P_Sequence" patternUnits="userSpaceOnUse" x="0" y="0" width="5" height="5" viewBox="0 0 5 5">
     <circle cx="1.25" cy="3.75" r="1" style="fill:black"/>
     <circle cx="3.75" cy="1.25" r="1" style="fill:black"/>
    </pattern>
    <style type="text/css">
      rect.border { fill:none; stroke:black;stroke-width:1px }
      rect.fillblack { fill:black; stroke:black;stroke-width:1px }
      rect.structure { fill:none; stroke:none }
      rect.structtab { fill:blue; stroke:none;fill-opacity:0.2 }
      rect.structclip { fill:white; stroke:none }
      rect.structborder { fill:none; stroke:black; stroke-width:0.5px }
      rect.range3 {fill:black;stroke:black;stroke-width:1px;fill-opacity:0.1 }
      rect.range2 {fill:black;stroke:black;stroke-width:1px;fill-opacity:0.3 }
      rect.range1 {fill:black;stroke:black;stroke-width:1px;fill-opacity:0.5 }
      rect.fillbackground { fill:#000099 }
      rect.fillmodel { fill:#ffffcc;stroke:black;stroke-width:1px;fill-opacity:0.8 }
      rect.modeldist {fill:black;stroke:black;stroke-width:1px;fill-opacity:0.3 }
      rect.fill { fill:#CC0000 }
      polygon.main { fill:black; stroke:black;stroke-width:0.2px;fill-opacity:0.5 }
      polygon.shadow { fill:black; stroke:black;stroke-width:0.2px;fill-opacity:0.1 }
      polygon.curve { fill:blue; stroke:blue;stroke-width:1px;fill-opacity:0.3 }
      polygon.normal { fill:red; stroke:red;stroke-width:1px;fill-opacity:0.3 }
      polygon.kdesigma { fill:blue; stroke:blue;stroke-width:0px;fill-opacity:0.2 }
      polygon.modeldist { fill:url(#U_Sequence);stroke:black;stroke-width:1px;fill-opacity:0.3 }
      polyline.datacurve { fill:none; stroke:blue;stroke-width:1px }
      polyline.range { fill:none; stroke:black; stroke-width:1px; stroke-linejoin:round }
      polyline.ensemble { fill:none; stroke:black; stroke-width:0.5px;stroke-opacity:0.2 }
      polyline.kdemean { fill:none; stroke:blue; stroke-width:1px }
      path.model3 { fill:blue; stroke:blue;stroke-width:1px;fill-opacity:0.1 }
      path.model2 { fill:blue; stroke:blue;stroke-width:1px;fill-opacity:0.3 }
      path.model1 { fill:blue; stroke:blue;stroke-width:1px;fill-opacity:0.5 }
      g.curve { fill:blue; stroke:blue;stroke-width:1px;fill-opacity:0.3 }
      line.majorpip { stroke:black; stroke-width:1px }
      line.minorpip { stroke:black; stroke-width:0.5px }
      line.gridline { stroke:black; stroke-width:0.5px }
      line.majorpip2 { stroke:white; stroke-width:1px }
      line.minorpip2 { stroke:white; stroke-width:0.5px }
      line.gridline2 { stroke:white; stroke-width:0.5px }
      line.okline { stroke:green; stroke-width:1px }
      line.errorline { stroke:red; stroke-width:1px }
      line.range { stroke:black; stroke-width:1px }
      line.modelline { stroke:black; stroke-width:1px }
      line.constrshadow { stroke:#ffffcc; stroke-width:2px }
      line.constrok { stroke:black; stroke-width:1px }
      line.constrerror { stroke:#ff0000; stroke-width:1px }
      line.curve { stroke:blue;stroke-width:1px }
      text { fill:black; stroke:none; font-size:10pt; font-family:"Arial","Helvetica"; font-style:normal }
    </style>
   <clipPath id="clip1"><rect x="0" width="481.1" y="0" height="636.28"/></clipPath><clipPath id="clip2"><rect class="structure" x="0" width="471.48" y="-612.54" height="612.54" rx="5"/></clipPath><clipPath id="clip3"><rect class="structure" x="0" width="461.86" y="-161.45" height="161.45" rx="5"/></clipPath><clipPath id="clip4"><rect class="structure" x="0" width="461.86" y="-42.73" height="42.73" rx="5"/></clipPath><clipPath id="clip5"><rect class="structure" x="0" width="461.86" y="-280.16" height="280.16" rx="5"/></clipPath><clipPath id="clip6"><rect class="structure" x="0" width="452.24" y="-90.22" height="90.22" rx="5"/></clipPath><clipPath id="clip7"><rect class="structure" x="0" width="452.24" y="-90.22" height="90.22" rx="5"/></clipPath><clipPath id="clip8"><rect x="0" width="481.1" y="0" height="636.28"/></clipPath></defs>
    <g id="mainframe"><rect x="-50.94" width="611.28" y="-69.29" height="831.45" style="fill:white" stroke="none"/><g id="mainviewport" transform="translate(0 0)"><rect class="border" x="14.15" width="481.1" y="14.15" height="636.28"/><g id="tabarea" transform="translate(14.15 14.15)"><g id="group" transform="translate(4.81 624.41)"><g clip-path="url(#clip2)"><rect class="structtab" x="0" width="471.48" y="-612.54" height="21.37"/></g></g><g id="group" transform="translate(9.62 220.8)"><g clip-path="url(#clip3)"><rect class="structtab" x="0" width="461.86" y="-161.45" height="21.37"/></g></g><g id="group" transform="translate(9.62 292.02)"><g clip-path="url(#clip4)"><rect class="structtab" x="0" width="461.86" y="-42.73" height="21.37"/></g></g><g id="group" transform="translate(9.62 600.67)"><g clip-path="url(#clip5)"><rect class="structtab" x="0" width="461.86" y="-280.16" height="21.37"/></g></g><g id="group" transform="translate(14.43 458.22)"><g clip-path="url(#clip6)"><rect class="structtab" x="0" width="452.24" y="-90.22" height="21.37"/></g></g><g id="group" transform="translate(14.43 576.93)"><g clip-path="url(#clip7)"><rect class="structtab" x="0" width="452.24" y="-90.22" height="21.37"/></g></g></g><g id="plotarea" transform="translate(14.15 14.15)"><g id="structarea" transform="translate(0 0)"><g clip-path="url(#clip1)"><rect class="structure" x="4.81" width="471.48" y="11.87" height="612.54" rx="5"/><rect class="structborder" x="4.81" width="471.48" y="11.87" height="612.54" rx="5"/><rect class="structure" x="9.62" width="461.86" y="59.35" height="161.45" rx="5"/><rect class="structborder" x="9.62" width="461.86" y="59.35" height="161.45" rx="5"/><rect class="structure" x="9.62" width="461.86" y="249.29" height="42.73" rx="5"/><rect class="structborder" x="9.62" width="461.86" y="249.29" height="42.73" rx="5"/><rect class="structure" x="9.62" width="461.86" y="320.51" height="280.16" rx="5"/><rect class="structborder" x="9.62" width="461.86" y="320.51" height="280.16" rx="5"/><rect class="structure" x="14.43" width="452.24" y="368" height="90.22" rx="5"/><rect class="structborder" x="14.43" width="452.24" y="368" height="90.22" rx="5"/><rect class="structure" x="14.43" width="452.24" y="486.71" height="90.22" rx="5"/><rect class="structborder" x="14.43" width="452.24" y="486.71" height="90.22" rx="5"/></g></g><g clip-path="url(#clip8)"><g id="itemarea1" transform="translate(0 -7.33)"/><g id="itemarea2" transform="translate(0 16.41)"><polygon class="main" points="103.09,28.7&#10;103.09,28.7&#10;104.44,28.7&#10;105.78,28.7&#10;107.12,28.7&#10;108.46,28.7&#10;109.8,28.7&#10;111.15,28.7&#10;112.49,28.7&#10;113.83,28.7&#10;115.17,28.7&#10;116.52,28.7&#10;117.86,28.7&#10;119.2,28.7&#10;120.54,28.7&#10;121.89,28.7&#10;123.23,28.7&#10;124.57,28.7&#10;125.91,28.7&#10;127.26,28.7&#10;128.6,28.7&#10;129.94,28.7&#10;131.28,28.7&#10;132.62,28.7&#10;133.97,28.7&#10;135.31,28.7&#10;136.65,28.69&#10;137.99,28.7&#10;139.34,28.69&#10;140.68,28.7&#10;142.02,28.7&#10;143.36,28.7&#10;144.71,28.7&#10;146.05,28.7&#10;147.39,28.69&#10;148.73,28.7&#10;150.08,28.7&#10;151.42,28.69&#10;152.76,28.69&#10;154.1,28.69&#10;155.44,28.69&#10;156.79,28.69&#10;158.13,28.69&#10;159.47,28.69&#10;160.81,28.69&#10;162.16,28.69&#10;163.5,28.69&#10;164.84,28.69&#10;166.18,28.69&#10;167.53,28.68&#10;168.87,28.68&#10;170.21,28.68&#10;171.55,28.69&#10;172.9,28.68&#10;174.24,28.68&#10;175.58,28.67&#10;176.92,28.68&#10;178.26,28.67&#10;179.61,28.66&#10;180.95,28.68&#10;182.29,28.67&#10;183.63,28.66&#10;184.98,28.66&#10;186.32,28.67&#10;187.66,28.67&#10;189,28.66&#10;190.35,28.64&#10;191.69,28.64&#10;193.03,28.64&#10;194.37,28.65&#10;195.72,28.61&#10;197.06,28.63&#10;198.4,28.62&#10;199.74,28.6&#10;201.08,28.61&#10;202.43,28.59&#10;203.77,28.58&#10;205.11,28.58&#10;206.45,28.58&#10;207.8,28.57&#10;209.14,28.54&#10;210.48,28.52&#10;211.82,28.5&#10;213.17,28.47&#10;214.51,28.48&#10;215.85,28.48&#10;217.19,28.45&#10;218.54,28.36&#10;219.88,28.34&#10;221.22,28.28&#10;222.56,28.19&#10;223.9,28.2&#10;225.25,28.15&#10;226.59,28.09&#10;227.93,28.07&#10;229.27,27.9&#10;230.62,27.82&#10;231.96,27.77&#10;233.3,27.58&#10;234.64,27.43&#10;235.99,27.35&#10;237.33,27.14&#10;238.67,27.03&#10;240.01,26.81&#10;241.36,26.68&#10;242.7,26.59&#10;244.04,26.29&#10;245.38,26.24&#10;246.72,25.98&#10;248.07,25.86&#10;249.41,25.3&#10;250.75,25.24&#10;252.09,25.04&#10;253.44,24.67&#10;254.78,24.06&#10;256.12,23.9&#10;257.46,23.52&#10;258.81,23.21&#10;260.15,23.16&#10;261.49,23.18&#10;262.83,22.73&#10;264.18,22.5&#10;265.52,22.31&#10;266.86,22.01&#10;268.2,21.66&#10;269.54,21.59&#10;270.89,21.53&#10;272.23,21.76&#10;273.57,22.1&#10;274.91,22.61&#10;276.26,22.14&#10;277.6,21.95&#10;278.94,22.13&#10;280.28,22.46&#10;281.63,23.66&#10;282.97,24.75&#10;284.31,26.06&#10;285.65,26.83&#10;287,27.29&#10;288.34,27.86&#10;289.68,28.08&#10;291.02,28.26&#10;292.36,28.24&#10;293.71,28.18&#10;295.05,28.01&#10;296.39,28.16&#10;297.73,28.42&#10;299.08,28.6&#10;300.42,28.67&#10;301.76,28.68&#10;303.1,28.68&#10;304.45,28.68&#10;304.45,28.7"/><polyline class="range" points="225.92,33.01&#10;225.92,34.44&#10;289.95,34.44&#10;289.95,33.01"/><polyline class="range" points="294.24,33.01&#10;294.24,34.44&#10;296.12,34.44&#10;296.12,33.01"/></g><g id="itemarea3" transform="translate(0 40.15)"/><g id="itemarea4" transform="translate(0 63.89)"><polygon class="shadow" points="170.21,28.71&#10;170.21,28.71&#10;171.55,28.71&#10;172.9,28.71&#10;174.24,28.7&#10;175.58,28.7&#10;176.92,28.7&#10;178.26,28.7&#10;179.61,28.69&#10;180.95,28.66&#10;182.29,28.65&#10;183.63,28.63&#10;184.98,28.6&#10;186.32,28.54&#10;187.66,28.38&#10;189,27.97&#10;190.35,27.19&#10;191.69,26.14&#10;193.03,25.33&#10;194.37,25.21&#10;195.72,25.67&#10;197.06,26.47&#10;198.4,27.16&#10;199.74,27.62&#10;201.08,27.83&#10;202.43,27.88&#10;203.77,27.87&#10;205.11,27.92&#10;206.45,28.09&#10;207.8,28.31&#10;209.14,28.46&#10;210.48,28.52&#10;211.82,28.52&#10;213.17,28.47&#10;214.51,28.37&#10;215.85,28.32&#10;217.19,28.4&#10;218.54,28.53&#10;219.88,28.54&#10;221.22,28.3&#10;222.56,27.95&#10;223.9,27.96&#10;225.25,28.14&#10;226.59,28.12&#10;227.93,27.63&#10;229.27,26.38&#10;230.62,24.94&#10;231.96,24.39&#10;233.3,24.77&#10;234.64,25.18&#10;235.99,24.58&#10;237.33,23.3&#10;238.67,22.44&#10;240.01,22.13&#10;241.36,22&#10;242.7,21.78&#10;244.04,21.6&#10;245.38,21.6&#10;246.72,21.61&#10;248.07,21.72&#10;249.41,21.81&#10;250.75,21.73&#10;252.09,21.65&#10;253.44,21.61&#10;254.78,21.55&#10;256.12,21.54&#10;257.46,21.66&#10;258.81,22.03&#10;260.15,22.34&#10;261.49,22.2&#10;262.83,21.89&#10;264.18,21.63&#10;265.52,21.53&#10;266.86,21.53&#10;268.2,21.67&#10;269.54,22.64&#10;270.89,24.15&#10;272.23,25.67&#10;273.57,26.73&#10;274.91,27.14&#10;276.26,27.15&#10;277.6,27.23&#10;278.94,27.06&#10;280.28,26.06&#10;281.63,25.17&#10;282.97,25.64&#10;284.31,26.84&#10;285.65,27.41&#10;287,27.59&#10;288.34,27.83&#10;289.68,28.18&#10;291.02,28.39&#10;292.36,28.44&#10;293.71,28.4&#10;295.05,28.32&#10;296.39,28.21&#10;297.73,28.22&#10;299.08,28.4&#10;300.42,28.52&#10;301.76,28.58&#10;303.1,28.59&#10;304.45,28.63&#10;305.79,28.68&#10;307.13,28.69&#10;308.47,28.67&#10;309.82,28.62&#10;311.16,28.61&#10;312.5,28.64&#10;313.84,28.66&#10;315.18,28.69&#10;316.53,28.7&#10;317.87,28.7&#10;319.21,28.7&#10;320.55,28.7&#10;321.9,28.7&#10;323.24,28.7&#10;324.58,28.7&#10;325.92,28.7&#10;327.27,28.7&#10;328.61,28.7&#10;329.95,28.7&#10;331.29,28.7&#10;332.64,28.7&#10;333.98,28.7&#10;335.32,28.7&#10;336.66,28.7&#10;338,28.7&#10;339.35,28.7&#10;340.69,28.7&#10;342.03,28.7&#10;343.37,28.7&#10;344.72,28.7&#10;346.06,28.71&#10;347.4,28.71&#10;348.74,28.71&#10;348.74,28.71"/><polygon class="main" points="190.35,28.71&#10;190.35,28.71&#10;191.69,28.7&#10;193.03,28.7&#10;194.37,28.7&#10;195.72,28.7&#10;197.06,28.7&#10;198.4,28.7&#10;199.74,28.7&#10;201.08,28.7&#10;202.43,28.7&#10;203.77,28.7&#10;205.11,28.7&#10;206.45,28.7&#10;207.8,28.7&#10;209.14,28.7&#10;210.48,28.71&#10;211.82,28.7&#10;213.17,28.7&#10;214.51,28.7&#10;215.85,28.7&#10;217.19,28.7&#10;218.54,28.7&#10;219.88,28.7&#10;221.22,28.7&#10;222.56,28.7&#10;223.9,28.7&#10;225.25,28.7&#10;226.59,28.7&#10;227.93,28.69&#10;229.27,28.66&#10;230.62,28.62&#10;231.96,28.61&#10;233.3,28.6&#10;234.64,28.6&#10;235.99,28.58&#10;237.33,28.52&#10;238.67,28.48&#10;240.01,28.45&#10;241.36,28.37&#10;242.7,28.34&#10;244.04,28.26&#10;245.38,28.21&#10;246.72,28.15&#10;248.07,28.11&#10;249.41,28.02&#10;250.75,27.86&#10;252.09,27.83&#10;253.44,27.67&#10;254.78,27.5&#10;256.12,27.39&#10;257.46,27.17&#10;258.81,27.14&#10;260.15,26.94&#10;261.49,26.66&#10;262.83,26.29&#10;264.18,25.9&#10;265.52,25.37&#10;266.86,25&#10;268.2,24.57&#10;269.54,24.47&#10;270.89,24.88&#10;272.23,25.56&#10;273.57,26.23&#10;274.91,26.37&#10;276.26,26.32&#10;277.6,26.07&#10;278.94,25.43&#10;280.28,23.39&#10;281.63,21.53&#10;282.97,21.93&#10;284.31,23.85&#10;285.65,25.15&#10;287,25.63&#10;288.34,26.25&#10;289.68,27.2&#10;291.02,27.82&#10;292.36,28&#10;293.71,27.9&#10;295.05,27.69&#10;296.39,27.4&#10;297.73,27.49&#10;299.08,27.96&#10;300.42,28.29&#10;301.76,28.44&#10;303.1,28.52&#10;304.45,28.6&#10;305.79,28.66&#10;307.13,28.68&#10;308.47,28.66&#10;309.82,28.62&#10;311.16,28.62&#10;312.5,28.65&#10;313.84,28.68&#10;315.18,28.69&#10;316.53,28.7&#10;317.87,28.7&#10;319.21,28.7&#10;320.55,28.7&#10;321.9,28.7&#10;323.24,28.71&#10;323.24,28.71"/><polyline class="range" points="246.32,33.01&#10;246.32,34.45&#10;299.88,34.45&#10;299.88,33.01"/></g><g id="itemarea5" transform="translate(0 87.63)"><polygon class="shadow" points="174.24,28.71&#10;174.24,28.71&#10;175.58,28.71&#10;176.92,28.7&#10;178.26,28.7&#10;179.61,28.7&#10;180.95,28.7&#10;182.29,28.7&#10;183.63,28.7&#10;184.98,28.7&#10;186.32,28.7&#10;187.66,28.69&#10;189,28.64&#10;190.35,28.53&#10;191.69,28.28&#10;193.03,28.02&#10;194.37,27.99&#10;195.72,28.15&#10;197.06,28.37&#10;198.4,28.52&#10;199.74,28.59&#10;201.08,28.63&#10;202.43,28.63&#10;203.77,28.63&#10;205.11,28.64&#10;206.45,28.66&#10;207.8,28.68&#10;209.14,28.69&#10;210.48,28.7&#10;211.82,28.7&#10;213.17,28.69&#10;214.51,28.68&#10;215.85,28.68&#10;217.19,28.69&#10;218.54,28.7&#10;219.88,28.7&#10;221.22,28.68&#10;222.56,28.64&#10;223.9,28.64&#10;225.25,28.66&#10;226.59,28.66&#10;227.93,28.6&#10;229.27,28.35&#10;230.62,27.88&#10;231.96,27.65&#10;233.3,27.82&#10;234.64,27.98&#10;235.99,27.73&#10;237.33,27.01&#10;238.67,26.31&#10;240.01,25.87&#10;241.36,25.67&#10;242.7,25.22&#10;244.04,24.59&#10;245.38,24.58&#10;246.72,24.84&#10;248.07,25.17&#10;249.41,25.38&#10;250.75,25.2&#10;252.09,24.99&#10;253.44,24.83&#10;254.78,24.51&#10;256.12,24&#10;257.46,23.36&#10;258.81,22.64&#10;260.15,22.29&#10;261.49,22.43&#10;262.83,22.86&#10;264.18,23.47&#10;265.52,24.08&#10;266.86,24.19&#10;268.2,23.24&#10;269.54,22.04&#10;270.89,21.53&#10;272.23,21.94&#10;273.57,22.81&#10;274.91,23.35&#10;276.26,23.41&#10;277.6,23.54&#10;278.94,23.27&#10;280.28,22.2&#10;281.63,21.71&#10;282.97,21.92&#10;284.31,22.98&#10;285.65,23.84&#10;287,24.17&#10;288.34,24.7&#10;289.68,25.68&#10;291.02,26.48&#10;292.36,26.68&#10;293.71,26.52&#10;295.05,26.19&#10;296.39,25.77&#10;297.73,25.82&#10;299.08,26.5&#10;300.42,27.12&#10;301.76,27.46&#10;303.1,27.54&#10;304.45,27.82&#10;305.79,28.23&#10;307.13,28.38&#10;308.47,28.18&#10;309.82,27.74&#10;311.16,27.64&#10;312.5,27.91&#10;313.84,28.12&#10;315.18,28.37&#10;316.53,28.59&#10;317.87,28.67&#10;319.21,28.68&#10;320.55,28.67&#10;321.9,28.66&#10;323.24,28.66&#10;324.58,28.66&#10;325.92,28.67&#10;327.27,28.68&#10;328.61,28.68&#10;329.95,28.68&#10;331.29,28.68&#10;332.64,28.68&#10;333.98,28.67&#10;335.32,28.66&#10;336.66,28.67&#10;338,28.69&#10;339.35,28.7&#10;340.69,28.7&#10;342.03,28.7&#10;343.37,28.7&#10;344.72,28.7&#10;346.06,28.7&#10;347.4,28.7&#10;348.74,28.7&#10;350.09,28.71&#10;351.43,28.71&#10;352.77,28.71&#10;352.77,28.71"/><polygon class="main" points="191.69,28.71&#10;191.69,28.71&#10;193.03,28.7&#10;194.37,28.7&#10;195.72,28.7&#10;197.06,28.7&#10;198.4,28.7&#10;199.74,28.7&#10;201.08,28.71&#10;202.43,28.7&#10;203.77,28.71&#10;205.11,28.7&#10;206.45,28.71&#10;207.8,28.71&#10;209.14,28.71&#10;210.48,28.71&#10;211.82,28.71&#10;213.17,28.71&#10;214.51,28.71&#10;215.85,28.71&#10;217.19,28.7&#10;218.54,28.71&#10;219.88,28.71&#10;221.22,28.71&#10;222.56,28.7&#10;223.9,28.7&#10;225.25,28.7&#10;226.59,28.7&#10;227.93,28.7&#10;229.27,28.7&#10;230.62,28.69&#10;231.96,28.68&#10;233.3,28.68&#10;234.64,28.68&#10;235.99,28.67&#10;237.33,28.63&#10;238.67,28.61&#10;240.01,28.56&#10;241.36,28.54&#10;242.7,28.49&#10;244.04,28.41&#10;245.38,28.39&#10;246.72,28.38&#10;248.07,28.36&#10;249.41,28.36&#10;250.75,28.29&#10;252.09,28.24&#10;253.44,28.12&#10;254.78,28.01&#10;256.12,27.86&#10;257.46,27.63&#10;258.81,27.35&#10;260.15,27.15&#10;261.49,27.02&#10;262.83,26.98&#10;264.18,26.96&#10;265.52,27.01&#10;266.86,26.83&#10;268.2,26.24&#10;269.54,25.52&#10;270.89,24.9&#10;272.23,24.58&#10;273.57,24.68&#10;274.91,24.63&#10;276.26,24.53&#10;277.6,24.35&#10;278.94,23.58&#10;280.28,22.45&#10;281.63,21.71&#10;282.97,21.53&#10;284.31,22.23&#10;285.65,23.23&#10;287,23.67&#10;288.34,24.36&#10;289.68,25.43&#10;291.02,26.43&#10;292.36,26.79&#10;293.71,26.68&#10;295.05,26.39&#10;296.39,26.05&#10;297.73,26.18&#10;299.08,26.92&#10;300.42,27.49&#10;301.76,27.8&#10;303.1,27.96&#10;304.45,28.19&#10;305.79,28.43&#10;307.13,28.52&#10;308.47,28.44&#10;309.82,28.3&#10;311.16,28.28&#10;312.5,28.42&#10;313.84,28.51&#10;315.18,28.6&#10;316.53,28.67&#10;317.87,28.7&#10;319.21,28.7&#10;320.55,28.7&#10;321.9,28.7&#10;323.24,28.7&#10;324.58,28.7&#10;325.92,28.7&#10;327.27,28.7&#10;328.61,28.7&#10;329.95,28.7&#10;331.29,28.7&#10;332.64,28.7&#10;333.98,28.7&#10;335.32,28.7&#10;335.32,28.71"/><polyline class="range" points="251.96,33.01&#10;251.96,34.45&#10;304.71,34.45&#10;304.71,33.01"/></g><g id="itemarea6" transform="translate(0 111.37)"><polygon class="shadow" points="184.98,28.71&#10;184.98,28.71&#10;186.32,28.71&#10;187.66,28.71&#10;189,28.7&#10;190.35,28.7&#10;191.69,28.7&#10;193.03,28.68&#10;194.37,28.68&#10;195.72,28.69&#10;197.06,28.7&#10;198.4,28.7&#10;199.74,28.7&#10;201.08,28.7&#10;202.43,28.7&#10;203.77,28.7&#10;205.11,28.7&#10;206.45,28.7&#10;207.8,28.7&#10;209.14,28.71&#10;210.48,28.71&#10;211.82,28.71&#10;213.17,28.71&#10;214.51,28.7&#10;215.85,28.7&#10;217.19,28.71&#10;218.54,28.71&#10;219.88,28.71&#10;221.22,28.7&#10;222.56,28.7&#10;223.9,28.7&#10;225.25,28.7&#10;226.59,28.7&#10;227.93,28.7&#10;229.27,28.7&#10;230.62,28.67&#10;231.96,28.64&#10;233.3,28.66&#10;234.64,28.68&#10;235.99,28.65&#10;237.33,28.49&#10;238.67,28.22&#10;240.01,27.95&#10;241.36,27.82&#10;242.7,27.46&#10;244.04,26.85&#10;245.38,26.83&#10;246.72,27.14&#10;248.07,27.45&#10;249.41,27.62&#10;250.75,27.48&#10;252.09,27.29&#10;253.44,27.13&#10;254.78,26.79&#10;256.12,26.16&#10;257.46,25.24&#10;258.81,23.96&#10;260.15,23.25&#10;261.49,23.55&#10;262.83,24.38&#10;264.18,25.41&#10;265.52,26.27&#10;266.86,26.42&#10;268.2,25.07&#10;269.54,22.72&#10;270.89,21.53&#10;272.23,22.5&#10;273.57,24.32&#10;274.91,25.25&#10;276.26,25.31&#10;277.6,25.5&#10;278.94,25.08&#10;280.28,23.07&#10;281.63,21.96&#10;282.97,22.46&#10;284.31,24.58&#10;285.65,25.94&#10;287,26.38&#10;288.34,26.99&#10;289.68,27.85&#10;291.02,28.3&#10;292.36,28.38&#10;293.71,28.32&#10;295.05,28.16&#10;296.39,27.91&#10;297.73,27.94&#10;299.08,28.31&#10;300.42,28.53&#10;301.76,28.61&#10;303.1,28.62&#10;304.45,28.66&#10;305.79,28.7&#10;307.13,28.7&#10;308.47,28.69&#10;309.82,28.65&#10;311.16,28.64&#10;312.5,28.67&#10;313.84,28.69&#10;315.18,28.7&#10;316.53,28.7&#10;317.87,28.7&#10;319.21,28.7&#10;320.55,28.7&#10;321.9,28.7&#10;323.24,28.7&#10;324.58,28.7&#10;325.92,28.7&#10;327.27,28.7&#10;328.61,28.7&#10;329.95,28.7&#10;331.29,28.7&#10;332.64,28.7&#10;333.98,28.7&#10;335.32,28.7&#10;336.66,28.7&#10;338,28.71&#10;339.35,28.71&#10;340.69,28.71&#10;340.69,28.71"/><polygon class="main" points="226.59,28.71&#10;226.59,28.71&#10;227.93,28.71&#10;229.27,28.7&#10;230.62,28.7&#10;231.96,28.7&#10;233.3,28.7&#10;234.64,28.7&#10;235.99,28.7&#10;237.33,28.69&#10;238.67,28.68&#10;240.01,28.66&#10;241.36,28.65&#10;242.7,28.62&#10;244.04,28.56&#10;245.38,28.55&#10;246.72,28.56&#10;248.07,28.57&#10;249.41,28.56&#10;250.75,28.54&#10;252.09,28.48&#10;253.44,28.46&#10;254.78,28.37&#10;256.12,28.19&#10;257.46,27.94&#10;258.81,27.57&#10;260.15,27.28&#10;261.49,27.22&#10;262.83,27.31&#10;264.18,27.52&#10;265.52,27.71&#10;266.86,27.6&#10;268.2,26.88&#10;269.54,25.64&#10;270.89,24.67&#10;272.23,24.71&#10;273.57,25.46&#10;274.91,25.83&#10;276.26,25.79&#10;277.6,25.65&#10;278.94,24.93&#10;280.28,22.9&#10;281.63,21.53&#10;282.97,21.54&#10;284.31,23.4&#10;285.65,24.9&#10;287,25.55&#10;288.34,26.36&#10;289.68,27.44&#10;291.02,28.08&#10;292.36,28.23&#10;293.71,28.13&#10;295.05,27.9&#10;296.39,27.59&#10;297.73,27.66&#10;299.08,28.16&#10;300.42,28.47&#10;301.76,28.57&#10;303.1,28.62&#10;304.45,28.66&#10;305.79,28.7&#10;307.13,28.7&#10;308.47,28.69&#10;309.82,28.67&#10;311.16,28.67&#10;312.5,28.69&#10;313.84,28.7&#10;315.18,28.7&#10;316.53,28.7&#10;317.87,28.71&#10;317.87,28.71"/><polyline class="range" points="256.26,33.01&#10;256.26,34.45&#10;291.83,34.45&#10;291.83,33.01"/><polyline class="range" points="293.17,33.01&#10;293.17,34.45&#10;299.08,34.45&#10;299.08,33.01"/></g><g id="itemarea7" transform="translate(0 135.12)"><polygon class="shadow" points="176.92,28.7&#10;176.92,28.7&#10;178.26,28.7&#10;179.61,28.7&#10;180.95,28.7&#10;182.29,28.7&#10;183.63,28.7&#10;184.98,28.7&#10;186.32,28.7&#10;187.66,28.7&#10;189,28.7&#10;190.35,28.69&#10;191.69,28.67&#10;193.03,28.64&#10;194.37,28.64&#10;195.72,28.66&#10;197.06,28.68&#10;198.4,28.69&#10;199.74,28.7&#10;201.08,28.7&#10;202.43,28.7&#10;203.77,28.7&#10;205.11,28.7&#10;206.45,28.7&#10;207.8,28.7&#10;209.14,28.7&#10;210.48,28.7&#10;211.82,28.7&#10;213.17,28.7&#10;214.51,28.7&#10;215.85,28.7&#10;217.19,28.7&#10;218.54,28.7&#10;219.88,28.7&#10;221.22,28.7&#10;222.56,28.7&#10;223.9,28.7&#10;225.25,28.7&#10;226.59,28.7&#10;227.93,28.7&#10;229.27,28.68&#10;230.62,28.63&#10;231.96,28.59&#10;233.3,28.62&#10;234.64,28.64&#10;235.99,28.61&#10;237.33,28.48&#10;238.67,28.33&#10;240.01,28.2&#10;241.36,28.14&#10;242.7,27.99&#10;244.04,27.73&#10;245.38,27.73&#10;246.72,27.85&#10;248.07,27.98&#10;249.41,28.05&#10;250.75,27.99&#10;252.09,27.91&#10;253.44,27.85&#10;254.78,27.71&#10;256.12,27.46&#10;257.46,27.08&#10;258.81,26.5&#10;260.15,26.12&#10;261.49,26.29&#10;262.83,26.7&#10;264.18,27.15&#10;265.52,27.5&#10;266.86,27.56&#10;268.2,27.02&#10;269.54,25.79&#10;270.89,24.22&#10;272.23,22.77&#10;273.57,21.88&#10;274.91,21.63&#10;276.26,21.65&#10;277.6,21.61&#10;278.94,21.69&#10;280.28,22.43&#10;281.63,23.23&#10;282.97,22.8&#10;284.31,21.82&#10;285.65,21.55&#10;287,21.53&#10;288.34,21.57&#10;289.68,21.94&#10;291.02,22.58&#10;292.36,22.78&#10;293.71,22.62&#10;295.05,22.3&#10;296.39,22&#10;297.73,22.03&#10;299.08,22.59&#10;300.42,23.36&#10;301.76,23.92&#10;303.1,24.07&#10;304.45,24.67&#10;305.79,25.86&#10;307.13,26.43&#10;308.47,25.66&#10;309.82,24.49&#10;311.16,24.27&#10;312.5,24.89&#10;313.84,25.47&#10;315.18,26.36&#10;316.53,27.54&#10;317.87,28.13&#10;319.21,28.26&#10;320.55,28.18&#10;321.9,28.09&#10;323.24,28.05&#10;324.58,28.12&#10;325.92,28.19&#10;327.27,28.23&#10;328.61,28.29&#10;329.95,28.3&#10;331.29,28.3&#10;332.64,28.27&#10;333.98,28.18&#10;335.32,28.11&#10;336.66,28.16&#10;338,28.36&#10;339.35,28.53&#10;340.69,28.62&#10;342.03,28.65&#10;343.37,28.66&#10;344.72,28.66&#10;346.06,28.68&#10;347.4,28.7&#10;348.74,28.7&#10;350.09,28.7&#10;351.43,28.7&#10;352.77,28.7&#10;354.11,28.7&#10;355.46,28.7&#10;356.8,28.7&#10;358.14,28.7&#10;359.48,28.7&#10;360.83,28.7&#10;362.17,28.7&#10;363.51,28.7&#10;364.85,28.7&#10;366.19,28.7&#10;367.54,28.7&#10;368.88,28.7&#10;370.22,28.7&#10;371.56,28.7&#10;372.91,28.7&#10;374.25,28.7&#10;375.59,28.7&#10;376.93,28.7&#10;376.93,28.7"/><polygon class="main" points="230.62,28.7&#10;230.62,28.7&#10;231.96,28.7&#10;233.3,28.7&#10;234.64,28.7&#10;235.99,28.69&#10;237.33,28.69&#10;238.67,28.68&#10;240.01,28.67&#10;241.36,28.66&#10;242.7,28.63&#10;244.04,28.62&#10;245.38,28.6&#10;246.72,28.61&#10;248.07,28.62&#10;249.41,28.62&#10;250.75,28.6&#10;252.09,28.57&#10;253.44,28.54&#10;254.78,28.51&#10;256.12,28.43&#10;257.46,28.31&#10;258.81,28.13&#10;260.15,27.99&#10;261.49,27.93&#10;262.83,28&#10;264.18,28.12&#10;265.52,28.18&#10;266.86,28.15&#10;268.2,27.82&#10;269.54,27.1&#10;270.89,25.99&#10;272.23,24.81&#10;273.57,23.8&#10;274.91,23.36&#10;276.26,22.91&#10;277.6,22.61&#10;278.94,22.35&#10;280.28,22.6&#10;281.63,23.14&#10;282.97,22.6&#10;284.31,21.65&#10;285.65,21.53&#10;287,21.63&#10;288.34,21.94&#10;289.68,22.62&#10;291.02,23.49&#10;292.36,23.88&#10;293.71,24.05&#10;295.05,23.93&#10;296.39,23.84&#10;297.73,24.08&#10;299.08,24.75&#10;300.42,25.47&#10;301.76,26.03&#10;303.1,26.33&#10;304.45,26.76&#10;305.79,27.39&#10;307.13,27.65&#10;308.47,27.5&#10;309.82,27.18&#10;311.16,27.25&#10;312.5,27.5&#10;313.84,27.82&#10;315.18,28.11&#10;316.53,28.43&#10;317.87,28.57&#10;319.21,28.6&#10;320.55,28.62&#10;321.9,28.61&#10;323.24,28.63&#10;324.58,28.65&#10;325.92,28.65&#10;327.27,28.66&#10;328.61,28.68&#10;329.95,28.68&#10;331.29,28.68&#10;332.64,28.69&#10;333.98,28.69&#10;335.32,28.69&#10;336.66,28.7&#10;338,28.7&#10;339.35,28.7&#10;340.69,28.7&#10;342.03,28.7&#10;342.03,28.7"/><polyline class="range" points="260.15,33.01&#10;260.15,34.44&#10;262.7,34.44&#10;262.7,33.01"/><polyline class="range" points="267.53,33.01&#10;267.53,34.44&#10;314.65,34.44&#10;314.65,33.01"/></g><g id="itemarea8" transform="translate(0 158.86)"><polygon class="shadow" points="184.98,28.7&#10;184.98,28.7&#10;186.32,28.7&#10;187.66,28.7&#10;189,28.7&#10;190.35,28.7&#10;191.69,28.7&#10;193.03,28.7&#10;194.37,28.7&#10;195.72,28.7&#10;197.06,28.7&#10;198.4,28.7&#10;199.74,28.7&#10;201.08,28.7&#10;202.43,28.7&#10;203.77,28.7&#10;205.11,28.7&#10;206.45,28.7&#10;207.8,28.7&#10;209.14,28.7&#10;210.48,28.7&#10;211.82,28.7&#10;213.17,28.7&#10;214.51,28.7&#10;215.85,28.7&#10;217.19,28.7&#10;218.54,28.7&#10;219.88,28.7&#10;221.22,28.7&#10;222.56,28.7&#10;223.9,28.7&#10;225.25,28.7&#10;226.59,28.7&#10;227.93,28.7&#10;229.27,28.7&#10;230.62,28.7&#10;231.96,28.7&#10;233.3,28.7&#10;234.64,28.7&#10;235.99,28.7&#10;237.33,28.69&#10;238.67,28.68&#10;240.01,28.66&#10;241.36,28.66&#10;242.7,28.64&#10;244.04,28.61&#10;245.38,28.61&#10;246.72,28.62&#10;248.07,28.64&#10;249.41,28.65&#10;250.75,28.64&#10;252.09,28.63&#10;253.44,28.62&#10;254.78,28.61&#10;256.12,28.57&#10;257.46,28.5&#10;258.81,28.38&#10;260.15,28.28&#10;261.49,28.32&#10;262.83,28.42&#10;264.18,28.51&#10;265.52,28.57&#10;266.86,28.58&#10;268.2,28.49&#10;269.54,28.19&#10;270.89,27.58&#10;272.23,26.63&#10;273.57,25.58&#10;274.91,25.03&#10;276.26,24.97&#10;277.6,24.84&#10;278.94,25.12&#10;280.28,26.29&#10;281.63,26.99&#10;282.97,26.65&#10;284.31,25.42&#10;285.65,24.54&#10;287,24.21&#10;288.34,23.69&#10;289.68,22.76&#10;291.02,22.08&#10;292.36,21.93&#10;293.71,22.05&#10;295.05,22.32&#10;296.39,22.68&#10;297.73,22.64&#10;299.08,22.06&#10;300.42,21.66&#10;301.76,21.54&#10;303.1,21.53&#10;304.45,21.57&#10;305.79,22.06&#10;307.13,22.53&#10;308.47,21.94&#10;309.82,21.54&#10;311.16,21.53&#10;312.5,21.61&#10;313.84,21.83&#10;315.18,22.46&#10;316.53,24.05&#10;317.87,25.52&#10;319.21,25.96&#10;320.55,25.71&#10;321.9,25.39&#10;323.24,25.28&#10;324.58,25.49&#10;325.92,25.74&#10;327.27,25.87&#10;328.61,26.07&#10;329.95,26.12&#10;331.29,26.12&#10;332.64,26.02&#10;333.98,25.71&#10;335.32,25.46&#10;336.66,25.63&#10;338,26.35&#10;339.35,27.18&#10;340.69,27.78&#10;342.03,28.04&#10;343.37,28.1&#10;344.72,28.17&#10;346.06,28.4&#10;347.4,28.58&#10;348.74,28.65&#10;350.09,28.68&#10;351.43,28.69&#10;352.77,28.7&#10;354.11,28.7&#10;355.46,28.7&#10;356.8,28.7&#10;358.14,28.7&#10;359.48,28.69&#10;360.83,28.69&#10;362.17,28.68&#10;363.51,28.67&#10;364.85,28.67&#10;366.19,28.68&#10;367.54,28.68&#10;368.88,28.69&#10;370.22,28.69&#10;371.56,28.7&#10;372.91,28.7&#10;374.25,28.7&#10;375.59,28.7&#10;376.93,28.7&#10;378.28,28.7&#10;379.62,28.7&#10;380.96,28.7&#10;382.3,28.7&#10;383.65,28.7&#10;384.99,28.7&#10;386.33,28.7&#10;387.67,28.7&#10;389.01,28.7&#10;390.36,28.7&#10;391.7,28.7&#10;393.04,28.7&#10;394.38,28.7&#10;394.38,28.7"/><polygon class="main" points="234.64,28.7&#10;234.64,28.7&#10;235.99,28.7&#10;237.33,28.7&#10;238.67,28.7&#10;240.01,28.7&#10;241.36,28.7&#10;242.7,28.7&#10;244.04,28.69&#10;245.38,28.69&#10;246.72,28.68&#10;248.07,28.69&#10;249.41,28.69&#10;250.75,28.69&#10;252.09,28.68&#10;253.44,28.68&#10;254.78,28.67&#10;256.12,28.66&#10;257.46,28.63&#10;258.81,28.56&#10;260.15,28.53&#10;261.49,28.51&#10;262.83,28.56&#10;264.18,28.59&#10;265.52,28.61&#10;266.86,28.61&#10;268.2,28.53&#10;269.54,28.27&#10;270.89,27.57&#10;272.23,26.34&#10;273.57,25.01&#10;274.91,24.22&#10;276.26,23.88&#10;277.6,23.48&#10;278.94,23.54&#10;280.28,24.83&#10;281.63,25.7&#10;282.97,25.12&#10;284.31,23.57&#10;285.65,22.62&#10;287,22.38&#10;288.34,22.13&#10;289.68,21.7&#10;291.02,21.53&#10;292.36,21.9&#10;293.71,22.29&#10;295.05,22.81&#10;296.39,23.29&#10;297.73,23.58&#10;299.08,23.66&#10;300.42,23.77&#10;301.76,24.06&#10;303.1,24.49&#10;304.45,24.87&#10;305.79,25.33&#10;307.13,25.69&#10;308.47,25.79&#10;309.82,25.81&#10;311.16,26.02&#10;312.5,26.35&#10;313.84,26.65&#10;315.18,26.98&#10;316.53,27.6&#10;317.87,28.02&#10;319.21,28.18&#10;320.55,28.22&#10;321.9,28.23&#10;323.24,28.29&#10;324.58,28.4&#10;325.92,28.45&#10;327.27,28.5&#10;328.61,28.54&#10;329.95,28.58&#10;331.29,28.6&#10;332.64,28.62&#10;333.98,28.63&#10;335.32,28.66&#10;336.66,28.67&#10;338,28.68&#10;339.35,28.7&#10;340.69,28.7&#10;342.03,28.7&#10;343.37,28.7&#10;343.37,28.7"/><polyline class="range" points="270.89,33.01&#10;270.89,34.44&#10;316.53,34.44&#10;316.53,33.01"/></g><g id="itemarea9" transform="translate(0 182.6)"><polygon class="shadow" points="187.66,28.7&#10;187.66,28.7&#10;189,28.7&#10;190.35,28.7&#10;191.69,28.7&#10;193.03,28.7&#10;194.37,28.7&#10;195.72,28.7&#10;197.06,28.7&#10;198.4,28.7&#10;199.74,28.7&#10;201.08,28.7&#10;202.43,28.7&#10;203.77,28.7&#10;205.11,28.7&#10;206.45,28.7&#10;207.8,28.7&#10;209.14,28.7&#10;210.48,28.7&#10;211.82,28.7&#10;213.17,28.7&#10;214.51,28.7&#10;215.85,28.7&#10;217.19,28.7&#10;218.54,28.7&#10;219.88,28.7&#10;221.22,28.7&#10;222.56,28.7&#10;223.9,28.7&#10;225.25,28.7&#10;226.59,28.7&#10;227.93,28.7&#10;229.27,28.7&#10;230.62,28.7&#10;231.96,28.7&#10;233.3,28.7&#10;234.64,28.7&#10;235.99,28.7&#10;237.33,28.7&#10;238.67,28.7&#10;240.01,28.7&#10;241.36,28.7&#10;242.7,28.7&#10;244.04,28.7&#10;245.38,28.7&#10;246.72,28.7&#10;248.07,28.7&#10;249.41,28.7&#10;250.75,28.7&#10;252.09,28.7&#10;253.44,28.7&#10;254.78,28.7&#10;256.12,28.69&#10;257.46,28.69&#10;258.81,28.68&#10;260.15,28.67&#10;261.49,28.68&#10;262.83,28.68&#10;264.18,28.69&#10;265.52,28.69&#10;266.86,28.7&#10;268.2,28.69&#10;269.54,28.66&#10;270.89,28.59&#10;272.23,28.41&#10;273.57,28.13&#10;274.91,27.94&#10;276.26,27.91&#10;277.6,27.86&#10;278.94,27.96&#10;280.28,28.33&#10;281.63,28.48&#10;282.97,28.41&#10;284.31,28.07&#10;285.65,27.73&#10;287,27.58&#10;288.34,27.3&#10;289.68,26.62&#10;291.02,25.86&#10;292.36,25.64&#10;293.71,25.82&#10;295.05,26.17&#10;296.39,26.55&#10;297.73,26.51&#10;299.08,25.84&#10;300.42,25.04&#10;301.76,24.48&#10;303.1,24.33&#10;304.45,23.73&#10;305.79,22.62&#10;307.13,22.15&#10;308.47,22.8&#10;309.82,23.91&#10;311.16,24.13&#10;312.5,23.53&#10;313.84,22.97&#10;315.18,22.2&#10;316.53,21.53&#10;317.87,21.85&#10;319.21,22.12&#10;320.55,21.99&#10;321.9,21.83&#10;323.24,21.78&#10;324.58,21.87&#10;325.92,22.01&#10;327.27,22.1&#10;328.61,22.24&#10;329.95,22.28&#10;331.29,22.28&#10;332.64,22.21&#10;333.98,21.99&#10;335.32,21.86&#10;336.66,21.95&#10;338,22.48&#10;339.35,23.48&#10;340.69,24.62&#10;342.03,25.28&#10;343.37,25.42&#10;344.72,25.66&#10;346.06,26.51&#10;347.4,27.46&#10;348.74,28.04&#10;350.09,28.35&#10;351.43,28.54&#10;352.77,28.66&#10;354.11,28.69&#10;355.46,28.69&#10;356.8,28.68&#10;358.14,28.63&#10;359.48,28.55&#10;360.83,28.46&#10;362.17,28.34&#10;363.51,28.17&#10;364.85,28.21&#10;366.19,28.34&#10;367.54,28.4&#10;368.88,28.47&#10;370.22,28.55&#10;371.56,28.63&#10;372.91,28.65&#10;374.25,28.67&#10;375.59,28.68&#10;376.93,28.69&#10;378.28,28.69&#10;379.62,28.69&#10;380.96,28.7&#10;382.3,28.7&#10;383.65,28.7&#10;384.99,28.7&#10;386.33,28.7&#10;387.67,28.7&#10;389.01,28.7&#10;390.36,28.7&#10;391.7,28.7&#10;393.04,28.7&#10;394.38,28.7&#10;395.73,28.7&#10;397.07,28.7&#10;398.41,28.7&#10;398.41,28.7"/><polygon class="main" points="245.38,28.7&#10;245.38,28.7&#10;246.72,28.7&#10;248.07,28.7&#10;249.41,28.7&#10;250.75,28.7&#10;252.09,28.7&#10;253.44,28.7&#10;254.78,28.7&#10;256.12,28.69&#10;257.46,28.69&#10;258.81,28.68&#10;260.15,28.66&#10;261.49,28.66&#10;262.83,28.68&#10;264.18,28.68&#10;265.52,28.69&#10;266.86,28.69&#10;268.2,28.67&#10;269.54,28.58&#10;270.89,28.3&#10;272.23,27.56&#10;273.57,26.42&#10;274.91,25.59&#10;276.26,25.24&#10;277.6,24.86&#10;278.94,25.21&#10;280.28,26.46&#10;281.63,27.31&#10;282.97,26.84&#10;284.31,25.51&#10;285.65,24.53&#10;287,24.17&#10;288.34,23.6&#10;289.68,22.61&#10;291.02,21.53&#10;292.36,21.66&#10;293.71,22.47&#10;295.05,23.65&#10;296.39,24.55&#10;297.73,24.74&#10;299.08,24.32&#10;300.42,23.83&#10;301.76,23.71&#10;303.1,23.89&#10;304.45,23.83&#10;305.79,23.44&#10;307.13,23.72&#10;308.47,24.44&#10;309.82,25.47&#10;311.16,26.04&#10;312.5,26.09&#10;313.84,26.12&#10;315.18,26.09&#10;316.53,26.3&#10;317.87,26.75&#10;319.21,27.08&#10;320.55,27.34&#10;321.9,27.49&#10;323.24,27.68&#10;324.58,27.87&#10;325.92,28.03&#10;327.27,28.17&#10;328.61,28.31&#10;329.95,28.37&#10;331.29,28.43&#10;332.64,28.5&#10;333.98,28.54&#10;335.32,28.59&#10;336.66,28.63&#10;338,28.66&#10;339.35,28.68&#10;340.69,28.69&#10;342.03,28.7&#10;343.37,28.7&#10;344.72,28.7&#10;346.06,28.7&#10;347.4,28.7&#10;347.4,28.7"/><polyline class="range" points="272.23,33.01&#10;272.23,34.44&#10;322.17,34.44&#10;322.17,33.01"/></g><g id="itemarea10" transform="translate(0 206.34)"><polygon class="main" points="256.12,28.71&#10;256.12,28.71&#10;257.46,28.7&#10;258.81,28.71&#10;260.15,28.7&#10;261.49,28.7&#10;262.83,28.7&#10;264.18,28.71&#10;265.52,28.71&#10;266.86,28.71&#10;268.2,28.71&#10;269.54,28.71&#10;270.89,28.68&#10;272.23,28.59&#10;273.57,28.33&#10;274.91,27.95&#10;276.26,27.86&#10;277.6,27.5&#10;278.94,27.28&#10;280.28,26.82&#10;281.63,26.68&#10;282.97,26.45&#10;284.31,25.99&#10;285.65,25.63&#10;287,25.45&#10;288.34,24.94&#10;289.68,24.61&#10;291.02,24.26&#10;292.36,24.02&#10;293.71,23.84&#10;295.05,23.51&#10;296.39,23.47&#10;297.73,23.08&#10;299.08,22.98&#10;300.42,22.74&#10;301.76,22.79&#10;303.1,22.59&#10;304.45,22.43&#10;305.79,22.42&#10;307.13,22.37&#10;308.47,22.4&#10;309.82,22.22&#10;311.16,22.05&#10;312.5,21.99&#10;313.84,21.65&#10;315.18,21.53&#10;316.53,21.57&#10;317.87,21.94&#10;319.21,22.54&#10;320.55,23.15&#10;321.9,23.51&#10;323.24,23.83&#10;324.58,24.34&#10;325.92,24.66&#10;327.27,24.94&#10;328.61,25.42&#10;329.95,25.82&#10;331.29,26.17&#10;332.64,26.48&#10;333.98,26.79&#10;335.32,27.02&#10;336.66,27.35&#10;338,27.65&#10;339.35,28.05&#10;340.69,28.35&#10;342.03,28.48&#10;343.37,28.59&#10;344.72,28.66&#10;346.06,28.69&#10;347.4,28.7&#10;348.74,28.71&#10;350.09,28.71&#10;350.09,28.71"/><polyline class="range" points="279.61,33.01&#10;279.61,34.45&#10;335.45,34.45&#10;335.45,33.01"/></g><g id="itemarea11" transform="translate(0 230.08)"/><g id="itemarea12" transform="translate(0 253.83)"><polygon class="shadow" points="268.2,28.7&#10;268.2,28.7&#10;269.54,28.7&#10;270.89,28.7&#10;272.23,28.7&#10;273.57,28.7&#10;274.91,28.7&#10;276.26,28.7&#10;277.6,28.7&#10;278.94,28.7&#10;280.28,28.7&#10;281.63,28.7&#10;282.97,28.7&#10;284.31,28.7&#10;285.65,28.7&#10;287,28.69&#10;288.34,28.69&#10;289.68,28.65&#10;291.02,28.56&#10;292.36,28.52&#10;293.71,28.56&#10;295.05,28.61&#10;296.39,28.64&#10;297.73,28.64&#10;299.08,28.56&#10;300.42,28.37&#10;301.76,28.16&#10;303.1,28.09&#10;304.45,27.73&#10;305.79,26.52&#10;307.13,25.61&#10;308.47,26.78&#10;309.82,27.85&#10;311.16,27.99&#10;312.5,27.56&#10;313.84,27&#10;315.18,25.73&#10;316.53,23.02&#10;317.87,21.58&#10;319.21,21.53&#10;320.55,21.62&#10;321.9,21.72&#10;323.24,21.77&#10;324.58,21.67&#10;325.92,21.61&#10;327.27,21.61&#10;328.61,21.65&#10;329.95,21.67&#10;331.29,21.67&#10;332.64,21.63&#10;333.98,21.62&#10;335.32,21.69&#10;336.66,21.63&#10;338,21.79&#10;339.35,22.97&#10;340.69,24.75&#10;342.03,25.77&#10;343.37,26.01&#10;344.72,26.33&#10;346.06,27.45&#10;347.4,28.3&#10;348.74,28.6&#10;350.09,28.68&#10;351.43,28.7&#10;352.77,28.7&#10;354.11,28.7&#10;355.46,28.7&#10;356.8,28.7&#10;358.14,28.7&#10;359.48,28.7&#10;360.83,28.69&#10;362.17,28.67&#10;363.51,28.64&#10;364.85,28.65&#10;366.19,28.67&#10;367.54,28.68&#10;368.88,28.69&#10;370.22,28.7&#10;371.56,28.7&#10;372.91,28.7&#10;374.25,28.7&#10;375.59,28.7&#10;376.93,28.7&#10;378.28,28.7&#10;379.62,28.7&#10;379.62,28.7"/><polygon class="main" points="285.65,28.7&#10;285.65,28.7&#10;287,28.7&#10;288.34,28.7&#10;289.68,28.69&#10;291.02,28.67&#10;292.36,28.66&#10;293.71,28.65&#10;295.05,28.67&#10;296.39,28.68&#10;297.73,28.67&#10;299.08,28.64&#10;300.42,28.54&#10;301.76,28.41&#10;303.1,28.34&#10;304.45,28.02&#10;305.79,27.33&#10;307.13,26.7&#10;308.47,27.3&#10;309.82,27.93&#10;311.16,28.03&#10;312.5,27.7&#10;313.84,27.08&#10;315.18,25.76&#10;316.53,23.37&#10;317.87,21.74&#10;319.21,21.62&#10;320.55,21.53&#10;321.9,21.68&#10;323.24,21.72&#10;324.58,21.55&#10;325.92,21.59&#10;327.27,21.61&#10;328.61,21.76&#10;329.95,21.99&#10;331.29,22.14&#10;332.64,22.33&#10;333.98,22.57&#10;335.32,22.92&#10;336.66,23.34&#10;338,24&#10;339.35,25.35&#10;340.69,26.82&#10;342.03,27.7&#10;343.37,28.1&#10;344.72,28.41&#10;346.06,28.63&#10;347.4,28.69&#10;348.74,28.7&#10;350.09,28.7&#10;351.43,28.7&#10;351.43,28.7"/><polyline class="range" points="305.25,33.01&#10;305.25,34.44&#10;309.14,34.44&#10;309.14,33.01"/><polyline class="range" points="312.63,33.01&#10;312.63,34.44&#10;341.9,34.44&#10;341.9,33.01"/></g><g id="itemarea16" transform="translate(0 277.57)"><polygon class="main" points="295.05,28.7&#10;295.05,28.7&#10;296.39,28.7&#10;297.73,28.7&#10;299.08,28.7&#10;300.42,28.7&#10;301.76,28.69&#10;303.1,28.69&#10;304.45,28.68&#10;305.79,28.67&#10;307.13,28.64&#10;308.47,28.62&#10;309.82,28.6&#10;311.16,28.59&#10;312.5,28.57&#10;313.84,28.53&#10;315.18,28.48&#10;316.53,28.36&#10;317.87,28.16&#10;319.21,27.99&#10;320.55,27.82&#10;321.9,27.66&#10;323.24,27.44&#10;324.58,27.25&#10;325.92,27.05&#10;327.27,26.8&#10;328.61,26.59&#10;329.95,26.33&#10;331.29,26.05&#10;332.64,25.8&#10;333.98,25.37&#10;335.32,24.72&#10;336.66,23.97&#10;338,22.75&#10;339.35,21.85&#10;340.69,21.53&#10;342.03,22&#10;343.37,23.07&#10;344.72,24.47&#10;346.06,26.21&#10;347.4,27.94&#10;348.74,28.61&#10;350.09,28.69&#10;351.43,28.7&#10;352.77,28.7&#10;354.11,28.7&#10;355.46,28.7&#10;356.8,28.69&#10;358.14,28.69&#10;359.48,28.68&#10;360.83,28.67&#10;362.17,28.67&#10;363.51,28.67&#10;364.85,28.68&#10;366.19,28.69&#10;367.54,28.7&#10;368.88,28.7&#10;368.88,28.7"/><polyline class="range" points="319.61,33.01&#10;319.61,34.44&#10;347.4,34.44&#10;347.4,33.01"/></g><g id="itemarea17" transform="translate(0 301.31)"/><g id="itemarea18" transform="translate(0 325.05)"><polygon class="main" points="301.76,28.7&#10;301.76,28.7&#10;303.1,28.7&#10;304.45,28.7&#10;305.79,28.7&#10;307.13,28.7&#10;308.47,28.7&#10;309.82,28.69&#10;311.16,28.69&#10;312.5,28.69&#10;313.84,28.69&#10;315.18,28.68&#10;316.53,28.67&#10;317.87,28.67&#10;319.21,28.65&#10;320.55,28.63&#10;321.9,28.6&#10;323.24,28.56&#10;324.58,28.52&#10;325.92,28.47&#10;327.27,28.41&#10;328.61,28.32&#10;329.95,28.24&#10;331.29,28.13&#10;332.64,27.98&#10;333.98,27.83&#10;335.32,27.62&#10;336.66,27.34&#10;338,26.91&#10;339.35,26.18&#10;340.69,25.05&#10;342.03,23.75&#10;343.37,22.72&#10;344.72,21.97&#10;346.06,21.53&#10;347.4,22.51&#10;348.74,24.3&#10;350.09,25.59&#10;351.43,26.44&#10;352.77,27.01&#10;354.11,27.42&#10;355.46,27.63&#10;356.8,27.81&#10;358.14,27.9&#10;359.48,27.99&#10;360.83,28.04&#10;362.17,28.1&#10;363.51,28.17&#10;364.85,28.22&#10;366.19,28.3&#10;367.54,28.35&#10;368.88,28.41&#10;370.22,28.45&#10;371.56,28.49&#10;372.91,28.53&#10;374.25,28.55&#10;375.59,28.59&#10;376.93,28.6&#10;378.28,28.63&#10;379.62,28.63&#10;380.96,28.64&#10;382.3,28.65&#10;383.65,28.66&#10;384.99,28.67&#10;386.33,28.67&#10;387.67,28.68&#10;389.01,28.68&#10;390.36,28.68&#10;391.7,28.69&#10;393.04,28.69&#10;394.38,28.69&#10;395.73,28.69&#10;397.07,28.69&#10;398.41,28.69&#10;399.75,28.69&#10;401.1,28.69&#10;402.44,28.7&#10;403.78,28.7&#10;405.12,28.7&#10;406.47,28.7&#10;407.81,28.7&#10;409.15,28.7&#10;410.49,28.7&#10;411.83,28.7&#10;413.18,28.7&#10;414.52,28.7&#10;415.86,28.7&#10;417.2,28.7&#10;418.55,28.7&#10;419.89,28.7&#10;421.23,28.7&#10;422.57,28.7&#10;423.92,28.7&#10;425.26,28.7&#10;426.6,28.7&#10;427.94,28.7&#10;429.29,28.7&#10;430.63,28.7&#10;431.97,28.7&#10;433.31,28.7&#10;433.31,28.7"/><polyline class="range" points="327.27,33.01&#10;327.27,34.44&#10;368.88,34.44&#10;368.88,33.01"/></g><g id="itemarea19" transform="translate(0 348.79)"/><g id="itemarea20" transform="translate(0 372.53)"><polygon class="shadow" points="270.89,28.71&#10;270.89,28.71&#10;272.23,28.71&#10;273.57,28.7&#10;274.91,28.7&#10;276.26,28.7&#10;277.6,28.7&#10;278.94,28.7&#10;280.28,28.71&#10;281.63,28.71&#10;282.97,28.71&#10;284.31,28.7&#10;285.65,28.7&#10;287,28.7&#10;288.34,28.7&#10;289.68,28.7&#10;291.02,28.7&#10;292.36,28.7&#10;293.71,28.7&#10;295.05,28.7&#10;296.39,28.7&#10;297.73,28.7&#10;299.08,28.7&#10;300.42,28.69&#10;301.76,28.68&#10;303.1,28.68&#10;304.45,28.65&#10;305.79,28.52&#10;307.13,28.35&#10;308.47,28.55&#10;309.82,28.66&#10;311.16,28.67&#10;312.5,28.64&#10;313.84,28.58&#10;315.18,28.38&#10;316.53,27.48&#10;317.87,25.79&#10;319.21,25.06&#10;320.55,25.45&#10;321.9,25.92&#10;323.24,26.08&#10;324.58,25.78&#10;325.92,25.4&#10;327.27,25.17&#10;328.61,24.84&#10;329.95,24.73&#10;331.29,24.73&#10;332.64,24.92&#10;333.98,25.45&#10;335.32,25.82&#10;336.66,25.56&#10;338,24.31&#10;339.35,22.63&#10;340.69,21.64&#10;342.03,21.58&#10;343.37,21.53&#10;344.72,21.74&#10;346.06,22.62&#10;347.4,24.79&#10;348.74,26.69&#10;350.09,27.77&#10;351.43,28.4&#10;352.77,28.67&#10;354.11,28.7&#10;355.46,28.7&#10;356.8,28.69&#10;358.14,28.61&#10;359.48,28.41&#10;360.83,28.14&#10;362.17,27.76&#10;363.51,27.16&#10;364.85,27.29&#10;366.19,27.75&#10;367.54,27.95&#10;368.88,28.18&#10;370.22,28.43&#10;371.56,28.62&#10;372.91,28.65&#10;374.25,28.69&#10;375.59,28.69&#10;376.93,28.7&#10;378.28,28.7&#10;379.62,28.7&#10;380.96,28.7&#10;382.3,28.7&#10;383.65,28.7&#10;384.99,28.7&#10;386.33,28.7&#10;387.67,28.7&#10;389.01,28.7&#10;390.36,28.7&#10;391.7,28.7&#10;393.04,28.71&#10;394.38,28.71&#10;395.73,28.71&#10;395.73,28.71"/><polygon class="main" points="312.5,28.71&#10;312.5,28.71&#10;313.84,28.7&#10;315.18,28.7&#10;316.53,28.7&#10;317.87,28.68&#10;319.21,28.66&#10;320.55,28.64&#10;321.9,28.64&#10;323.24,28.62&#10;324.58,28.58&#10;325.92,28.53&#10;327.27,28.45&#10;328.61,28.38&#10;329.95,28.29&#10;331.29,28.2&#10;332.64,28.12&#10;333.98,28.08&#10;335.32,28.03&#10;336.66,27.78&#10;338,27.12&#10;339.35,25.92&#10;340.69,24.49&#10;342.03,23.17&#10;343.37,22.19&#10;344.72,21.53&#10;346.06,21.71&#10;347.4,24.25&#10;348.74,26.79&#10;350.09,28.05&#10;351.43,28.54&#10;352.77,28.68&#10;354.11,28.7&#10;355.46,28.7&#10;356.8,28.7&#10;358.14,28.68&#10;359.48,28.64&#10;360.83,28.59&#10;362.17,28.52&#10;363.51,28.44&#10;364.85,28.46&#10;366.19,28.56&#10;367.54,28.61&#10;368.88,28.65&#10;370.22,28.68&#10;371.56,28.7&#10;372.91,28.7&#10;374.25,28.7&#10;375.59,28.7&#10;376.93,28.71&#10;376.93,28.71"/><polyline class="range" points="327.4,33.01&#10;327.4,34.45&#10;351.16,34.45&#10;351.16,33.01"/></g><g id="itemarea21" transform="translate(0 396.28)"><polygon class="shadow" points="269.54,28.7&#10;269.54,28.7&#10;270.89,28.7&#10;272.23,28.7&#10;273.57,28.7&#10;274.91,28.7&#10;276.26,28.7&#10;277.6,28.7&#10;278.94,28.7&#10;280.28,28.7&#10;281.63,28.7&#10;282.97,28.7&#10;284.31,28.7&#10;285.65,28.7&#10;287,28.7&#10;288.34,28.7&#10;289.68,28.7&#10;291.02,28.69&#10;292.36,28.69&#10;293.71,28.69&#10;295.05,28.69&#10;296.39,28.7&#10;297.73,28.7&#10;299.08,28.69&#10;300.42,28.67&#10;301.76,28.64&#10;303.1,28.63&#10;304.45,28.57&#10;305.79,28.29&#10;307.13,27.99&#10;308.47,28.36&#10;309.82,28.59&#10;311.16,28.62&#10;312.5,28.54&#10;313.84,28.42&#10;315.18,28.04&#10;316.53,26.59&#10;317.87,24.44&#10;319.21,23.66&#10;320.55,24.09&#10;321.9,24.62&#10;323.24,24.81&#10;324.58,24.47&#10;325.92,24.04&#10;327.27,23.81&#10;328.61,23.47&#10;329.95,23.37&#10;331.29,23.37&#10;332.64,23.55&#10;333.98,24.1&#10;335.32,24.51&#10;336.66,24.22&#10;338,22.97&#10;339.35,21.71&#10;340.69,21.53&#10;342.03,21.97&#10;343.37,22.04&#10;344.72,22.41&#10;346.06,23.79&#10;347.4,26.01&#10;348.74,27.52&#10;350.09,28.22&#10;351.43,28.56&#10;352.77,28.69&#10;354.11,28.7&#10;355.46,28.7&#10;356.8,28.7&#10;358.14,28.66&#10;359.48,28.57&#10;360.83,28.43&#10;362.17,28.21&#10;363.51,27.84&#10;364.85,27.92&#10;366.19,28.21&#10;367.54,28.33&#10;368.88,28.45&#10;370.22,28.58&#10;371.56,28.67&#10;372.91,28.68&#10;374.25,28.69&#10;375.59,28.7&#10;376.93,28.7&#10;378.28,28.7&#10;379.62,28.7&#10;380.96,28.7&#10;382.3,28.7&#10;383.65,28.7&#10;384.99,28.7&#10;386.33,28.7&#10;387.67,28.7&#10;389.01,28.7&#10;390.36,28.7&#10;391.7,28.7&#10;393.04,28.7&#10;394.38,28.7&#10;394.38,28.7"/><polygon class="main" points="309.82,28.7&#10;309.82,28.7&#10;311.16,28.7&#10;312.5,28.7&#10;313.84,28.7&#10;315.18,28.7&#10;316.53,28.69&#10;317.87,28.67&#10;319.21,28.64&#10;320.55,28.63&#10;321.9,28.61&#10;323.24,28.57&#10;324.58,28.54&#10;325.92,28.47&#10;327.27,28.38&#10;328.61,28.3&#10;329.95,28.18&#10;331.29,28.04&#10;332.64,27.96&#10;333.98,27.88&#10;335.32,27.76&#10;336.66,27.43&#10;338,26.66&#10;339.35,25.53&#10;340.69,24.27&#10;342.03,23.18&#10;343.37,22.12&#10;344.72,21.53&#10;346.06,22.28&#10;347.4,25.03&#10;348.74,27.37&#10;350.09,28.31&#10;351.43,28.62&#10;352.77,28.69&#10;354.11,28.7&#10;355.46,28.7&#10;356.8,28.7&#10;358.14,28.69&#10;359.48,28.67&#10;360.83,28.64&#10;362.17,28.6&#10;363.51,28.54&#10;364.85,28.56&#10;366.19,28.61&#10;367.54,28.64&#10;368.88,28.67&#10;370.22,28.69&#10;371.56,28.7&#10;372.91,28.7&#10;374.25,28.7&#10;375.59,28.7&#10;376.93,28.7&#10;376.93,28.7"/><polyline class="range" points="328.21,33.01&#10;328.21,34.44&#10;350.09,34.44&#10;350.09,33.01"/></g><g id="itemarea22" transform="translate(0 420.02)"><polygon class="shadow" points="268.2,28.7&#10;268.2,28.7&#10;269.54,28.7&#10;270.89,28.7&#10;272.23,28.7&#10;273.57,28.7&#10;274.91,28.7&#10;276.26,28.7&#10;277.6,28.7&#10;278.94,28.7&#10;280.28,28.7&#10;281.63,28.7&#10;282.97,28.7&#10;284.31,28.7&#10;285.65,28.7&#10;287,28.7&#10;288.34,28.7&#10;289.68,28.69&#10;291.02,28.67&#10;292.36,28.66&#10;293.71,28.67&#10;295.05,28.68&#10;296.39,28.69&#10;297.73,28.69&#10;299.08,28.67&#10;300.42,28.62&#10;301.76,28.56&#10;303.1,28.54&#10;304.45,28.42&#10;305.79,27.9&#10;307.13,27.42&#10;308.47,28.02&#10;309.82,28.46&#10;311.16,28.5&#10;312.5,28.35&#10;313.84,28.12&#10;315.18,27.49&#10;316.53,25.48&#10;317.87,23.17&#10;319.21,22.49&#10;320.55,22.89&#10;321.9,23.37&#10;323.24,23.55&#10;324.58,23.22&#10;325.92,22.85&#10;327.27,22.65&#10;328.61,22.39&#10;329.95,22.31&#10;331.29,22.31&#10;332.64,22.44&#10;333.98,22.89&#10;335.32,23.27&#10;336.66,23&#10;338,22.03&#10;339.35,21.53&#10;340.69,22.2&#10;342.03,23.04&#10;343.37,23.21&#10;344.72,23.64&#10;346.06,25.17&#10;347.4,27.06&#10;348.74,28.09&#10;350.09,28.48&#10;351.43,28.65&#10;352.77,28.7&#10;354.11,28.7&#10;355.46,28.7&#10;356.8,28.7&#10;358.14,28.69&#10;359.48,28.65&#10;360.83,28.59&#10;362.17,28.48&#10;363.51,28.27&#10;364.85,28.32&#10;366.19,28.48&#10;367.54,28.54&#10;368.88,28.6&#10;370.22,28.65&#10;371.56,28.69&#10;372.91,28.69&#10;374.25,28.7&#10;375.59,28.7&#10;376.93,28.7&#10;378.28,28.7&#10;379.62,28.7&#10;380.96,28.7&#10;382.3,28.7&#10;383.65,28.7&#10;384.99,28.7&#10;386.33,28.7&#10;387.67,28.7&#10;389.01,28.7&#10;390.36,28.7&#10;391.7,28.7&#10;393.04,28.7&#10;394.38,28.7&#10;394.38,28.7"/><polygon class="main" points="303.1,28.7&#10;303.1,28.7&#10;304.45,28.7&#10;305.79,28.7&#10;307.13,28.7&#10;308.47,28.7&#10;309.82,28.7&#10;311.16,28.7&#10;312.5,28.7&#10;313.84,28.7&#10;315.18,28.69&#10;316.53,28.68&#10;317.87,28.66&#10;319.21,28.63&#10;320.55,28.6&#10;321.9,28.59&#10;323.24,28.55&#10;324.58,28.5&#10;325.92,28.41&#10;327.27,28.33&#10;328.61,28.21&#10;329.95,28.09&#10;331.29,27.94&#10;332.64,27.79&#10;333.98,27.64&#10;335.32,27.44&#10;336.66,27&#10;338,26.19&#10;339.35,25.07&#10;340.69,24.09&#10;342.03,23.21&#10;343.37,22.07&#10;344.72,21.53&#10;346.06,22.61&#10;347.4,25.57&#10;348.74,27.73&#10;350.09,28.45&#10;351.43,28.65&#10;352.77,28.7&#10;354.11,28.7&#10;355.46,28.7&#10;356.8,28.7&#10;358.14,28.7&#10;359.48,28.68&#10;360.83,28.67&#10;362.17,28.63&#10;363.51,28.58&#10;364.85,28.6&#10;366.19,28.64&#10;367.54,28.66&#10;368.88,28.68&#10;370.22,28.69&#10;371.56,28.7&#10;372.91,28.7&#10;374.25,28.7&#10;375.59,28.7&#10;376.93,28.7&#10;376.93,28.7"/><polyline class="range" points="327.8,33.01&#10;327.8,34.44&#10;349.82,34.44&#10;349.82,33.01"/></g><g id="itemarea23" transform="translate(0 443.76)"><polygon class="main" points="303.1,28.7&#10;303.1,28.7&#10;304.45,28.7&#10;305.79,28.7&#10;307.13,28.7&#10;308.47,28.7&#10;309.82,28.69&#10;311.16,28.69&#10;312.5,28.69&#10;313.84,28.69&#10;315.18,28.68&#10;316.53,28.67&#10;317.87,28.66&#10;319.21,28.65&#10;320.55,28.63&#10;321.9,28.6&#10;323.24,28.57&#10;324.58,28.53&#10;325.92,28.47&#10;327.27,28.41&#10;328.61,28.34&#10;329.95,28.23&#10;331.29,28.13&#10;332.64,28&#10;333.98,27.83&#10;335.32,27.62&#10;336.66,27.31&#10;338,26.87&#10;339.35,26.16&#10;340.69,25.07&#10;342.03,23.77&#10;343.37,22.71&#10;344.72,22.01&#10;346.06,21.53&#10;347.4,22.54&#10;348.74,24.33&#10;350.09,25.62&#10;351.43,26.46&#10;352.77,27.03&#10;354.11,27.41&#10;355.46,27.64&#10;356.8,27.81&#10;358.14,27.89&#10;359.48,28&#10;360.83,28.05&#10;362.17,28.12&#10;363.51,28.17&#10;364.85,28.23&#10;366.19,28.29&#10;367.54,28.34&#10;368.88,28.41&#10;370.22,28.44&#10;371.56,28.48&#10;372.91,28.52&#10;374.25,28.56&#10;375.59,28.59&#10;376.93,28.61&#10;378.28,28.62&#10;379.62,28.63&#10;380.96,28.64&#10;382.3,28.64&#10;383.65,28.66&#10;384.99,28.66&#10;386.33,28.67&#10;387.67,28.67&#10;389.01,28.68&#10;390.36,28.68&#10;391.7,28.68&#10;393.04,28.69&#10;394.38,28.69&#10;395.73,28.69&#10;397.07,28.69&#10;398.41,28.69&#10;399.75,28.69&#10;401.1,28.69&#10;402.44,28.7&#10;403.78,28.7&#10;405.12,28.7&#10;406.47,28.7&#10;407.81,28.7&#10;409.15,28.7&#10;410.49,28.7&#10;411.83,28.7&#10;413.18,28.7&#10;414.52,28.7&#10;415.86,28.7&#10;417.2,28.7&#10;418.55,28.7&#10;419.89,28.7&#10;421.23,28.7&#10;422.57,28.7&#10;423.92,28.7&#10;425.26,28.7&#10;426.6,28.7&#10;427.94,28.7&#10;429.29,28.7&#10;429.29,28.7"/><polyline class="range" points="327.27,33.01&#10;327.27,34.44&#10;368.88,34.44&#10;368.88,33.01"/></g><g id="itemarea24" transform="translate(0 467.5)"/><g id="itemarea25" transform="translate(0 491.24)"><polygon class="shadow" points="296.39,28.71&#10;296.39,28.71&#10;297.73,28.71&#10;299.08,28.71&#10;300.42,28.7&#10;301.76,28.7&#10;303.1,28.7&#10;304.45,28.7&#10;305.79,28.7&#10;307.13,28.7&#10;308.47,28.7&#10;309.82,28.7&#10;311.16,28.7&#10;312.5,28.7&#10;313.84,28.7&#10;315.18,28.7&#10;316.53,28.68&#10;317.87,28.59&#10;319.21,28.52&#10;320.55,28.55&#10;321.9,28.59&#10;323.24,28.61&#10;324.58,28.58&#10;325.92,28.54&#10;327.27,28.52&#10;328.61,28.47&#10;329.95,28.46&#10;331.29,28.46&#10;332.64,28.48&#10;333.98,28.55&#10;335.32,28.58&#10;336.66,28.56&#10;338,28.39&#10;339.35,27.89&#10;340.69,26.95&#10;342.03,26.16&#10;343.37,26.01&#10;344.72,25.6&#10;346.06,24.13&#10;347.4,22.2&#10;348.74,21.53&#10;350.09,22.29&#10;351.43,24.29&#10;352.77,27.03&#10;354.11,28.25&#10;355.46,28.39&#10;356.8,27.86&#10;358.14,26.18&#10;359.48,24.34&#10;360.83,23.11&#10;362.17,22.27&#10;363.51,21.67&#10;364.85,21.76&#10;366.19,22.25&#10;367.54,22.51&#10;368.88,23.13&#10;370.22,24.25&#10;371.56,26.11&#10;372.91,26.63&#10;374.25,27.47&#10;375.59,27.78&#10;376.93,28.26&#10;378.28,28.36&#10;379.62,28.33&#10;380.96,28.49&#10;382.3,28.49&#10;383.65,28.49&#10;384.99,28.58&#10;386.33,28.63&#10;387.67,28.62&#10;389.01,28.63&#10;390.36,28.61&#10;391.7,28.68&#10;393.04,28.7&#10;394.38,28.7&#10;395.73,28.7&#10;397.07,28.71&#10;398.41,28.71&#10;399.75,28.71&#10;399.75,28.71"/><polygon class="main" points="313.84,28.71&#10;313.84,28.71&#10;315.18,28.7&#10;316.53,28.7&#10;317.87,28.7&#10;319.21,28.7&#10;320.55,28.7&#10;321.9,28.7&#10;323.24,28.7&#10;324.58,28.7&#10;325.92,28.69&#10;327.27,28.69&#10;328.61,28.67&#10;329.95,28.66&#10;331.29,28.66&#10;332.64,28.65&#10;333.98,28.66&#10;335.32,28.66&#10;336.66,28.63&#10;338,28.52&#10;339.35,28.06&#10;340.69,26.96&#10;342.03,25.6&#10;343.37,24.84&#10;344.72,24.03&#10;346.06,22.29&#10;347.4,21.53&#10;348.74,22.72&#10;350.09,24.62&#10;351.43,26.54&#10;352.77,28.02&#10;354.11,28.53&#10;355.46,28.6&#10;356.8,28.5&#10;358.14,28.23&#10;359.48,27.96&#10;360.83,27.86&#10;362.17,27.82&#10;363.51,27.85&#10;364.85,27.98&#10;366.19,28.1&#10;367.54,28.23&#10;368.88,28.32&#10;370.22,28.44&#10;371.56,28.57&#10;372.91,28.61&#10;374.25,28.66&#10;375.59,28.68&#10;376.93,28.69&#10;378.28,28.7&#10;379.62,28.7&#10;380.96,28.7&#10;382.3,28.7&#10;383.65,28.7&#10;384.99,28.7&#10;386.33,28.7&#10;387.67,28.7&#10;389.01,28.7&#10;390.36,28.7&#10;391.7,28.7&#10;393.04,28.7&#10;393.04,28.71"/><polyline class="range" points="338.68,33.01&#10;338.68,34.45&#10;353.44,34.45&#10;353.44,33.01"/><polyline class="range" points="357.87,33.01&#10;357.87,34.45&#10;368.21,34.45&#10;368.21,33.01"/></g><g id="itemarea26" transform="translate(0 514.98)"><polygon class="shadow" points="300.42,28.71&#10;300.42,28.71&#10;301.76,28.71&#10;303.1,28.71&#10;304.45,28.7&#10;305.79,28.7&#10;307.13,28.7&#10;308.47,28.7&#10;309.82,28.7&#10;311.16,28.7&#10;312.5,28.7&#10;313.84,28.7&#10;315.18,28.7&#10;316.53,28.7&#10;317.87,28.69&#10;319.21,28.67&#10;320.55,28.68&#10;321.9,28.69&#10;323.24,28.69&#10;324.58,28.69&#10;325.92,28.68&#10;327.27,28.67&#10;328.61,28.67&#10;329.95,28.66&#10;331.29,28.66&#10;332.64,28.67&#10;333.98,28.68&#10;335.32,28.69&#10;336.66,28.68&#10;338,28.65&#10;339.35,28.51&#10;340.69,28.17&#10;342.03,27.81&#10;343.37,27.75&#10;344.72,27.52&#10;346.06,26.59&#10;347.4,24.58&#10;348.74,22.64&#10;350.09,21.67&#10;351.43,22.12&#10;352.77,24.76&#10;354.11,27.13&#10;355.46,27.5&#10;356.8,26.24&#10;358.14,23.76&#10;359.48,22.15&#10;360.83,21.62&#10;362.17,21.67&#10;363.51,22.16&#10;364.85,22.04&#10;366.19,21.68&#10;367.54,21.53&#10;368.88,21.55&#10;370.22,21.97&#10;371.56,23.57&#10;372.91,24.2&#10;374.25,25.43&#10;375.59,26.02&#10;376.93,27.1&#10;378.28,27.38&#10;379.62,27.29&#10;380.96,27.79&#10;382.3,27.79&#10;383.65,27.77&#10;384.99,28.11&#10;386.33,28.31&#10;387.67,28.26&#10;389.01,28.3&#10;390.36,28.22&#10;391.7,28.54&#10;393.04,28.66&#10;394.38,28.7&#10;395.73,28.7&#10;397.07,28.7&#10;398.41,28.7&#10;399.75,28.71&#10;401.1,28.71&#10;402.44,28.71&#10;403.78,28.71&#10;405.12,28.71&#10;406.47,28.71&#10;407.81,28.71&#10;409.15,28.7&#10;410.49,28.71&#10;411.83,28.71&#10;413.18,28.71&#10;414.52,28.71&#10;415.86,28.71&#10;417.2,28.71&#10;418.55,28.71&#10;419.89,28.71&#10;421.23,28.71&#10;422.57,28.7&#10;423.92,28.7&#10;425.26,28.71&#10;426.6,28.71&#10;427.94,28.71&#10;427.94,28.71"/><polygon class="main" points="320.55,28.71&#10;320.55,28.71&#10;321.9,28.7&#10;323.24,28.7&#10;324.58,28.7&#10;325.92,28.7&#10;327.27,28.7&#10;328.61,28.7&#10;329.95,28.69&#10;331.29,28.69&#10;332.64,28.69&#10;333.98,28.69&#10;335.32,28.69&#10;336.66,28.69&#10;338,28.64&#10;339.35,28.39&#10;340.69,27.55&#10;342.03,26.39&#10;343.37,25.79&#10;344.72,25.17&#10;346.06,23.24&#10;347.4,21.53&#10;348.74,21.67&#10;350.09,23.04&#10;351.43,24.8&#10;352.77,26.89&#10;354.11,28.09&#10;355.46,28.31&#10;356.8,28.1&#10;358.14,27.75&#10;359.48,27.57&#10;360.83,27.6&#10;362.17,27.79&#10;363.51,27.91&#10;364.85,28.02&#10;366.19,28.09&#10;367.54,28.16&#10;368.88,28.24&#10;370.22,28.32&#10;371.56,28.45&#10;372.91,28.53&#10;374.25,28.58&#10;375.59,28.63&#10;376.93,28.67&#10;378.28,28.67&#10;379.62,28.68&#10;380.96,28.69&#10;382.3,28.69&#10;383.65,28.69&#10;384.99,28.7&#10;386.33,28.7&#10;387.67,28.7&#10;389.01,28.7&#10;390.36,28.7&#10;391.7,28.7&#10;393.04,28.7&#10;394.38,28.71&#10;394.38,28.71"/><polyline class="range" points="339.62,33.01&#10;339.62,34.45&#10;369.15,34.45&#10;369.15,33.01"/></g><g id="itemarea27" transform="translate(0 538.73)"><polygon class="shadow" points="269.54,28.7&#10;269.54,28.7&#10;270.89,28.7&#10;272.23,28.7&#10;273.57,28.7&#10;274.91,28.7&#10;276.26,28.7&#10;277.6,28.7&#10;278.94,28.7&#10;280.28,28.7&#10;281.63,28.7&#10;282.97,28.7&#10;284.31,28.7&#10;285.65,28.7&#10;287,28.7&#10;288.34,28.7&#10;289.68,28.7&#10;291.02,28.7&#10;292.36,28.7&#10;293.71,28.7&#10;295.05,28.7&#10;296.39,28.7&#10;297.73,28.7&#10;299.08,28.7&#10;300.42,28.7&#10;301.76,28.7&#10;303.1,28.7&#10;304.45,28.69&#10;305.79,28.68&#10;307.13,28.67&#10;308.47,28.68&#10;309.82,28.69&#10;311.16,28.69&#10;312.5,28.69&#10;313.84,28.69&#10;315.18,28.67&#10;316.53,28.6&#10;317.87,28.44&#10;319.21,28.36&#10;320.55,28.4&#10;321.9,28.45&#10;323.24,28.47&#10;324.58,28.44&#10;325.92,28.39&#10;327.27,28.37&#10;328.61,28.32&#10;329.95,28.31&#10;331.29,28.31&#10;332.64,28.33&#10;333.98,28.4&#10;335.32,28.44&#10;336.66,28.41&#10;338,28.25&#10;339.35,27.89&#10;340.69,27.35&#10;342.03,26.93&#10;343.37,26.85&#10;344.72,26.65&#10;346.06,25.86&#10;347.4,24.5&#10;348.74,23.21&#10;350.09,22.25&#10;351.43,21.6&#10;352.77,21.78&#10;354.11,23.1&#10;355.46,23.48&#10;356.8,22.44&#10;358.14,21.61&#10;359.48,21.59&#10;360.83,21.87&#10;362.17,22.27&#10;363.51,22.83&#10;364.85,22.71&#10;366.19,22.28&#10;367.54,22.08&#10;368.88,21.82&#10;370.22,21.54&#10;371.56,21.53&#10;372.91,21.63&#10;374.25,21.98&#10;375.59,22.24&#10;376.93,22.98&#10;378.28,23.25&#10;379.62,23.15&#10;380.96,23.75&#10;382.3,23.75&#10;383.65,23.73&#10;384.99,24.3&#10;386.33,24.8&#10;387.67,24.66&#10;389.01,24.76&#10;390.36,24.54&#10;391.7,25.67&#10;393.04,26.69&#10;394.38,27.54&#10;395.73,28.26&#10;397.07,28.45&#10;398.41,28.54&#10;399.75,28.63&#10;401.1,28.67&#10;402.44,28.68&#10;403.78,28.67&#10;405.12,28.67&#10;406.47,28.66&#10;407.81,28.63&#10;409.15,28.59&#10;410.49,28.63&#10;411.83,28.68&#10;413.18,28.68&#10;414.52,28.68&#10;415.86,28.67&#10;417.2,28.63&#10;418.55,28.62&#10;419.89,28.64&#10;421.23,28.63&#10;422.57,28.6&#10;423.92,28.59&#10;425.26,28.63&#10;426.6,28.67&#10;427.94,28.69&#10;429.29,28.7&#10;430.63,28.7&#10;431.97,28.7&#10;433.31,28.7&#10;434.65,28.7&#10;436,28.7&#10;437.34,28.7&#10;438.68,28.7&#10;440.02,28.7&#10;441.37,28.7&#10;442.71,28.7&#10;444.05,28.7&#10;445.39,28.7&#10;446.74,28.7&#10;446.74,28.7"/><polygon class="main" points="312.5,28.7&#10;312.5,28.7&#10;313.84,28.7&#10;315.18,28.7&#10;316.53,28.7&#10;317.87,28.69&#10;319.21,28.69&#10;320.55,28.69&#10;321.9,28.69&#10;323.24,28.69&#10;324.58,28.68&#10;325.92,28.67&#10;327.27,28.66&#10;328.61,28.65&#10;329.95,28.63&#10;331.29,28.62&#10;332.64,28.6&#10;333.98,28.6&#10;335.32,28.58&#10;336.66,28.53&#10;338,28.36&#10;339.35,27.82&#10;340.69,26.68&#10;342.03,25.25&#10;343.37,24.44&#10;344.72,23.79&#10;346.06,22.2&#10;347.4,21.53&#10;348.74,22.32&#10;350.09,23.51&#10;351.43,24.65&#10;352.77,25.91&#10;354.11,26.94&#10;355.46,27.41&#10;356.8,27.42&#10;358.14,27.44&#10;359.48,27.55&#10;360.83,27.71&#10;362.17,27.89&#10;363.51,28.02&#10;364.85,28.1&#10;366.19,28.16&#10;367.54,28.22&#10;368.88,28.29&#10;370.22,28.33&#10;371.56,28.41&#10;372.91,28.44&#10;374.25,28.5&#10;375.59,28.54&#10;376.93,28.59&#10;378.28,28.6&#10;379.62,28.62&#10;380.96,28.64&#10;382.3,28.65&#10;383.65,28.66&#10;384.99,28.66&#10;386.33,28.67&#10;387.67,28.68&#10;389.01,28.68&#10;390.36,28.69&#10;391.7,28.69&#10;393.04,28.69&#10;394.38,28.7&#10;395.73,28.7&#10;397.07,28.7&#10;398.41,28.7&#10;399.75,28.7&#10;399.75,28.7"/><polyline class="range" points="338,33.01&#10;338,34.44&#10;370.49,34.44&#10;370.49,33.01"/></g><g id="itemarea28" transform="translate(0 562.47)"><polygon class="main" points="299.08,28.7&#10;299.08,28.7&#10;300.42,28.7&#10;301.76,28.7&#10;303.1,28.7&#10;304.45,28.7&#10;305.79,28.7&#10;307.13,28.7&#10;308.47,28.7&#10;309.82,28.69&#10;311.16,28.69&#10;312.5,28.69&#10;313.84,28.69&#10;315.18,28.68&#10;316.53,28.68&#10;317.87,28.67&#10;319.21,28.65&#10;320.55,28.63&#10;321.9,28.6&#10;323.24,28.57&#10;324.58,28.52&#10;325.92,28.46&#10;327.27,28.41&#10;328.61,28.33&#10;329.95,28.24&#10;331.29,28.14&#10;332.64,28&#10;333.98,27.84&#10;335.32,27.62&#10;336.66,27.32&#10;338,26.86&#10;339.35,26.14&#10;340.69,25.11&#10;342.03,23.74&#10;343.37,22.75&#10;344.72,22.01&#10;346.06,21.53&#10;347.4,22.6&#10;348.74,24.34&#10;350.09,25.56&#10;351.43,26.44&#10;352.77,27.03&#10;354.11,27.45&#10;355.46,27.66&#10;356.8,27.79&#10;358.14,27.92&#10;359.48,28&#10;360.83,28.05&#10;362.17,28.13&#10;363.51,28.18&#10;364.85,28.22&#10;366.19,28.3&#10;367.54,28.35&#10;368.88,28.41&#10;370.22,28.44&#10;371.56,28.49&#10;372.91,28.53&#10;374.25,28.56&#10;375.59,28.58&#10;376.93,28.6&#10;378.28,28.62&#10;379.62,28.63&#10;380.96,28.64&#10;382.3,28.65&#10;383.65,28.66&#10;384.99,28.67&#10;386.33,28.67&#10;387.67,28.68&#10;389.01,28.68&#10;390.36,28.68&#10;391.7,28.68&#10;393.04,28.69&#10;394.38,28.69&#10;395.73,28.69&#10;397.07,28.69&#10;398.41,28.69&#10;399.75,28.69&#10;401.1,28.69&#10;402.44,28.69&#10;403.78,28.7&#10;405.12,28.7&#10;406.47,28.7&#10;407.81,28.7&#10;409.15,28.7&#10;410.49,28.7&#10;411.83,28.7&#10;413.18,28.7&#10;414.52,28.7&#10;415.86,28.7&#10;417.2,28.7&#10;418.55,28.7&#10;419.89,28.7&#10;419.89,28.7"/><polyline class="range" points="327.4,33.01&#10;327.4,34.44&#10;368.88,34.44&#10;368.88,33.01"/></g><g id="itemarea29" transform="translate(0 586.21)"><polygon class="main" points="336.66,28.7&#10;336.66,28.7&#10;338,28.7&#10;339.35,28.68&#10;340.69,28.49&#10;342.03,27.98&#10;343.37,27.05&#10;344.72,26.51&#10;346.06,25.01&#10;347.4,22.67&#10;348.74,22.04&#10;350.09,21.53&#10;351.43,22.03&#10;352.77,23.26&#10;354.11,24.84&#10;355.46,25.93&#10;356.8,26.62&#10;358.14,27.11&#10;359.48,27.12&#10;360.83,27.12&#10;362.17,27.07&#10;363.51,27.13&#10;364.85,27.16&#10;366.19,27.24&#10;367.54,27.23&#10;368.88,27.33&#10;370.22,27.47&#10;371.56,27.54&#10;372.91,27.59&#10;374.25,27.82&#10;375.59,27.86&#10;376.93,28.05&#10;378.28,28.16&#10;379.62,28.23&#10;380.96,28.31&#10;382.3,28.33&#10;383.65,28.41&#10;384.99,28.44&#10;386.33,28.48&#10;387.67,28.51&#10;389.01,28.53&#10;390.36,28.55&#10;391.7,28.58&#10;393.04,28.58&#10;394.38,28.59&#10;395.73,28.62&#10;397.07,28.63&#10;398.41,28.65&#10;399.75,28.65&#10;401.1,28.66&#10;402.44,28.65&#10;403.78,28.66&#10;405.12,28.66&#10;406.47,28.68&#10;407.81,28.67&#10;409.15,28.67&#10;410.49,28.69&#10;411.83,28.68&#10;413.18,28.68&#10;414.52,28.69&#10;415.86,28.69&#10;417.2,28.69&#10;418.55,28.69&#10;419.89,28.69&#10;421.23,28.69&#10;422.57,28.69&#10;423.92,28.69&#10;425.26,28.69&#10;426.6,28.7&#10;427.94,28.7&#10;429.29,28.7&#10;430.63,28.7&#10;431.97,28.7&#10;433.31,28.7&#10;434.65,28.7&#10;436,28.7&#10;437.34,28.7&#10;438.68,28.7&#10;440.02,28.7&#10;441.37,28.7&#10;441.37,28.7"/><polyline class="range" points="341.23,33.01&#10;341.23,34.44&#10;380.69,34.44&#10;380.69,33.01"/></g></g></g><g id="textarea" transform="translate(14.15 14.15)"><g id="itemarea1" transform="translate(0 -7.33)"><text transform="translate(0 3.2)" style="font-size:8.00pt" x="7.22" y="28.7">SNRICH_Model Sequence</text></g><g id="itemarea2" transform="translate(0 16.41)"><text transform="translate(0 3.2)" style="font-size:8.00pt;font-style:italic" x="12.03" y="28.7">Start Boundary</text></g><g id="itemarea3" transform="translate(0 40.15)"><text transform="translate(0 3.2)" style="font-size:8.00pt" x="12.03" y="28.7">1 Phase</text></g><g id="itemarea4" transform="translate(0 63.89)"><text transform="translate(0 3.2)" style="font-size:8.00pt;font-style:italic" x="16.84" y="28.71">Base-1 R_Date(2100,50)</text></g><g id="itemarea5" transform="translate(0 87.63)"><text transform="translate(0 3.2)" style="font-size:8.00pt;font-style:italic" x="16.84" y="28.71">Base-2 R_Date(2050,50)</text></g><g id="itemarea6" transform="translate(0 111.37)"><text transform="translate(0 3.2)" style="font-size:8.00pt;font-style:italic" x="16.84" y="28.71">Base-3 R_Date(2050,30)</text></g><g id="itemarea7" transform="translate(0 135.12)"><text transform="translate(0 3.2)" style="font-size:8.00pt;font-style:italic" x="16.84" y="28.7">Base-4 R_Date(2000,50)</text></g><g id="itemarea8" transform="translate(0 158.86)"><text transform="translate(0 3.2)" style="font-size:8.00pt;font-style:italic" x="16.84" y="28.7">Base-5 R_Date(1950,50)</text></g><g id="itemarea9" transform="translate(0 182.6)"><text transform="translate(0 3.2)" style="font-size:8.00pt;font-style:italic" x="16.84" y="28.7">Base-6 R_Date(1900,50)</text></g><g id="itemarea10" transform="translate(0 206.34)"><text transform="translate(0 3.2)" style="font-size:8.00pt;font-style:italic" x="12.03" y="28.71">1to2 Boundary</text></g><g id="itemarea11" transform="translate(0 230.08)"><text transform="translate(0 3.2)" style="font-size:8.00pt" x="12.03" y="28.71">2 Phase</text></g><g id="itemarea12" transform="translate(0 253.83)"><text transform="translate(0 3.2)" style="font-size:8.00pt;font-style:italic" x="16.84" y="28.7">Dwelling R_Combine(1880,29)</text></g><g id="itemarea16" transform="translate(0 277.57)"><text transform="translate(0 3.2)" style="font-size:8.00pt;font-style:italic" x="12.03" y="28.7">2to3 Boundary</text></g><g id="itemarea17" transform="translate(0 301.31)"><text transform="translate(0 3.2)" style="font-size:8.00pt" x="12.03" y="28.7">3 Phase</text></g><g id="itemarea18" transform="translate(0 325.05)"><text transform="translate(0 3.2)" style="font-size:8.00pt;font-style:italic" x="16.84" y="28.7">Mound Start Boundary</text></g><g id="itemarea19" transform="translate(0 348.79)"><text transform="translate(0 3.2)" style="font-size:8.00pt" x="16.84" y="28.71">Mound-1 Phase</text></g><g id="itemarea20" transform="translate(0 372.53)"><text transform="translate(0 3.2)" style="font-size:8.00pt;font-style:italic" x="21.65" y="28.71">Rampart-1 R_Date(1840,30)</text></g><g id="itemarea21" transform="translate(0 396.28)"><text transform="translate(0 3.2)" style="font-size:8.00pt;font-style:italic" x="21.65" y="28.7">Rampart-2 R_Date(1850,30)</text></g><g id="itemarea22" transform="translate(0 420.02)"><text transform="translate(0 3.2)" style="font-size:8.00pt;font-style:italic" x="21.65" y="28.7">Rampart-3 R_Date(1860,30)</text></g><g id="itemarea23" transform="translate(0 443.76)"><text transform="translate(0 3.2)" style="font-size:8.00pt;font-style:italic" x="16.84" y="28.7">Mound 1to2 Boundary</text></g><g id="itemarea24" transform="translate(0 467.5)"><text transform="translate(0 3.2)" style="font-size:8.00pt" x="16.84" y="28.71">Mound-2 Phase</text></g><g id="itemarea25" transform="translate(0 491.24)"><text transform="translate(0 3.2)" style="font-size:8.00pt;font-style:italic" x="21.65" y="28.71">Rampart-4 R_Date(1790,30)</text></g><g id="itemarea26" transform="translate(0 514.98)"><text transform="translate(0 3.2)" style="font-size:8.00pt;font-style:italic" x="21.65" y="28.71">Rampart-5 R_Date(1770,30)</text></g><g id="itemarea27" transform="translate(0 538.73)"><text transform="translate(0 3.2)" style="font-size:8.00pt;font-style:italic" x="21.65" y="28.7">Rampart-6 R_Date(1750,50)</text></g><g id="itemarea28" transform="translate(0 562.47)"><text transform="translate(0 3.2)" style="font-size:8.00pt;font-style:italic" x="16.84" y="28.7">Mound End Boundary</text></g><g id="itemarea29" transform="translate(0 586.21)"><text transform="translate(0 3.2)" style="font-size:8.00pt;font-style:italic" x="12.03" y="28.7">End Boundary</text></g></g><rect class="border" x="14.15" width="481.1" y="14.15" height="636.28"/><g><line class="gridline" x1="28.78" y1="650.43" x2="28.78" y2="14.15"/><line class="gridline" x1="82.48" y1="650.43" x2="82.48" y2="14.15"/><line class="gridline" x1="136.17" y1="650.43" x2="136.17" y2="14.15"/><line class="gridline" x1="189.86" y1="650.43" x2="189.86" y2="14.15"/><line class="gridline" x1="243.56" y1="650.43" x2="243.56" y2="14.15"/><line class="gridline" x1="297.25" y1="650.43" x2="297.25" y2="14.15"/><line class="gridline" x1="350.95" y1="650.43" x2="350.95" y2="14.15"/><line class="gridline" x1="404.64" y1="650.43" x2="404.64" y2="14.15"/><line class="gridline" x1="458.34" y1="650.43" x2="458.34" y2="14.15"/></g><g><line class="majorpip" x1="14.15" y1="650.43" x2="495.25" y2="650.43"/><line class="minorpip" x1="18.04" y1="650.43" x2="18.04" y2="647.6"/><line class="minorpip" x1="23.41" y1="650.43" x2="23.41" y2="647.6"/><line class="minorpip" x1="28.78" y1="650.43" x2="28.78" y2="647.6"/><line class="minorpip" x1="34.15" y1="650.43" x2="34.15" y2="647.6"/><line class="minorpip" x1="39.52" y1="650.43" x2="39.52" y2="647.6"/><line class="minorpip" x1="44.89" y1="650.43" x2="44.89" y2="647.6"/><line class="minorpip" x1="50.26" y1="650.43" x2="50.26" y2="647.6"/><line class="minorpip" x1="55.63" y1="650.43" x2="55.63" y2="647.6"/><line class="minorpip" x1="61" y1="650.43" x2="61" y2="647.6"/><line class="minorpip" x1="66.37" y1="650.43" x2="66.37" y2="647.6"/><line class="minorpip" x1="71.74" y1="650.43" x2="71.74" y2="647.6"/><line class="minorpip" x1="77.11" y1="650.43" x2="77.11" y2="647.6"/><line class="minorpip" x1="82.48" y1="650.43" x2="82.48" y2="647.6"/><line class="minorpip" x1="87.85" y1="650.43" x2="87.85" y2="647.6"/><line class="minorpip" x1="93.21" y1="650.43" x2="93.21" y2="647.6"/><line class="minorpip" x1="98.58" y1="650.43" x2="98.58" y2="647.6"/><line class="minorpip" x1="103.95" y1="650.43" x2="103.95" y2="647.6"/><line class="minorpip" x1="109.32" y1="650.43" x2="109.32" y2="647.6"/><line class="minorpip" x1="114.69" y1="650.43" x2="114.69" y2="647.6"/><line class="minorpip" x1="120.06" y1="650.43" x2="120.06" y2="647.6"/><line class="minorpip" x1="125.43" y1="650.43" x2="125.43" y2="647.6"/><line class="minorpip" x1="130.8" y1="650.43" x2="130.8" y2="647.6"/><line class="minorpip" x1="136.17" y1="650.43" x2="136.17" y2="647.6"/><line class="minorpip" x1="141.54" y1="650.43" x2="141.54" y2="647.6"/><line class="minorpip" x1="146.91" y1="650.43" x2="146.91" y2="647.6"/><line class="minorpip" x1="152.28" y1="650.43" x2="152.28" y2="647.6"/><line class="minorpip" x1="157.65" y1="650.43" x2="157.65" y2="647.6"/><line class="minorpip" x1="163.02" y1="650.43" x2="163.02" y2="647.6"/><line class="minorpip" x1="168.39" y1="650.43" x2="168.39" y2="647.6"/><line class="minorpip" x1="173.76" y1="650.43" x2="173.76" y2="647.6"/><line class="minorpip" x1="179.13" y1="650.43" x2="179.13" y2="647.6"/><line class="minorpip" x1="184.49" y1="650.43" x2="184.49" y2="647.6"/><line class="minorpip" x1="189.86" y1="650.43" x2="189.86" y2="647.6"/><line class="minorpip" x1="195.23" y1="650.43" x2="195.23" y2="647.6"/><line class="minorpip" x1="200.6" y1="650.43" x2="200.6" y2="647.6"/><line class="minorpip" x1="205.97" y1="650.43" x2="205.97" y2="647.6"/><line class="minorpip" x1="211.34" y1="650.43" x2="211.34" y2="647.6"/><line class="minorpip" x1="216.71" y1="650.43" x2="216.71" y2="647.6"/><line class="minorpip" x1="222.08" y1="650.43" x2="222.08" y2="647.6"/><line class="minorpip" x1="227.45" y1="650.43" x2="227.45" y2="647.6"/><line class="minorpip" x1="232.82" y1="650.43" x2="232.82" y2="647.6"/><line class="minorpip" x1="238.19" y1="650.43" x2="238.19" y2="647.6"/><line class="minorpip" x1="243.56" y1="650.43" x2="243.56" y2="647.6"/><line class="minorpip" x1="248.93" y1="650.43" x2="248.93" y2="647.6"/><line class="minorpip" x1="254.3" y1="650.43" x2="254.3" y2="647.6"/><line class="minorpip" x1="259.67" y1="650.43" x2="259.67" y2="647.6"/><line class="minorpip" x1="265.04" y1="650.43" x2="265.04" y2="647.6"/><line class="minorpip" x1="270.41" y1="650.43" x2="270.41" y2="647.6"/><line class="minorpip" x1="275.77" y1="650.43" x2="275.77" y2="647.6"/><line class="minorpip" x1="281.14" y1="650.43" x2="281.14" y2="647.6"/><line class="minorpip" x1="286.51" y1="650.43" x2="286.51" y2="647.6"/><line class="minorpip" x1="291.88" y1="650.43" x2="291.88" y2="647.6"/><line class="minorpip" x1="297.25" y1="650.43" x2="297.25" y2="647.6"/><line class="minorpip" x1="302.62" y1="650.43" x2="302.62" y2="647.6"/><line class="minorpip" x1="307.99" y1="650.43" x2="307.99" y2="647.6"/><line class="minorpip" x1="313.36" y1="650.43" x2="313.36" y2="647.6"/><line class="minorpip" x1="318.73" y1="650.43" x2="318.73" y2="647.6"/><line class="minorpip" x1="324.1" y1="650.43" x2="324.1" y2="647.6"/><line class="minorpip" x1="329.47" y1="650.43" x2="329.47" y2="647.6"/><line class="minorpip" x1="334.84" y1="650.43" x2="334.84" y2="647.6"/><line class="minorpip" x1="340.21" y1="650.43" x2="340.21" y2="647.6"/><line class="minorpip" x1="345.58" y1="650.43" x2="345.58" y2="647.6"/><line class="minorpip" x1="350.95" y1="650.43" x2="350.95" y2="647.6"/><line class="minorpip" x1="356.32" y1="650.43" x2="356.32" y2="647.6"/><line class="minorpip" x1="361.69" y1="650.43" x2="361.69" y2="647.6"/><line class="minorpip" x1="367.06" y1="650.43" x2="367.06" y2="647.6"/><line class="minorpip" x1="372.42" y1="650.43" x2="372.42" y2="647.6"/><line class="minorpip" x1="377.79" y1="650.43" x2="377.79" y2="647.6"/><line class="minorpip" x1="383.16" y1="650.43" x2="383.16" y2="647.6"/><line class="minorpip" x1="388.53" y1="650.43" x2="388.53" y2="647.6"/><line class="minorpip" x1="393.9" y1="650.43" x2="393.9" y2="647.6"/><line class="minorpip" x1="399.27" y1="650.43" x2="399.27" y2="647.6"/><line class="minorpip" x1="404.64" y1="650.43" x2="404.64" y2="647.6"/><line class="minorpip" x1="410.01" y1="650.43" x2="410.01" y2="647.6"/><line class="minorpip" x1="415.38" y1="650.43" x2="415.38" y2="647.6"/><line class="minorpip" x1="420.75" y1="650.43" x2="420.75" y2="647.6"/><line class="minorpip" x1="426.12" y1="650.43" x2="426.12" y2="647.6"/><line class="minorpip" x1="431.49" y1="650.43" x2="431.49" y2="647.6"/><line class="minorpip" x1="436.86" y1="650.43" x2="436.86" y2="647.6"/><line class="minorpip" x1="442.23" y1="650.43" x2="442.23" y2="647.6"/><line class="minorpip" x1="447.6" y1="650.43" x2="447.6" y2="647.6"/><line class="minorpip" x1="452.97" y1="650.43" x2="452.97" y2="647.6"/><line class="minorpip" x1="458.34" y1="650.43" x2="458.34" y2="647.6"/><line class="minorpip" x1="463.7" y1="650.43" x2="463.7" y2="647.6"/><line class="minorpip" x1="469.07" y1="650.43" x2="469.07" y2="647.6"/><line class="minorpip" x1="474.44" y1="650.43" x2="474.44" y2="647.6"/><line class="minorpip" x1="479.81" y1="650.43" x2="479.81" y2="647.6"/><line class="minorpip" x1="485.18" y1="650.43" x2="485.18" y2="647.6"/><line class="minorpip" x1="490.55" y1="650.43" x2="490.55" y2="647.6"/><line class="majorpip" x1="28.78" y1="650.43" x2="28.78" y2="644.77"/><text transform="translate(0 9.28)" style="font-size:8.00pt;text-anchor:middle" x="28.78" y="650.43">1000</text><line class="majorpip" x1="82.48" y1="650.43" x2="82.48" y2="644.77"/><text transform="translate(0 9.28)" style="font-size:8.00pt;text-anchor:middle" x="82.48" y="650.43">800</text><line class="majorpip" x1="136.17" y1="650.43" x2="136.17" y2="644.77"/><text transform="translate(0 9.28)" style="font-size:8.00pt;text-anchor:middle" x="136.17" y="650.43">600</text><line class="majorpip" x1="189.86" y1="650.43" x2="189.86" y2="644.77"/><text transform="translate(0 9.28)" style="font-size:8.00pt;text-anchor:middle" x="189.86" y="650.43">400</text><line class="majorpip" x1="243.56" y1="650.43" x2="243.56" y2="644.77"/><text transform="translate(0 9.28)" style="font-size:8.00pt;text-anchor:middle" x="243.56" y="650.43">200</text><line class="majorpip" x1="297.25" y1="650.43" x2="297.25" y2="644.77"/><text transform="translate(0 9.28)" style="font-size:8.00pt;text-anchor:middle" x="297.25" y="650.43">1BC/1AD</text><line class="majorpip" x1="350.95" y1="650.43" x2="350.95" y2="644.77"/><text transform="translate(0 9.28)" style="font-size:8.00pt;text-anchor:middle" x="350.95" y="650.43">201</text><line class="majorpip" x1="404.64" y1="650.43" x2="404.64" y2="644.77"/><text transform="translate(0 9.28)" style="font-size:8.00pt;text-anchor:middle" x="404.64" y="650.43">401</text><line class="majorpip" x1="458.34" y1="650.43" x2="458.34" y2="644.77"/><text transform="translate(0 9.28)" style="font-size:8.00pt;text-anchor:middle" x="458.34" y="650.43">601</text><text transform="translate(0 3.2)" style="font-size:8.00pt;text-anchor:middle;font-style:italic" x="254.7" y="678.73">Modelled date (BC/AD)</text></g><g id="references" transform="translate(0 0)"><text transform="translate(0 -1.15)" style="font-size:4.80pt" x="14.15" y="14.15">OxCal v4.4.4 Bronk Ramsey (2021); r:5 Atmospheric data from Reimer et al (2020)</text></g></g></g>
</svg>