<?xml version="1.0" encoding="UTF-8"?><svg id="top" version="1.1" xmlns="http://www.w3.org/2000/svg" xmlns:xlink="http://www.w3.org/1999/xlink" xmlns:ev="http://www.w3.org/2001/xml-events" width="438.650pt" height="283.000pt" zoomAndPan="magnify" preserveAspectRatio="xMinYMin" onload="createPlot()" viewBox="0 0 438.650 283.000">
   <defs id="definitions">
   <filter id="Shadow" filterUnits="userSpaceOnUse">
    <feGaussianBlur in="SourceAlpha" stdDeviation="4" result="blur"/>
    <feOffset in="blur" dx="4" dy="4" result="offsetBlurredAlpha"/>
    <feMerge>
     <feMergeNode in="offsetBlurredAlpha"/>
     <feMergeNode in="SourceGraphic"/>
    </feMerge> 
   </filter>    
    <filter id="Correlation1" x="-20%" y="-20%" width="140%" height="140%" filterUnits="objectBoundingBox">
     <feGaussianBlur in="SourceGraphic" stdDeviation="7" result="blur"/>
     <feColorMatrix type="matrix" in="blur" values="0 0 0  5.00 -2.00&#10;               0 0 0 -2.50  2.50&#10;               0 0 0  0.00  0.00&#10;               0 0 0  2.50  0.00"/>
    </filter>    
    <filter id="Correlation2" x="-20%" y="-20%" width="140%" height="140%" filterUnits="objectBoundingBox">
     <feGaussianBlur in="SourceGraphic" stdDeviation="7" result="blur"/>
     <feGaussianBlur in="SourceAlpha" stdDeviation="7" result="opacity"/>
     <feColorMatrix type="matrix" in="blur" result="newcolor" values="0 0 0  5.00 -2.00&#10;               0 0 0 -2.50  2.50&#10;               0 0 0  0.00  0.00&#10;               0 0 0  2.50  0.00"/>
     <feSpecularLighting in="opacity" surfaceScale="5" specularConstant="1" specularExponent="20" lighting-color="white" result="specularOut">
      <feDistantLight azimuth="225" elevation="30"/>
     </feSpecularLighting>
     <feComposite in="newcolor" in2="specularOut" operator="arithmetic" k1="0" k2="1" k3="1" k4="0" result="litPaint"/>
    </filter>
    <pattern id="Sequence" patternUnits="userSpaceOnUse" x="0" y="0" width="5" height="5" viewBox="0 0 5 5">
    </pattern>    
    <pattern id="U_Sequence" patternUnits="userSpaceOnUse" x="0" y="0" width="5" height="5" viewBox="0 0 5 5">
     <line x1="-2.5" x2="5" y1="5" y2="-2.5" style="stroke-width:1.5;stroke:black"/>
     <line x1="0" x2="7.5" y1="7.5" y2="0" style="stroke-width:1.5;stroke:black"/>
    </pattern>    
    <pattern id="D_Sequence" patternUnits="userSpaceOnUse" x="0" y="0" width="5" height="5" viewBox="0 0 5 5">
     <line x1="-2.5" x2="7.5" y1="-2.5" y2="7.5" style="stroke-width:1;stroke:black"/>
     <line x1="-2.5" x2="7.5" y1="7.5" y2="-2.5" style="stroke-width:1;stroke:black"/>
    </pattern>    
    <pattern id="V_Sequence" patternUnits="userSpaceOnUse" x="0" y="0" width="5" height="5" viewBox="0 0 5 5">
     <ellipse cx="2.5" cy="2.5" rx="1.5" ry="0.7" style="fill:black"/>
    </pattern>    
    <pattern id="P_Sequence" patternUnits="userSpaceOnUse" x="0" y="0" width="5" height="5" viewBox="0 0 5 5">
     <circle cx="1.25" cy="3.75" r="1" style="fill:black"/>
     <circle cx="3.75" cy="1.25" r="1" style="fill:black"/>
    </pattern>
    <style type="text/css">
      rect.border { fill:none; stroke:black;stroke-width:1px }
      rect.fillblack { fill:black; stroke:black;stroke-width:1px }
      rect.structure { fill:none; stroke:none }
      rect.structtab { fill:blue; stroke:none;fill-opacity:0.2 }
      rect.structclip { fill:white; stroke:none }
      rect.structborder { fill:none; stroke:black; stroke-width:0.5px }
      rect.range3 {fill:black;stroke:black;stroke-width:1px;fill-opacity:0.1 }
      rect.range2 {fill:black;stroke:black;stroke-width:1px;fill-opacity:0.3 }
      rect.range1 {fill:black;stroke:black;stroke-width:1px;fill-opacity:0.5 }
      rect.fillbackground { fill:#000099 }
      rect.fillmodel { fill:#ffffcc;stroke:black;stroke-width:1px;fill-opacity:0.8 }
      rect.modeldist {fill:black;stroke:black;stroke-width:1px;fill-opacity:0.3 }
      rect.fill { fill:#CC0000 }
      polygon.main { fill:black; stroke:black;stroke-width:0.2px;fill-opacity:0.5 }
      polygon.shadow { fill:black; stroke:black;stroke-width:0.2px;fill-opacity:0.1 }
      polygon.curve { fill:blue; stroke:blue;stroke-width:1px;fill-opacity:0.3 }
      polygon.normal { fill:red; stroke:red;stroke-width:1px;fill-opacity:0.3 }
      polygon.kdesigma { fill:blue; stroke:blue;stroke-width:0px;fill-opacity:0.2 }
      polygon.modeldist { fill:url(#U_Sequence);stroke:black;stroke-width:1px;fill-opacity:0.3 }
      polyline.datacurve { fill:none; stroke:blue;stroke-width:1px }
      polyline.range { fill:none; stroke:black; stroke-width:1px; stroke-linejoin:round }
      polyline.ensemble { fill:none; stroke:black; stroke-width:0.5px;stroke-opacity:0.2 }
      polyline.kdemean { fill:none; stroke:blue; stroke-width:1px }
      path.model3 { fill:blue; stroke:blue;stroke-width:1px;fill-opacity:0.1 }
      path.model2 { fill:blue; stroke:blue;stroke-width:1px;fill-opacity:0.3 }
      path.model1 { fill:blue; stroke:blue;stroke-width:1px;fill-opacity:0.5 }
      g.curve { fill:blue; stroke:blue;stroke-width:1px;fill-opacity:0.3 }
      line.majorpip { stroke:black; stroke-width:1px }
      line.minorpip { stroke:black; stroke-width:0.5px }
      line.gridline { stroke:black; stroke-width:0.5px }
      line.majorpip2 { stroke:white; stroke-width:1px }
      line.minorpip2 { stroke:white; stroke-width:0.5px }
      line.gridline2 { stroke:white; stroke-width:0.5px }
      line.okline { stroke:green; stroke-width:1px }
      line.errorline { stroke:red; stroke-width:1px }
      line.range { stroke:black; stroke-width:1px }
      line.modelline { stroke:black; stroke-width:1px }
      line.constrshadow { stroke:#ffffcc; stroke-width:2px }
      line.constrok { stroke:black; stroke-width:1px }
      line.constrerror { stroke:#ff0000; stroke-width:1px }
      line.curve { stroke:blue;stroke-width:1px }
      text { fill:black; stroke:none; font-size:10pt; font-family:"Arial","Helvetica"; font-style:normal }
    </style>
   <clipPath id="clip1"><rect x="0" width="325.45" y="0" height="226.4"/></clipPath><clipPath id="clip2"><rect x="0" width="325.45" y="0" height="226.4"/></clipPath></defs>
    <g id="mainframe"><rect x="-43.87" width="526.39" y="-28.3" height="339.6" style="fill:white" stroke="none"/><g id="mainviewport" transform="translate(0 0)"><rect class="border" x="84.9" width="325.45" y="14.15" height="226.4"/><g id="plotarea" transform="translate(84.9 14.15)"><g clip-path="url(#clip2)"><g id="distarea" transform="translate(0 115.46)"><polygon id="prob" class="main" points="27.12,74.72&#10;27.12,74.72&#10;30.24,74.72&#10;33.36,74.72&#10;36.47,74.72&#10;39.59,74.72&#10;42.71,74.7&#10;45.82,74.67&#10;48.94,74.66&#10;52.06,74.64&#10;55.18,74.67&#10;58.29,74.72&#10;61.41,74.72&#10;64.53,74.72&#10;67.65,74.69&#10;70.76,74.6&#10;73.88,74.52&#10;77,74.33&#10;80.12,73.42&#10;83.23,71.59&#10;86.35,70.88&#10;89.47,71.45&#10;92.58,72.45&#10;95.7,73.28&#10;98.82,73.2&#10;101.94,71.53&#10;105.05,68.68&#10;108.17,66.3&#10;111.29,65.62&#10;114.41,62.76&#10;117.52,55.87&#10;120.64,50.65&#10;123.76,57.27&#10;126.88,63.66&#10;129.99,64.69&#10;133.11,61.68&#10;136.23,58.45&#10;139.34,51.39&#10;142.46,31.25&#10;145.58,14.4&#10;148.7,10.27&#10;151.81,12.72&#10;154.93,15.78&#10;158.05,16.93&#10;161.17,14.83&#10;164.28,12.43&#10;167.4,11.17&#10;170.52,9.44&#10;173.64,8.93&#10;176.75,8.93&#10;179.87,9.83&#10;182.99,12.73&#10;186.11,15.1&#10;189.22,13.42&#10;192.34,6.98&#10;195.46,0.57&#10;198.57,0&#10;201.69,4.24&#10;204.81,4.82&#10;207.93,8.63&#10;211.04,23.27&#10;214.16,48.68&#10;217.28,65.41&#10;220.4,71.93&#10;223.51,74.2&#10;226.63,74.71&#10;229.75,74.72&#10;232.87,74.72&#10;235.98,74.72&#10;239.1,74.64&#10;242.22,74.23&#10;245.33,73.45&#10;248.45,71.87&#10;251.57,68.54&#10;254.69,69.34&#10;257.8,71.82&#10;260.92,72.8&#10;264.04,73.65&#10;267.16,74.34&#10;270.27,74.66&#10;273.39,74.69&#10;276.51,74.72&#10;279.63,74.72&#10;282.74,74.72&#10;285.86,74.72&#10;288.98,74.72&#10;292.09,74.72&#10;295.21,74.72&#10;298.33,74.72&#10;298.33,74.72"/></g><g id="rangearea" transform="translate(0 190.18)"/><g id="rangearea" transform="translate(0 190.18)"/></g></g><g id="textarea" transform="translate(84.9 14.15)"><text transform="translate(0 9.6)" style="font-size:9.60pt;text-anchor:middle" x="162.73" y="4.53">CAMP Sum</text><text transform="translate(0 8)" style="font-size:8.00pt" x="162.73" y="18.11">n=10</text></g><rect class="border" x="84.9" width="325.45" y="14.15" height="226.4"/><g><line class="majorpip" x1="84.9" y1="240.55" x2="410.35" y2="240.55"/><line class="minorpip" x1="87.39" y1="240.55" x2="87.39" y2="237.72"/><line class="minorpip" x1="93.63" y1="240.55" x2="93.63" y2="237.72"/><line class="minorpip" x1="99.86" y1="240.55" x2="99.86" y2="237.72"/><line class="minorpip" x1="106.1" y1="240.55" x2="106.1" y2="237.72"/><line class="minorpip" x1="112.33" y1="240.55" x2="112.33" y2="237.72"/><line class="minorpip" x1="118.57" y1="240.55" x2="118.57" y2="237.72"/><line class="minorpip" x1="124.8" y1="240.55" x2="124.8" y2="237.72"/><line class="minorpip" x1="131.04" y1="240.55" x2="131.04" y2="237.72"/><line class="minorpip" x1="137.27" y1="240.55" x2="137.27" y2="237.72"/><line class="minorpip" x1="143.51" y1="240.55" x2="143.51" y2="237.72"/><line class="minorpip" x1="149.74" y1="240.55" x2="149.74" y2="237.72"/><line class="minorpip" x1="155.98" y1="240.55" x2="155.98" y2="237.72"/><line class="minorpip" x1="162.21" y1="240.55" x2="162.21" y2="237.72"/><line class="minorpip" x1="168.44" y1="240.55" x2="168.44" y2="237.72"/><line class="minorpip" x1="174.68" y1="240.55" x2="174.68" y2="237.72"/><line class="minorpip" x1="180.91" y1="240.55" x2="180.91" y2="237.72"/><line class="minorpip" x1="187.15" y1="240.55" x2="187.15" y2="237.72"/><line class="minorpip" x1="193.38" y1="240.55" x2="193.38" y2="237.72"/><line class="minorpip" x1="199.62" y1="240.55" x2="199.62" y2="237.72"/><line class="minorpip" x1="205.85" y1="240.55" x2="205.85" y2="237.72"/><line class="minorpip" x1="212.09" y1="240.55" x2="212.09" y2="237.72"/><line class="minorpip" x1="218.32" y1="240.55" x2="218.32" y2="237.72"/><line class="minorpip" x1="224.56" y1="240.55" x2="224.56" y2="237.72"/><line class="minorpip" x1="230.79" y1="240.55" x2="230.79" y2="237.72"/><line class="minorpip" x1="237.03" y1="240.55" x2="237.03" y2="237.72"/><line class="minorpip" x1="243.26" y1="240.55" x2="243.26" y2="237.72"/><line class="minorpip" x1="249.5" y1="240.55" x2="249.5" y2="237.72"/><line class="minorpip" x1="255.73" y1="240.55" x2="255.73" y2="237.72"/><line class="minorpip" x1="261.96" y1="240.55" x2="261.96" y2="237.72"/><line class="minorpip" x1="268.2" y1="240.55" x2="268.2" y2="237.72"/><line class="minorpip" x1="274.43" y1="240.55" x2="274.43" y2="237.72"/><line class="minorpip" x1="280.67" y1="240.55" x2="280.67" y2="237.72"/><line class="minorpip" x1="286.9" y1="240.55" x2="286.9" y2="237.72"/><line class="minorpip" x1="293.14" y1="240.55" x2="293.14" y2="237.72"/><line class="minorpip" x1="299.37" y1="240.55" x2="299.37" y2="237.72"/><line class="minorpip" x1="305.61" y1="240.55" x2="305.61" y2="237.72"/><line class="minorpip" x1="311.84" y1="240.55" x2="311.84" y2="237.72"/><line class="minorpip" x1="318.08" y1="240.55" x2="318.08" y2="237.72"/><line class="minorpip" x1="324.31" y1="240.55" x2="324.31" y2="237.72"/><line class="minorpip" x1="330.55" y1="240.55" x2="330.55" y2="237.72"/><line class="minorpip" x1="336.78" y1="240.55" x2="336.78" y2="237.72"/><line class="minorpip" x1="343.02" y1="240.55" x2="343.02" y2="237.72"/><line class="minorpip" x1="349.25" y1="240.55" x2="349.25" y2="237.72"/><line class="minorpip" x1="355.48" y1="240.55" x2="355.48" y2="237.72"/><line class="minorpip" x1="361.72" y1="240.55" x2="361.72" y2="237.72"/><line class="minorpip" x1="367.95" y1="240.55" x2="367.95" y2="237.72"/><line class="minorpip" x1="374.19" y1="240.55" x2="374.19" y2="237.72"/><line class="minorpip" x1="380.42" y1="240.55" x2="380.42" y2="237.72"/><line class="minorpip" x1="386.66" y1="240.55" x2="386.66" y2="237.72"/><line class="minorpip" x1="392.89" y1="240.55" x2="392.89" y2="237.72"/><line class="minorpip" x1="399.13" y1="240.55" x2="399.13" y2="237.72"/><line class="minorpip" x1="405.36" y1="240.55" x2="405.36" y2="237.72"/><line class="majorpip" x1="87.39" y1="240.55" x2="87.39" y2="234.89"/><text transform="translate(0 9.28)" style="font-size:8.00pt;text-anchor:middle" x="87.39" y="240.55">100</text><line class="majorpip" x1="149.74" y1="240.55" x2="149.74" y2="234.89"/><text transform="translate(0 9.28)" style="font-size:8.00pt;text-anchor:middle" x="149.74" y="240.55">1BC/1AD</text><line class="majorpip" x1="212.09" y1="240.55" x2="212.09" y2="234.89"/><text transform="translate(0 9.28)" style="font-size:8.00pt;text-anchor:middle" x="212.09" y="240.55">101</text><line class="majorpip" x1="274.43" y1="240.55" x2="274.43" y2="234.89"/><text transform="translate(0 9.28)" style="font-size:8.00pt;text-anchor:middle" x="274.43" y="240.55">201</text><line class="majorpip" x1="336.78" y1="240.55" x2="336.78" y2="234.89"/><text transform="translate(0 9.28)" style="font-size:8.00pt;text-anchor:middle" x="336.78" y="240.55">301</text><line class="majorpip" x1="399.13" y1="240.55" x2="399.13" y2="234.89"/><text transform="translate(0 9.28)" style="font-size:8.00pt;text-anchor:middle" x="399.13" y="240.55">401</text><text transform="translate(0 3.2)" style="font-size:8.00pt;text-anchor:middle" x="247.63" y="268.85">Calendar date (BC/AD)</text></g><g><line class="majorpip" x1="84.9" y1="204.33" x2="84.9" y2="129.61"/><line class="minorpip" x1="84.9" y1="204.33" x2="87.73" y2="204.33"/><line class="minorpip" x1="84.9" y1="200.07" x2="87.73" y2="200.07"/><line class="minorpip" x1="84.9" y1="195.81" x2="87.73" y2="195.81"/><line class="minorpip" x1="84.9" y1="191.55" x2="87.73" y2="191.55"/><line class="minorpip" x1="84.9" y1="187.29" x2="87.73" y2="187.29"/><line class="minorpip" x1="84.9" y1="183.03" x2="87.73" y2="183.03"/><line class="minorpip" x1="84.9" y1="178.77" x2="87.73" y2="178.77"/><line class="minorpip" x1="84.9" y1="174.51" x2="87.73" y2="174.51"/><line class="minorpip" x1="84.9" y1="170.26" x2="87.73" y2="170.26"/><line class="minorpip" x1="84.9" y1="166" x2="87.73" y2="166"/><line class="minorpip" x1="84.9" y1="161.74" x2="87.73" y2="161.74"/><line class="minorpip" x1="84.9" y1="157.48" x2="87.73" y2="157.48"/><line class="minorpip" x1="84.9" y1="153.22" x2="87.73" y2="153.22"/><line class="minorpip" x1="84.9" y1="148.96" x2="87.73" y2="148.96"/><line class="minorpip" x1="84.9" y1="144.7" x2="87.73" y2="144.7"/><line class="minorpip" x1="84.9" y1="140.44" x2="87.73" y2="140.44"/><line class="minorpip" x1="84.9" y1="136.18" x2="87.73" y2="136.18"/><line class="minorpip" x1="84.9" y1="131.92" x2="87.73" y2="131.92"/><line class="majorpip" x1="84.9" y1="204.33" x2="90.56" y2="204.33"/><text transform="translate(0 3.2)" style="font-size:8.00pt;text-anchor:end" x="82.07" y="204.33">0</text><line class="majorpip" x1="84.9" y1="161.74" x2="90.56" y2="161.74"/><text transform="translate(0 3.2)" style="font-size:8.00pt;text-anchor:end" x="82.07" y="161.74">0.05</text><text transform="matrix(0,-1,1,0,28.3,166.97)" style="font-size:8.00pt;text-anchor:middle" x="0" y="3.2">Probability density</text></g><text transform="translate(0 -1.15)" style="font-size:4.80pt" x="84.9" y="14.15">OxCal v4.4.4 Bronk Ramsey (2021); r:5</text></g></g>
</svg>